<svg width="24" height="10" viewBox="0 0 24 10" xmlns="http://www.w3.org/2000/svg"><title>article-nav</title><g fill="#000" fill-rule="evenodd"><path d="M23.922 5.177c.024-.026.042-.052.055-.082.012-.03.02-.062.02-.095 0-.034-.008-.067-.02-.097-.013-.03-.03-.06-.055-.082L19.414.314c-.098-.098-.257-.098-.355 0-.05.05-.075.113-.075.177 0 .065.025.13.074.178l4.08 4.08H12.25c-.138 0-.25.113-.25.252 0 .14.112.25.25.25h10.89l-4.08 4.08c-.05.05-.075.113-.075.177 0 .065.025.13.074.178.097.098.256.098.354 0l4.508-4.508zM.073 4.82c-.023.027-.04.053-.054.083-.013.03-.02.062-.02.095 0 .034.007.067.02.097.012.03.03.06.053.082l4.51 4.508c.097.098.256.098.354 0 .05-.05.074-.113.074-.177 0-.065-.024-.13-.073-.178L.857 5.25H11.75c.138 0 .25-.112.25-.25 0-.14-.112-.252-.25-.252H.856l4.08-4.08c.05-.05.074-.113.074-.177 0-.064-.024-.128-.073-.177-.098-.098-.257-.098-.355 0L.072 4.82z"/></g></svg>