<svg width="100" height="160" viewBox="0 0 100 160" xmlns="http://www.w3.org/2000/svg"><title>logo</title><g fill="#000" fill-rule="evenodd"><path d="M649.493 12.564c-1.52-.056-2.24-.227-3.375-.364-.79.113-1.362.076-2.068-.034-.985.038-2.194.103-3.442.126-.768.013-1.31-.112-2.407-.08-1.738.053-3.605.02-5.416.027-1.22.005-2.443.013-3.65.035-.856.017-1.696.068-2.22-.084-.015-.004-.55.027-.717.075-1.664-.006-3.33-.01-4.99-.022-.64-.005-1.27-.05-1.907-.052-3.396-.004-6.792 0-10.188 0-1.69 0-3.395.016-5.068-.01-1.516-.02-3.01-.115-4.39.055-.054.007-.206.004-.29-.002-2.048-.13-4.038.035-6.062.024-1.49-.008-3.086-.055-4.445.003-2.08.09-4.192-.04-6.06.04-2.015.087-4.042.01-5.997.093-.193.008-.644-.105-1.042-.173-.863.214-2.296.23-4.097.164-.903-.033-2.214.097-2.955.045-1.274-.09-2.3-.02-3.435-.003-1.998.028-4.004.084-5.993.075-1.48-.007-2.838.065-4.274.06-.2 0-.396-.003-.593-.006-1.293-.018-2.59-.058-3.873-.05-1.368.01-2.715.073-4.085.098-1.09.02-2.204.015-3.056.02-.086-.007.1.01.435.038-1.743.017-3.59-.16-4.624.067l-1.84-.057c-1.188-.032-2.374-.07-3.572-.09-.367-.007-1.097.025-1.11.046-.11.17-1.004.123-1.687.134-1.044.017-2.102.022-3.13.05-.768.02-1.414.082-2.2-.024-.303-.04-1.25-.02-1.773.012-1.562.1-3.11.085-4.774.072-2.41-.018-4.842.036-7.268.046-2.303.01-4.618-.01-6.914.01-1.567.016-3.1.092-4.67.116-1.307.02-2.64.004-3.962.004-.244 0-.563-.01-.717.008-1.138.13-2.255.068-3.446-.006l-.054.115c-1.586.01-3.183.02-4.78.028-2.415.014-4.834.017-7.24.045-1.87.02-3.716.09-5.587.106-1.042.01-2.115-.057-3.175-.057-1.092 0-2.18.05-3.28.06-3.292.024-6.588.043-9.883.057-2.78.01-5.562.01-8.344.016-1.78.004-3.674.07-5.32.006-2.705-.106-5.488.083-8.086-.09-1.02.128-2.048.005-3.107.005l.434.075c-.094.005-.187.014-.273.013-1.53-.02-3.057-.055-4.586-.057-.99 0-2-.115-3.056.004-.114.014-.997-.108-1.455-.16-.07.376-2.215.093-3.287.115-2.573.054-5.238.024-7.865.023-1.82 0-3.642-.01-5.463-.01-.654 0-1.325.044-1.952.032-.68-.013-1.32-.068-1.68-.09-.895.013-1.652 0-2.288.035-1.32.07-2.593-.024-4.01.017-2.39.068-5.004.026-7.475-.02-1.576-.03-2.967.078-4.56.035-1.596-.043-3.308.007-4.968.004-.756 0-1.513-.05-2.26-.045-1.02.007-2.02.062-3.04.067-1.37.005-2.747-.017-4.12-.028-.29-.002-.586-.013-.87-.01-1.027.02-2.048.05-3.08.06-1.258.012-2.525.017-3.786.012-.5-.002-.992-.042-1.103-.047l-12.228-.006-.39-.18c-.443.158-2.613.286-3.976.275-4.05-.033-8.1-.068-12.152-.08-3.107-.01-6.22.016-9.33.024-.177 0-.352-.013-.538-.05l2.016-.054-.032-.024-4.405.026 1.18-.07c-.943.002-2.098-.116-2.653.09-.077.03-.46.056-.71.058-1.727.014-3.457.027-5.187.03-1.287 0-2.575-.016-3.864-.02-.724-.004-1.49-.023-2.165.002-1.97.075-3.783.02-5.523-.103-.947.21-1.418.216-1.948.082-1 .005-1.824.014-2.648.015-2.835.003-5.67.01-8.505.004-2.864-.006-5.723-.03-8.583-.05-.122 0-.292-.033-.347-.03-1.91.15-3.945.05-5.918.06-.566.003-1.14-.032-1.874-.005l-1.13-.18c-1.017.14-2.097.27-3.533.09-1.144.118-2.39.044-3.594.035-.266-.002-.52-.042-.776-.064l.096-.088c-.847.04-1.694.083-2.54.124l.13.052-2.315.014-1.232-.15c-.084.01-.167.022-.25.033l.834.142c-2.468-.008-4.667-.01-6.862-.023-1.508-.01-2.914-.037-4.457.06-1.076.067-2.597-.002-3.913-.02-.07 0-.114-.034-.12-.045-1.194.012-2.258.03-3.32.032-3.065.003-6.13.005-9.19-.008-1.18-.006-2.345-.06-3.527-.074-.363-.005-.748.054-1.147.063-.547.01-1.16.023-1.67 0-.59-.026-1.094-.09-1.662-.14-.322.21-1.51.12-2.304.148-.602.02-1.306.025-1.893 0-.542-.02-.99-.09-1.587-.148-.043.01-.246.063-.466.12-1.06-.003-2.14-.31-3.103-.046l-3.268.048c-1.34.02-2.58-.062-3.864-.078-.97-.012-1.977.04-3.102.067-1.074-.17-2.58-.072-3.864-.02-1.694.066-3.1.012-4.54-.093-.554-.04-1.14-.073-1.31-.083-.37.088-.573.193-.884.2-.846.02-1.737-.003-2.73-.01l.767-.088c-1.068.016-2.005.03-3.194.05l-1.686-.01c-1.186 0-2.377-.012-3.557-.002-2.564.02-5.123.073-7.687.077-3.773.008-7.547-.02-11.322-.024-1.296-.002-2.742.077-3.854.02-1.396-.074-2.603-.024-3.905-.02-1.447.007-2.9-.012-4.348-.013-1.59 0-3.185.014-4.777.013-2.818-.002-5.635-.013-8.454-.016-1.3 0-2.6.006-3.898.015-2.59.018-5.203.08-7.76.047-2.122-.027-4.164.01-6.243.022l-7.827.047c.176-.044.294-.062.314-.082.046-.047.046-.095.066-.143-.365.01-.784.008-1.08.033-.412.036-.712.13-1.096.134-3.246.033-6.503.067-9.755.065-1.09 0-2.183-.026-3.277.003-.05 0-.116.006-.147.003-1.658-.153-3.207.035-4.808.03-2.865-.01-5.724-.04-8.587-.048-2.228-.007-4.41-.06-6.696-.01-2.784.06-5.656.04-8.49.05-2.12.005-4.24-.002-6.36-.003-2.712-.002-5.425.006-8.13-.012-.884-.006-1.743-.08-2.67-.126l-.2.13c-1.01.006-1.964.01-2.945.017v2.225h.917c5.646-.007 11.292-.01 16.938-.023 4.757-.01 9.513-.045 14.27-.046 2.55 0 5.1.05 7.65.068 3.15.024 6.302.044 9.455.057 2.752.012 5.508.005 8.26.017 4.097.017 8.19.052 12.288.066 2.953.01 5.91-.01 8.862 0 2.395.01 4.784.047 7.178.064 3.257.022 6.516.036 9.774.056 1.707.01 3.412.032 5.12.037 4.643.01 9.288.01 13.93.024 2.707.008 5.41.04 8.114.048 2.158.006 4.32-.013 6.48-.014 3.202 0 6.406.01 9.608.008 2.277-.002 4.557-.027 6.834-.024 2.765.003 5.53.026 8.295.037 4.203.016 8.408.042 12.61.042 3.297 0 6.593-.043 9.892-.05 2.944-.006 5.89.013 8.835.017 2.184 0 4.37-.005 6.555-.003.95 0 1.902.01 2.85.02 3 .028 5.994.074 8.995.082 4.266.01 8.536-.01 12.805-.01 3.91.002 7.816.017 11.724.023 3.502.005 7.006-.002 10.51.01 3.17.012 6.336.05 9.507.062 3.746.015 7.496.02 11.244.018 4.158-.003 8.312-.023 12.47-.027 3.205-.003 6.414.02 9.617.008 3.558-.012 7.11-.067 10.667-.07 3.58-.005 7.162.037 10.745.046 1.798.004 3.6-.024 5.4-.03 3.69-.01 7.38-.006 11.072-.02 3.696-.015 7.39-.05 11.086-.067 4.484-.022 8.97-.04 13.455-.055 2.263-.008 4.53-.006 6.795-.012 3.992-.01 7.985-.027 11.978-.03 3.797-.004 7.593.01 11.39.008 3.045 0 6.087-.02 9.13-.02 3.864.004 7.726.037 11.587.03 5.36-.012 10.717-.052 16.076-.072 4.815-.02 9.634-.022 14.447-.04 1.995-.008 3.984-.042 5.98-.054 2.7-.017 5.405-.022 8.107-.038 2.652-.016 5.304-.035 7.95-.064 1.374-.014 2.73-.07 4.1-.076 4.077-.017 8.16-.006 12.237-.03 2.113-.01 4.204-.084 6.315-.107 5.113-.058 10.23-.12 15.354-.148 3.986-.022 7.984.015 11.976.006 1.885-.003 3.76-.063 5.647-.083 1.64-.018 3.293-.01 4.935-.023 5.05-.043 10.096-.095 15.146-.136 2.834-.023 5.688-.014 8.51-.05 5.757-.078 11.497-.18 17.248-.267 5.12-.076 10.24-.15 15.366-.218 2.848-.038 5.71-.054 8.562-.088 3.932-.047 7.877-.083 11.78-.16 2.842-.058 5.74-.13 8.403-.274 2.93-.158 5.65-.396 8.396-.616v-.95z"/><path d="M47.932 15.407c.003.12-.027.24-.025.36.004.196.023.393.032.59.005.125 0 .25.01.372.01.164.045.328.045.492 0 .303-.02.606-.028.91-.002.068.005.137.008.224l-.165-.076c-.04.12-.116.236.08.303.04.013.087.103.08.147-.045.222.06.453-.08.677-.055.086.052.26.054.396.01.488 0 .975.008 1.462.005.364.03.728.04 1.092.004.21-.006.42-.01.632-.003.206 0 .414-.015.62-.005.077-.047.15-.086.265.073.06.16.15.047.335-.052.084.044.253.053.385.033.445.066.89.082 1.335.01.323 0 .647-.01.97 0 .067-.046.133-.067.188.022.064.064.134.068.206.014.255.017.51.02.765.003.15.01.298-.026.454-.032.132.043.286.058.432.018.175.032.352.026.527 0 .087-.052.172-.096.302l-.127.04.2.227c.002-.005-.014.037-.04.072-.075.102-.162.196-.04.327.027.03.02.097.016.146-.02.287-.053.574-.06.86-.003.19.035.382.048.572.017.24.034.48.04.72.003.203-.007.407-.016.61-.01.182-.04.365-.033.547.006.158.065.315.07.473.005.21-.037.42-.028.628.018.39.06.776.087 1.165.018.28.03.56-.096.826-.018.038-.016.123.007.138.17.106.082.288.138.426.015.036.024.093.006.122-.124.197-.042.407-.045.61-.005.294 0 .59.01.883.004.15.033.302.044.454.006.076 0 .154-.004.23-.012.195-.036.39-.038.585-.005.396.005.79 0 1.187 0 .142-.092.333-.028.417.154.203-.003.4.05.598.055.194.07.408.056.61-.016.252.01.49.08.73.02.06-.054.143-.06.218-.008.08.01.165.024.247.003.025.042.057.035.07-.09.16.023.355-.033.476-.097.208.06.367.022.56-.042.205-.002.427.006.64.005.163.027.326.02.487-.003.073-.085.146-.08.216.026.495.08.99.098 1.484.015.388-.018.78-.01 1.168.006.4.045.8.053 1.203.006.304-.03.61-.02.913.013.348.06.693.086 1.04.025.34.043.683.057 1.025.013.307.036.617.02.923-.012.263.096.504.09.764-.007.195.062.4.023.586-.072.346-.028.69-.036 1.033-.01.37.092.743.055 1.105-.025.25.072.46.074.688.005.476-.004.953 0 1.43 0 .22.01.444.025.666.016.195.08.387-.045.58-.03.045.035.147.04.225.016.26.024.52.037.833l-.243-.153c-.02.12-.035.227-.057.367l.242-.093c.01.255.008.5.035.742.03.277.093.55.133.826.018.127.015.258.022.386.037.653.088 1.305.106 1.958.007.22-.07.444-.11.666-.04.222-.073.444-.118.664-.015.07-.058.133-.107.244.08.18-.07.327-.207.485-.037.043-.03.13-.033.195-.006.127-.046.186-.212.077l.06.247c-.072.09-.127.162-.187.23-.026.028-.065.043-.094.07-.048.04-.123.08-.133.13-.043.22-.238.307-.352.46-.232.313-.567.5-.836.765-.032.03-.078.05-.115.077-.09.067-.176.135-.238.234-.062.01-.143-.003-.18.03-.246.227-.486.46-.72.697-.095.096-.164.215-.254.315-.17.19-.39.352-.508.57-.07.132-.33.222-.19.452.004.004-.07.06-.11.087-.073.05-.154.092-.218.152-.138.127-.268.265-.416.415-.04.076-.086.19-.15.292-.084.13-.188.248-.27.38-.035.058-.04.137-.07.248-.2.096-.34.305-.466.542-.227.43-.503.837-.72 1.27-.15.297-.232.625-.348.937-.028.075-.087.14-.11.215-.093.31-.134.647-.28.93-.126.25-.162.515-.26.766-.165.434-.188.9-.24 1.36-.012.12-.1.228-.16.355l.1-.017c-.02.218-.033.425-.06.63-.007.067-.044.13-.066.186.015.11.05.23.042.344-.01.14-.035.286-.093.41-.073.155-.06.254.08.303-.027.08-.07.148-.07.214.01.463.034.924.042 1.385.002.132-.033.263-.056.434.023.21.094.475.076.733-.04.586.03 1.164.075 1.742.045.58.13 1.154.193 1.73.018.16.025.32.025.48 0 .14.09.246.1.397.04.562.14 1.12.245 1.677.063.337.19.663.258 1.002.078.384.12.775.178 1.164.007.04.032.076.042.116.073.286.198.572.197.858 0 .166.212.32.037.496-.013.013.07.107.09.17.087.278.162.56.25.838.08.257.172.51.258.767.068.202.13.404.203.603.06.167.112.345.21.49.165.25.18.602.497.763.105-.098.093-.193.076-.333-.03-.25.038-.51.032-.764-.008-.37-.045-.74-.07-1.108l-.104-1.59c-.01-.16-.02-.32-.028-.477-.01-.18-.01-.36-.03-.538-.043-.4-.103-.796-.14-1.195-.038-.39-.05-.783-.084-1.173-.037-.426-.106-.848-.127-1.273-.022-.472-.002-.945-.006-1.418 0-.14-.02-.28-.032-.42-.003-.025-.024-.05-.02-.074.062-.566.126-1.132.196-1.698.01-.082.055-.158.07-.24.06-.333.134-.666.164-1.002.02-.22.144-.365.265-.517.14-.178.276-.376.458-.503.355-.247.684-.063.99.14.077.052.185.09.153.236-.012.056.054.16.112.194.24.15.235.42.32.634.16.416.285.848.387 1.28.062.266.05.547.077.82.034.347.077.693.114 1.04.007.066 0 .133 0 .2-.004.076-.022.154-.012.228.034.263.082.524.113.787.037.303.077.607.09.912.02.465.014.93.028 1.398.01.278.062.56.045.835-.017.264.035.516.055.773.018.236.09.473.073.705-.023.36.034.714.036 1.068.004.42.103.82.154 1.228.033.26.117.513.176.77.043.182.07.368.128.545.036.11.114.208.206.306.152-.24.36-.404.378-.707.025-.45.11-.894.166-1.34.007-.057.01-.114.007-.17-.024-.634-.054-1.267-.073-1.9-.025-.802-.033-1.604-.065-2.406-.025-.574-.082-1.148-.117-1.722-.05-.858-.124-1.715-.133-2.573-.004-.46.104-.922.172-1.38.036-.238.083-.475.152-.704.036-.122.134-.225.192-.342.032-.065.037-.142.05-.187.088-.092.153-.186.24-.245.31-.204.608-.434.944-.575.157-.065.39.048.59.086.06.01.128.027.174.063.088.067.19.137.237.23.15.3.285.61.41.92.13.326.287.648.357.988.136.66.208 1.335.33 2 .07.394.19.78.278 1.17.016.072-.015.15-.012.226.003.112.01.225.026.337.02.157.054.312.075.468.023.176.075.36.047.53-.036.214.108.356.142.537.037.2.066.398.1.597.003.02.017.044.01.06-.14.38.148.765-.014 1.15-.024.056.062.15.078.233.093.46.178.923.27 1.384.038.184.155.382.118.546-.065.29.14.455.21.68.08.258.14.524.24.775.05.122.165.22.26.32.01.01.108-.022.115-.05.063-.22.133-.443.162-.67.028-.223.012-.452.014-.678 0-.056-.002-.113-.01-.168-.032-.25-.064-.5-.1-.75-.054-.364-.112-.73-.165-1.094-.054-.383-.107-.766-.158-1.15-.044-.326-.096-.65-.122-.98-.024-.305-.014-.612-.025-.92-.008-.2-.037-.4-.04-.6-.004-.28.014-.563.01-.844-.01-.558-.037-1.115-.04-1.673 0-.253.03-.508.06-.76.067-.58.22-1.14.408-1.69.074-.22.244-.41.388-.6.138-.182.272-.39.456-.506.195-.123.333-.325.594-.372.23-.042.436.006.652.03.027.004.052.04.075.065.198.196.344.427.453.683l.01.018c.108.164.187.332.248.526.106.338.268.66.29 1.02.025.423.033.848.053 1.273.004.06.022.13.057.18.083.112.114.206.027.343-.033.053-.127.233.092.246.018 0 .04.056.046.088.068.49.13.98.2 1.472.042.296.167.603.12.882-.063.356.147.66.084 1.004-.017.09.1.205.083.298-.066.4.15.754.17 1.138.005.062-.024.125-.036.188-.006.033-.024.09-.014.096.19.11.078.276.09.42.024.252.056.503.1.752.072.398.128.803.247 1.188.086.282.102.607.356.823.024.02.058.066.05.083-.106.242.15.282.215.423.37-.074.393-.322.383-.63-.012-.41.037-.82.037-1.232 0-.37-.04-.737-.047-1.105-.003-.15.044-.3.047-.45.008-.53.017-1.06.006-1.592-.006-.283-.058-.567-.08-.85-.022-.327-.033-.655-.047-.98-.023-.52-.054-1.04-.06-1.56-.005-.288.04-.577.05-.866.017-.405.047-.81.028-1.215-.026-.544-.108-1.084-.14-1.627-.027-.485-.007-.973-.03-1.458-.022-.436-.076-.87-.113-1.304-.04-.47-.058-.94-.118-1.407-.057-.445-.16-.883-.234-1.325-.06-.364-.08-.737-.165-1.095-.083-.353-.213-.696-.342-1.036-.113-.3-.247-.595-.385-.886-.076-.16-.185-.304-.266-.463-.18-.352-.334-.717-.525-1.06-.162-.292-.352-.57-.548-.84-.233-.32-.48-.636-.73-.944-.37-.45-.713-.92-1.158-1.306-.233-.2-.435-.435-.65-.653-.23-.23-.47-.446-.682-.688-.243-.276-.465-.57-.69-.86-.343-.445-.515-.953-.576-1.51-.022-.206-.133-.4-.19-.602-.083-.303-.176-.6-.14-.93.027-.23-.04-.475-.064-.713-.025-.25-.047-.5-.075-.75-.035-.302-.083-.604-.113-.907-.04-.423-.082-.847-.1-1.272-.02-.38.002-.76-.012-1.14-.01-.318-.067-.634-.07-.95-.003-.495.022-.99.034-1.484.005-.216.06-.45 0-.646-.192-.608-.103-1.236-.18-1.85-.048-.397.003-.805-.005-1.208-.006-.31-.045-.617-.048-.925-.007-.483.004-.968.01-1.452.007-.475.015-.95.025-1.426.01-.38.033-.76.03-1.138-.01-.72-.037-1.442-.05-2.163-.012-.677-.018-1.353-.02-2.03-.003-.662.01-1.324.003-1.986-.006-.523-.033-1.046-.045-1.57-.004-.21.012-.424.012-.636-.002-.943-.003-1.887-.013-2.83-.002-.255-.045-.51-.045-.763 0-.51.023-1.017.02-1.526 0-.508-.02-1.015-.04-1.52-.008-.19-.04-.378-.07-.565-.015-.09-.054-.173-.085-.267l.19-.06c-.188-.22.014-.403.034-.608.025-.252.012-.508.015-.762.008-.58.02-1.157.022-1.735.003-.595.002-1.19-.007-1.783-.004-.36-.03-.717-.038-1.076-.013-.556-.015-1.112-.03-1.668-.015-.558-.048-1.116-.06-1.674-.003-.25.036-.5.038-.748.002-.224-.023-.448-.03-.672-.007-.318-.012-.635-.01-.952 0-.336.03-.672.016-1.007-.02-.507-.07-1.012-.096-1.518-.012-.25.014-.5-.002-.75-.024-.372-.09-.742-.1-1.114-.015-.39.023-.78.022-1.17-.002-.64-.018-1.283-.024-1.924-.005-.496-.005-.99-.008-1.485h-2.227c.01.227.02.455.027.677M42.322 141.44c0 .41-.056.755-.156 1.21l-.367 1.714c-.012.044-.034.222-.034.278 0 .1 0 .278.11.278.234 0 .702-.578.735-.612.034 0 .146.19.146.256-.127.217-.882 1.045-1.402 1.045-.233 0-.378-.245-.378-.58 0-.088.034-.355.078-.588l.39-1.835c.02-.098.077-.48.077-.6 0-.257-.02-.48-.21-.48-.4 0-1.813 1.48-2.135 3.148l-.19.868c-.11.033-.233.044-.344.044-.11 0-.244-.01-.377-.044l1.204-6.217c.04-.2.1-.467.1-.59 0-.21-.5-.21-.678-.21-.024 0-.035-.045-.035-.067 0-.09.045-.18.09-.224.61-.055 1.156-.222 1.4-.31.056.032.063.143.063.21 0 .09-.088.556-.14.834l-.57 2.903-.198 1.023c.145-.278 1.532-2.19 2.266-2.19.434 0 .556.31.556.733M44.542 143.785c0 .89.323 1.356.723 1.356.778 0 1.412-1.522 1.412-2.634 0-.89-.267-1.346-.667-1.346-.78 0-1.468 1.513-1.468 2.625m2.98-1.368c0 1.557-1.345 3.18-2.457 3.18-.89 0-1.368-.61-1.368-1.667 0-1.558 1.334-3.226 2.446-3.226.89 0 1.38.656 1.38 1.713M50.3 141.283c0 .09-.012.356-.066.59l-.39 1.834c-.023.1-.078.48-.078.6 0 .257.023.48.212.48.4 0 1.724-1.48 2.047-3.148l.19-.868c.11-.034.23-.045.342-.045.112 0 .245.01.38.045l-.692 3.592c-.01.044-.033.222-.033.278 0 .1 0 .278.11.278.234 0 .7-.58.734-.612.035 0 .146.19.146.256-.127.216-.883 1.045-1.4 1.045-.236 0-.38-.245-.38-.58 0-.088.034-.355.078-.59l.2-1.022c-.146.278-1.445 2.19-2.178 2.19-.433 0-.556-.31-.556-.733 0-.41.053-.756.155-1.212l.334-1.546c.01-.078.056-.39.056-.445 0-.1 0-.278-.11-.278-.178 0-.578.49-.612.523-.033 0-.144-.19-.144-.256.126-.215.845-.955 1.28-.955.232 0 .377.245.377.578M57.245 141.094c.033.078.055.156.055.234 0 .255-.155.49-.378.49-.39 0-.367-.657-1.067-.657-.334 0-.5.28-.5.512 0 .89 1.378 1.457 1.378 2.57 0 .822-.656 1.367-1.59 1.367-.445 0-.767-.157-1-.423-.034-.056-.057-.145-.057-.212 0-.256.156-.51.38-.51.388 0 .366.655 1.066.655.345 0 .545-.278.545-.512 0-.89-1.38-1.457-1.38-2.57 0-.566.613-1.367 1.547-1.367.445 0 .767.157 1 .424M58.876 143.073c0 .022.01.044.044.044.434 0 1.68-.8 1.68-1.623 0-.133-.067-.333-.278-.333-.78 0-1.446 1.502-1.446 1.913m2.524-1.535c0 1.07-1.868 1.97-2.557 1.97-.045 0-.045.332-.045.388 0 .684.29 1.024.723 1.024.524 0 1.002-.578 1.035-.612.034 0 .145.19.145.256-.123.21-.845 1.046-1.546 1.046-.79 0-1.19-.658-1.19-1.692 0-1.412 1.323-3.214 2.47-3.214.755 0 .966.5.966.834M27.06 127.164v2.55c0 .78.023 1.44.188 2.08.07.26 1.228.47 1.417.47.118 0 .118.544.07.686-.944-.047-1.63-.118-2.526-.118-.97 0-1.513.07-2.48.118-.12-.118-.12-.685 0-.685.283 0 1.275-.212 1.345-.472.142-.59.166-1.323.166-1.653v-2.504c0-3.117-.968-3.66-2.455-3.66-.992 0-2.102 1.015-2.102 1.535v4.18c0 .78.023 1.465.19 2.103.07.26 1.227.472 1.416.472.117 0 .117.543.07.685-.945-.047-1.63-.118-2.527-.118-.97 0-1.606.07-2.574.118-.12-.118-.12-.685 0-.685.282 0 1.368-.212 1.44-.472.14-.59.164-1.3.164-1.63v-10.25c0-.4-.047-1.038-.14-1.51-.096-.33-.804-.378-1.206-.378h-.212c-.095 0-.142-.095-.142-.26 0-.047.024-.378.142-.378 2.574-.236 3.21-.897 3.282-.897h.048c.14 0 .283.26.306.378 0 0-.26.755-.26 2.054v5.172c0 .024 0 .094.048.094.024 0 .047-.023.07-.047.568-.613 2.032-1.605 3.307-1.605 2.173 0 2.952 1.56 2.952 4.63M32.766 127.423c0 2.598 1.582 4.7 3.354 4.7 1.723 0 2.857-1.89 2.857-4.015 0-2.598-1.606-4.63-3.377-4.63-1.724 0-2.834 1.82-2.834 3.945m8.242.354c0 2.88-2.22 5.267-5.1 5.267-2.882 0-5.173-2.386-5.173-5.267 0-2.928 2.196-5.22 5.125-5.22 2.857 0 5.148 2.363 5.148 5.22M44.566 119.914c0-.4-.047-1.04-.142-1.51-.094-.332-.803-.38-1.204-.38h-.213c-.094 0-.14-.094-.14-.26 0-.046.022-.377.14-.377 2.574-.236 3.212-.897 3.283-.897h.047c.142 0 .284.26.307.378 0 0-.26.755-.26 2.054v10.77c0 .778.024 1.463.19 2.1.07.26 1.227.473 1.416.473.118 0 .118.543.07.685-.943-.047-1.628-.118-2.526-.118-.968 0-1.606.07-2.574.118-.118-.118-.118-.685 0-.685.283 0 1.37-.212 1.44-.472.142-.59.166-1.323.166-1.653v-10.226zM55.964 122.865c.165.733.26 1.56.284 2.41 0 .093-.19.117-.307.117-.118 0-.33-.046-.354-.164-.14-.803-.92-1.843-1.936-1.843-1.134 0-1.7.543-1.7 1.393 0 1.228 1.038 1.582 2.1 2.22 1.064.638 2.764 1.393 2.764 2.88 0 1.915-1.724 3.26-3.637 3.26-1.086 0-1.723-.26-2.763-.448-.19-.496-.4-1.842-.4-2.456.093-.072.164-.14.282-.14.165 0 .355-.025.378.14.165.85 1.252 2.055 2.503 2.055.97 0 1.724-.52 1.724-1.607 0-1.44-1.557-1.913-2.927-2.716-.944-.543-1.842-1.275-1.842-2.527 0-1.747 1.678-2.88 3.425-2.88.92 0 1.37.188 2.41.306M61.033 127.423c0 2.598 1.582 4.7 3.354 4.7 1.723 0 2.857-1.89 2.857-4.015 0-2.598-1.606-4.63-3.377-4.63-1.724 0-2.834 1.82-2.834 3.945m8.242.354c0 2.88-2.22 5.267-5.1 5.267-2.882 0-5.173-2.386-5.173-5.267 0-2.928 2.196-5.22 5.125-5.22 2.857 0 5.148 2.363 5.148 5.22M81.358 127.54v2.15c0 .78.024 1.464.19 2.102.07.26 1.227.472 1.416.472.118 0 .118.543.07.685-.944-.047-1.63-.118-2.526-.118-.968 0-1.512.07-2.48.118-.118-.118-.118-.685 0-.685.284 0 1.275-.212 1.346-.472.142-.59.166-1.323.166-1.653v-2.362c0-3.047-.803-3.803-2.41-3.803-1.062 0-2.148.993-2.148 1.56v4.156c0 .78.023 1.464.19 2.102.07.26 1.227.472 1.416.472.118 0 .118.543.07.685-.944-.047-1.63-.118-2.526-.118-.97 0-1.606.07-2.574.118-.12-.118-.12-.685 0-.685.283 0 1.37-.212 1.44-.472.142-.59.165-1.323.165-1.653v-4.464c0-.19-.023-.945-.33-1.276-.52-.638-1.37-.4-1.37-.543 0-.023.024-.567.142-.59 1.062-.165 2.385-.355 3.26-.614.022 0 .093-.024.117-.024.14 0 .14.377.118.496-.07.495-.095.755-.095.944 0 .024 0 .095.047.095.024 0 .048-.025.07-.047.568-.59 1.985-1.584 3.26-1.584 2.244 0 2.976 1.584 2.976 5.007"/></g></svg>