<svg width="12" height="12" viewBox="0 0 12 12" xmlns="http://www.w3.org/2000/svg"><title>search</title><path d="M8.044 5.03c0-1.694-1.37-3.065-3.064-3.065S1.91 3.335 1.91 5.03c0 1.692 1.376 3.068 3.07 3.068 1.693 0 3.064-1.375 3.064-3.07m2.084 6.48L7.495 8.873c-.722.472-1.584.75-2.515.75-2.538 0-4.59-2.058-4.59-4.595C.39 2.495 2.44.44 4.98.44c2.533 0 4.59 2.056 4.59 4.59 0 .885-.25 1.71-.682 2.41l2.653 2.65c.14.137.023.477-.258.758l-.395.396c-.282.28-.622.4-.76.263" fill="#CCC3C0" fill-rule="evenodd"/></svg>