<?xml version="1.0" encoding="UTF-8" standalone="no"?>
<svg width="24px" height="10px" viewBox="0 0 24 10" version="1.1" xmlns="http://www.w3.org/2000/svg" xmlns:xlink="http://www.w3.org/1999/xlink" xmlns:sketch="http://www.bohemiancoding.com/sketch/ns">
    <!-- Generator: Sketch 3.3.3 (12072) - http://www.bohemiancoding.com/sketch -->
    <title>article-nav</title>
    <desc>Created with Sketch.</desc>
    <defs></defs>
    <g id="Page-1" stroke="none" stroke-width="1" fill="none" fill-rule="evenodd" sketch:type="MSPage">
        <g id="article-nav" sketch:type="MSArtboardGroup" fill="#000000">
            <path d="M23.9220001,5.17749999 C23.9460001,5.15149999 23.9640001,5.12549999 23.9770001,5.09549999 C23.9890001,5.06549999 23.9960001,5.03349999 23.9960001,5.00049999 C23.9960001,4.96649999 23.9890001,4.93349999 23.9770001,4.90349999 C23.9640001,4.87249999 23.9460001,4.84449999 23.9220001,4.82149999 L19.4140001,0.313499995 C19.3160001,0.215499995 19.1570001,0.215499995 19.0590001,0.313499995 C19.0100001,0.362499995 18.9850001,0.426499995 18.9850001,0.490499995 C18.9850001,0.555499995 19.0100001,0.619499995 19.0590001,0.668499995 L23.1390001,4.74849999 L12.251,4.74850002 C12.112,4.74850002 12,4.86050002 12,4.99950002 C12,5.13850002 12.112,5.25050002 12.251,5.25050002 L23.1390001,5.25049999 L19.0590001,9.33049999 C19.0100001,9.37949999 18.9850001,9.44349999 18.9850001,9.50749999 C18.9850001,9.57249999 19.0100001,9.63649999 19.0590001,9.68549999 C19.1570001,9.78349999 19.3160001,9.78349999 19.4140001,9.68549999 L23.9220001,5.17749999 Z" id="Next" sketch:type="MSShapeGroup"></path>
            <path d="M0.073,4.82149999 C0.05,4.84749999 0.032,4.87349999 0.019,4.90349999 C0.007,4.93349999 0,4.96549999 0,4.99849999 C0,5.03249999 0.007,5.06549999 0.019,5.09549999 C0.032,5.12649999 0.05,5.15449999 0.073,5.17749999 L4.582,9.68549999 C4.68,9.78349999 4.839,9.78349999 4.937,9.68549999 C4.986,9.63649999 5.011,9.57249999 5.011,9.50849999 C5.011,9.44349999 4.986,9.37949999 4.937,9.33049999 L0.857,5.25049999 L11.749,5.24950009 C11.888,5.24950009 12,5.13750009 12,4.99850009 C12,4.85950009 11.888,4.74750009 11.749,4.74750009 L0.857,4.74849999 L4.937,0.668499995 C4.986,0.619499995 5.011,0.555499995 5.011,0.491499995 C5.011,0.426499995 4.986,0.362499995 4.937,0.313499995 C4.839,0.215499995 4.68,0.215499995 4.582,0.313499995 L0.073,4.82149999 Z" id="Previous" sketch:type="MSShapeGroup"></path>
        </g>
    </g>
</svg>