<?xml version="1.0" encoding="UTF-8" standalone="no"?>
<svg width="14px" height="11px" viewBox="0 0 14 11" version="1.1" xmlns="http://www.w3.org/2000/svg" xmlns:xlink="http://www.w3.org/1999/xlink" xmlns:sketch="http://www.bohemiancoding.com/sketch/ns">
    <!-- Generator: Sketch 3.3.3 (12072) - http://www.bohemiancoding.com/sketch -->
    <title>back-to</title>
    <desc>Created with Sketch.</desc>
    <defs></defs>
    <g id="Page-1" stroke="none" stroke-width="1" fill="none" fill-rule="evenodd" sketch:type="MSPage">
        <g id="back-to" sketch:type="MSArtboardGroup" stroke="#CCC3C0">
            <path d="M1.16402506,5.678 C1.14001694,5.652 1.12201086,5.626 1.10900646,5.596 C1.0970024,5.566 1.09000003,5.534 1.09000003,5.501 C1.09000003,5.467 1.0970024,5.434 1.10900646,5.404 C1.12201086,5.373 1.14001694,5.345 1.16402506,5.322 L5.67354981,0.814 C5.77158296,0.716 5.93063673,0.716 6.02866988,0.814 C6.07768645,0.863 6.10269491,0.927 6.10269491,0.991 C6.10269491,1.056 6.07768645,1.12 6.02866988,1.169 L1.9472899,5.249 L12.6689151,5.249 C12.8079621,5.249 12.92,5.361 12.92,5.5 C12.92,5.639 12.8079621,5.751 12.6689151,5.751 L1.9472899,5.751 L6.02866988,9.831 C6.07768645,9.88 6.10269491,9.944 6.10269491,10.008 C6.10269491,10.073 6.07768645,10.137 6.02866988,10.186 C5.93063673,10.284 5.77158296,10.284 5.67354981,10.186 L1.16402506,5.678 Z" id="Previous" sketch:type="MSShapeGroup"></path>
        </g>
    </g>
</svg>