<?xml version="1.0" encoding="UTF-8" standalone="no"?>
<svg width="168px" height="24px" viewBox="0 0 168 24" version="1.1" xmlns="http://www.w3.org/2000/svg" xmlns:xlink="http://www.w3.org/1999/xlink" xmlns:sketch="http://www.bohemiancoding.com/sketch/ns">
    <!-- Generator: Sketch 3.3.3 (12072) - http://www.bohemiancoding.com/sketch -->
    <title>be-social</title>
    <desc>Created with Sketch.</desc>
    <defs></defs>
    <g id="Page-1" stroke="none" stroke-width="1" fill="none" fill-rule="evenodd" sketch:type="MSPage">
        <g id="be-social" sketch:type="MSArtboardGroup" fill="#000000">
            <path d="M18.2719999,7.49299994 C18.2719999,7.91399994 17.9299999,8.25499994 17.5089999,8.25499994 L16.5119999,8.25499994 C16.0909999,8.25499994 15.7489999,7.91399994 15.7489999,7.49299994 L15.7489999,6.49499994 C15.7489999,6.07299994 16.0909999,5.73299994 16.5119999,5.73299994 L17.5089999,5.73299994 C17.9299999,5.73299994 18.2719999,6.07299994 18.2719999,6.49499994 L18.2719999,7.49299994 Z M18.2719999,18.2729999 L5.73199994,18.2729999 L5.73199994,10.1619999 L8.00899994,10.1619999 C7.76399994,10.7089999 7.62399994,11.3119999 7.62399994,11.9489999 C7.62399994,14.3629999 9.58799994,16.3259999 12.0019999,16.3259999 C14.4159999,16.3259999 16.3799999,14.3629999 16.3799999,11.9489999 C16.3799999,11.3119999 16.2399999,10.7089999 15.9949999,10.1619999 L18.2719999,10.1619999 L18.2719999,18.2729999 Z M9.97499994,10.1619999 C10.4709999,9.60099994 11.1949999,9.24299994 12.0019999,9.24299994 C12.8089999,9.24299994 13.5319999,9.60099994 14.0289999,10.1619999 C14.4499999,10.6399999 14.7079999,11.2649999 14.7079999,11.9489999 C14.7079999,13.4409999 13.4939999,14.6549999 12.0019999,14.6549999 C10.5099999,14.6549999 9.29599994,13.4409999 9.29599994,11.9489999 C9.29599994,11.2649999 9.55399994,10.6399999 9.97499994,10.1619999 L9.97499994,10.1619999 Z M18.9959999,4.05999994 L5.00799994,4.05999994 C4.48399994,4.05999994 4.05999994,4.48399994 4.05999994,5.00799994 L4.05999994,18.9959999 C4.05999994,19.5209999 4.48399994,19.9449999 5.00799994,19.9449999 L18.9959999,19.9449999 C19.5199999,19.9449999 19.9439999,19.5209999 19.9439999,18.9959999 L19.9439999,5.00799994 C19.9439999,4.48399994 19.5199999,4.05999994 18.9959999,4.05999994 L18.9959999,4.05999994 Z" id="Fill-9" sketch:type="MSShapeGroup"></path>
            <g id="Fill-11-+-Fill-13-+-Fill-15" sketch:type="MSLayerGroup" transform="translate(101.000000, 3.800000)">
                <path d="M4.181,14.09 C4.181,15.244 3.245,16.181 2.09,16.181 C0.936,16.181 0,15.244 0,14.09 C0,12.936 0.936,12 2.09,12 C3.245,12 4.181,12.936 4.181,14.09" id="Fill-11" sketch:type="MSShapeGroup"></path>
                <path d="M0,6 L0,8.891 C0,8.891 7.016,9.086 7.234,16.357 L10.324,16.357 C10.324,16.357 10.688,6.476 0,6" id="Fill-13" sketch:type="MSShapeGroup"></path>
                <path d="M0,0 L0,2.945 C0,2.945 11.415,2.763 12.687,15.668 L15.559,15.668 C15.559,15.668 15.886,0.872 0,0" id="Fill-15" sketch:type="MSShapeGroup"></path>
            </g>
            <path d="M55.0054449,11.0409349 C55.0054449,11.0409349 54.7814449,10.2089349 54.9124449,9.67193491 C55.0534449,9.12893491 55.2304449,8.36793491 55.5444449,7.87293491 C55.8574449,7.37593491 56.3294449,6.79393491 56.7594449,6.50193491 C57.1844449,6.20793491 57.6154449,5.89493491 58.0814449,5.76193491 C58.5554449,5.62393491 59.1624449,5.53393491 59.6094449,5.49393491 C60.0604449,5.44393491 60.7544449,5.55693491 61.0244449,5.60293491 C61.2964449,5.64893491 61.8584449,5.82693491 62.1714449,6.00793491 C62.4864449,6.18793491 62.8424449,6.50193491 63.0664449,6.74893491 C63.2934449,6.99293491 63.6304449,7.44393491 63.7414449,7.75993491 C63.8544449,8.07293491 63.9684449,8.51993491 63.9924449,8.85893491 C64.0134449,9.19293491 64.0534449,9.57593491 63.9924449,10.0509349 C63.9264449,10.5219349 63.7664449,11.4419349 63.6554449,11.8039349 C63.5424449,12.1639349 63.2524449,12.8829349 63.1384449,13.0829349 C63.0244449,13.2859349 62.7544449,13.6889349 62.5524449,13.8659349 C62.3534449,14.0479349 62.0384449,14.3409349 61.6524449,14.4719349 C61.2704449,14.6119349 60.8254449,14.6999349 60.4164449,14.5849349 C60.0144449,14.4719349 59.5654449,14.1849349 59.4294449,13.9149349 C59.2964449,13.6469349 59.1164449,13.1269349 59.2074449,12.7699349 C59.2964449,12.4079349 59.4524449,11.8239349 59.6324449,11.2609349 C59.8094449,10.7009349 60.1714449,9.82693491 60.1514449,9.30993491 C60.1274449,8.79193491 60.0144449,8.16293491 59.7244449,7.98593491 C59.4294449,7.80593491 58.7814449,7.55693491 58.3744449,7.71593491 C57.9684449,7.87293491 57.3414449,8.38593491 57.1384449,8.92793491 C56.9344449,9.46093491 56.8024449,9.98193491 56.8694449,10.4309349 C56.9344449,10.8779349 57.0484449,11.4419349 57.0484449,11.4419349 L57.2084449,11.8499349 C57.2084449,11.8499349 56.5344449,14.6999349 56.3074449,15.6179349 C56.0814449,16.5399349 55.8364449,17.4429349 55.7474449,17.9799349 C55.6594449,18.5189349 55.7244449,19.5719349 55.7244449,19.5719349 C55.7244449,19.5719349 55.9934449,19.7339349 56.2414449,19.8019349 C56.4894449,19.8649349 56.8944449,19.9999349 56.8944449,19.9999349 C56.8944449,19.9999349 57.1624449,19.5989349 57.4104449,19.0579349 C57.6574449,18.5189349 57.8794449,17.9139349 58.1064449,17.0809349 C58.3304449,16.2509349 58.5794449,15.1749349 58.5794449,15.1749349 C58.5794449,15.1749349 59.2074449,16.0299349 60.2154449,16.2049349 C61.2264449,16.3849349 61.5194449,16.3639349 62.2404449,16.2049349 C62.9594449,16.0479349 63.6754449,15.7999349 64.3714449,15.0569349 C65.0704449,14.3199349 65.7424449,13.6469349 66.0124449,12.4759349 C66.2804449,11.3109349 66.5294449,10.5449349 66.4854449,9.57593491 C66.4374449,8.61093491 66.1894449,7.61993491 65.8994449,7.12893491 C65.6094449,6.63693491 65.1584449,5.82693491 64.5284449,5.35793491 C63.9004449,4.88393491 63.1804449,4.36393491 62.2404449,4.11893491 C61.2964449,3.87193491 60.3784449,3.66793491 59.5214449,3.78293491 C58.6644449,3.89593491 57.4294449,4.09793491 56.6894449,4.47793491 C55.9474449,4.85893491 54.6914449,5.76193491 54.2654449,6.36393491 C53.8344449,6.97393491 53.2554449,8.14193491 53.1174449,8.94893491 C52.9824449,9.75693491 52.8514449,11.3529349 53.4104449,12.1799349 C53.9714449,13.0159349 53.9714449,13.2409349 54.4884449,13.5529349 C55.0054449,13.8659349 55.2764449,14.1149349 55.4564449,13.6659349 C55.6324449,13.2149349 55.7474449,12.7899349 55.7474449,12.7899349 C55.7474449,12.7899349 55.7914449,12.4079349 55.6784449,12.3449349 C55.5654449,12.2739349 55.3184449,11.9359349 55.2054449,11.6679349 C55.0954449,11.3989349 55.0054449,11.0409349 55.0054449,11.0409349" id="Fill-17" sketch:type="MSShapeGroup"></path>
            <path d="M81.9340015,8.811 C81.9340015,8.811 81.8210015,6.295 82.5410015,5.384 C83.2620015,4.474 84.0220015,3.861 85.2040015,3.782 C86.3860015,3.71 88.3700015,3.782 88.3700015,3.782 L88.3700015,6.527 C88.3700015,6.527 86.5760015,6.41 86.2730015,6.753 C85.9650015,7.096 85.7810015,7.706 85.7810015,8.089 C85.7810015,8.463 85.7420015,8.811 85.7420015,8.811 L88.3700015,8.811 L88.3700015,11.626 L85.7420015,11.626 L85.6630015,20.222 L81.9230015,20.222 L81.9230015,11.626 L79.6500015,11.591 L79.6500015,8.884 L81.9340015,8.811 Z" id="Fill-19" sketch:type="MSShapeGroup"></path>
            <path d="M45.5920561,6.322 C45.5100561,6.219 45.3810561,6.167 45.2500561,6.185 C45.1730561,6.197 45.0750561,6.215 44.9490561,6.243 C44.8320561,6.269 44.6880561,6.302 44.5280561,6.342 C44.5890561,6.202 44.6410561,6.055 44.6870561,5.903 C44.7620561,5.653 44.8250561,5.386 44.8900561,5.103 C44.9230561,4.962 44.8690561,4.813 44.7530561,4.726 C44.6360561,4.638 44.4800561,4.627 44.3520561,4.698 C43.7770561,5.015 43.3490561,5.215 42.9770561,5.347 C42.6630561,5.457 42.3890561,5.52 42.0880561,5.563 C41.7330561,5.229 41.3360561,4.973 40.9110561,4.797 C40.4290561,4.598 39.9150561,4.5 39.3880561,4.5 C38.7590561,4.5 38.1130561,4.639 37.4830561,4.905 C37.1760561,5.034 36.8910561,5.226 36.6330561,5.46 C36.2470561,5.812 35.9220561,6.261 35.6880561,6.76 C35.4550561,7.261 35.3140561,7.812 35.3140561,8.372 C35.3140561,8.431 35.3170561,8.489 35.3200561,8.548 C35.3100561,8.546 35.3010561,8.544 35.2910561,8.541 C34.6210561,8.363 33.5890561,8.012 32.5670561,7.555 C32.1470561,7.369 31.5660561,6.997 31.0000561,6.516 C30.4320561,6.039 29.8740561,5.451 29.4700561,4.838 C29.4100561,4.747 29.3100561,4.687 29.2000561,4.675 C29.0900561,4.664 28.9800561,4.703 28.9020561,4.781 C28.7270561,4.956 28.5780561,5.118 28.4500561,5.279 C28.2610561,5.521 28.1180561,5.766 28.0230561,6.031 C27.9270561,6.298 27.8780561,6.579 27.8470561,6.9 C27.8260561,7.118 27.8120561,7.351 27.8120561,7.593 C27.8130561,8.124 27.8780561,8.694 28.1060561,9.212 C27.9330561,9.232 27.7940561,9.373 27.7820561,9.551 C27.7720561,9.69 27.7680561,9.826 27.7680561,9.959 C27.7670561,11.159 28.1380561,12.135 28.7390561,12.814 C28.7970561,12.88 27.9090561,12.941 28.9090561,13.002 L28.9090561,13.011 C28.9090561,13.035 28.9200561,13.058 28.9200561,13.083 C28.9200561,13.54 29.0430561,13.97 29.2440561,14.351 C29.5450561,14.922 30.0260561,15.385 30.5780561,15.723 C30.7830561,15.847 30.9970561,15.954 31.2170561,16.044 C30.2890561,16.34 29.5250561,16.408 28.8950561,16.409 C28.6150561,16.409 28.3610561,16.395 28.1290561,16.382 C27.8970561,16.367 27.6880561,16.352 27.4900561,16.352 C27.4430561,16.352 27.3970561,16.353 27.3520561,16.355 C27.2400561,16.36 27.1400561,16.414 27.0740561,16.502 C27.0070561,16.591 26.9840561,16.703 27.0110561,16.811 C27.1190561,17.255 27.3830561,17.659 27.7470561,18.016 C28.2970561,18.551 29.0790561,18.993 30.0190561,19.307 C30.9590561,19.622 32.0580561,19.807 33.2380561,19.807 C34.9580561,19.807 36.8500561,19.411 38.6570561,18.429 C40.3060561,17.529 41.6790561,16.056 42.5040561,14.416 C42.7900561,13.848 43.0990561,13.114 43.3440561,12.334 C43.5840561,11.554 43.7610561,10.732 43.7620561,9.971 C43.7620561,9.713 43.7410561,9.463 43.6920561,9.223 C43.9010561,9.073 44.0890561,8.927 44.2570561,8.779 C44.5910561,8.486 44.8550561,8.183 45.0740561,7.842 C45.2940561,7.501 45.4700561,7.128 45.6440561,6.685 C45.6950561,6.564 45.6730561,6.426 45.5920561,6.322" id="Fill-21" sketch:type="MSShapeGroup"></path>
            <path d="M156.871413,3.45000005 C156.862413,4.79000005 156.859413,6.13000005 156.840413,7.47000005 C156.837413,7.72200005 156.984413,7.68300005 157.133413,7.68300005 C158.322413,7.68200005 159.511413,7.69400005 160.700413,7.67400005 C161.009413,7.66900005 161.096413,7.74200005 161.086413,8.05800005 C161.061413,8.87200005 161.066413,9.68900005 161.084413,10.504 C161.090413,10.773 161.021413,10.853 160.743413,10.849 C159.555413,10.833 158.365413,10.852 157.177413,10.835 C156.894413,10.831 156.837413,10.921 156.839413,11.183 C156.852413,12.704 156.842413,14.225 156.849413,15.746 C156.853413,16.902 157.525413,17.569 158.693413,17.626 C159.535413,17.667 160.307413,17.473 161.075413,16.952 C161.075413,17.809 161.076413,18.6 161.074413,19.39 C161.074413,19.489 160.994413,19.525 160.916413,19.558 C159.131413,20.314 157.304413,20.698 155.401413,20.066 C154.258413,19.687 153.318413,19.041 152.937413,17.812 C152.772413,17.277 152.783413,16.721 152.782413,16.17 C152.777413,14.552 152.763413,12.934 152.792413,11.317 C152.799413,10.9 152.673413,10.806 152.286413,10.834 C151.805413,10.869 151.318413,10.832 150.835413,10.847 C150.600413,10.855 150.492413,10.818 150.500413,10.54 C150.521413,9.78000005 150.510413,9.01900005 150.505413,8.25900005 C150.504413,8.09400005 150.518413,7.97900005 150.713413,7.91800005 C152.827413,7.26000005 153.827413,5.72100005 154.099413,3.61200005 C154.106413,3.55800005 154.121413,3.50400005 154.132413,3.45000005 L156.871413,3.45000005 Z" id="Fill-23" sketch:type="MSShapeGroup"></path>
            <path d="M135.188,16.1619999 C134.194,16.1649999 133.2,16.1629999 132.207,16.1629999 C131.224,16.1629999 130.24,16.1649999 129.257,16.1619999 C128.574,16.1609999 128.11,15.7469999 128.107,15.1419999 C128.103,14.5369999 128.568,14.1119999 129.246,14.1109999 C131.223,14.1089999 133.2,14.1089999 135.177,14.1119999 C135.853,14.1119999 136.318,14.5409999 136.312,15.1469999 C136.306,15.7409999 135.846,16.1599999 135.188,16.1619999 M129.196,7.9549999 C129.687,7.9499999 130.179,7.9539999 130.67,7.9539999 C131.162,7.9539999 131.653,7.9499999 132.145,7.9549999 C132.775,7.9619999 133.229,8.3899999 133.233,8.9729999 C133.238,9.5559999 132.784,9.9999999 132.16,10.0049999 C131.167,10.0109999 130.173,10.0109999 129.179,10.0049999 C128.556,9.9999999 128.102,9.5549999 128.107,8.9719999 C128.111,8.3899999 128.565,7.9619999 129.196,7.9549999 M139.073,9.9209999 C138.903,9.9209999 138.732,9.9229999 138.561,9.9209999 C137.875,9.9109999 137.456,9.4869999 137.422,8.8079999 C137.322,6.8179999 136.361,5.3619999 134.638,4.3949999 C134.006,4.0409999 133.317,3.8769999 132.594,3.8499999 L128.746,3.8499999 C128.406,3.9219999 128.05,3.8909999 127.716,4.0109999 C126.65,4.3919999 125.716,4.9649999 125.036,5.8879999 C124.459,6.6699999 124.021,7.5129999 124.034,8.5229999 C124.04,8.5209999 124.046,8.5199999 124.052,8.5179999 C124.07,8.6349999 124.1,8.7529999 124,8.8519999 L124,15.5859999 C124.074,15.7029999 124.022,15.8349999 124.042,15.9599999 C124.275,17.4139999 125.049,18.5279999 126.228,19.3639999 C126.958,19.8799999 127.772,20.2169999 128.682,20.2669999 L135.287,20.2669999 C135.43,20.1659999 135.59,20.2019999 135.746,20.2119999 C135.743,20.2189999 135.744,20.2259999 135.742,20.2329999 C137.201,20.1779999 138.329,19.4639999 139.251,18.3979999 C139.943,17.5979999 140.355,16.6589999 140.418,15.5859999 L140.418,10.9679999 C140.229,10.1689999 139.913,9.9229999 139.073,9.9209999" id="Fill-25" sketch:type="MSShapeGroup"></path>
        </g>
    </g>
</svg>