<?xml version="1.0" encoding="UTF-8" standalone="no"?>
<svg width="84px" height="14px" viewBox="0 0 84 14" version="1.1" xmlns="http://www.w3.org/2000/svg" xmlns:xlink="http://www.w3.org/1999/xlink" xmlns:sketch="http://www.bohemiancoding.com/sketch/ns">
    <!-- Generator: Sketch 3.3.3 (12072) - http://www.bohemiancoding.com/sketch -->
    <title>be-social-alt</title>
    <desc>Created with Sketch.</desc>
    <defs></defs>
    <g id="Page-1" stroke="none" stroke-width="1" fill="none" fill-rule="evenodd" sketch:type="MSPage">
        <g id="be-social-alt" sketch:type="MSArtboardGroup" fill="#CCC3C0">
            <g id="Group" sketch:type="MSLayerGroup" transform="translate(1.000000, 1.000000)">
                <path d="M10.238,2.951 C10.238,3.235 10.007,3.466 9.722,3.466 L9.048,3.466 C8.763,3.466 8.532,3.235 8.532,2.951 L8.532,2.277 C8.532,1.991 8.763,1.761 9.048,1.761 L9.722,1.761 C10.007,1.761 10.238,1.991 10.238,2.277 L10.238,2.951 Z M10.238,10.239 L1.76,10.239 L1.76,4.756 L3.299,4.756 C3.134,5.125 3.039,5.533 3.039,5.964 C3.039,7.596 4.367,8.923 5.999,8.923 C7.631,8.923 8.959,7.596 8.959,5.964 C8.959,5.533 8.864,5.125 8.698,4.756 L10.238,4.756 L10.238,10.239 Z M4.629,4.756 C4.964,4.376 5.453,4.134 5.999,4.134 C6.545,4.134 7.034,4.376 7.37,4.756 C7.654,5.078 7.828,5.501 7.828,5.964 C7.828,6.972 7.008,7.793 5.999,7.793 C4.99,7.793 4.17,6.972 4.17,5.964 C4.17,5.501 4.344,5.078 4.629,4.756 L4.629,4.756 Z M10.728,0.629999995 L1.271,0.629999995 C0.915999995,0.629999995 0.629999995,0.916999995 0.629999995,1.271 L0.629999995,10.728 C0.629999995,11.083 0.915999995,11.369 1.271,11.369 L10.728,11.369 C11.082,11.369 11.369,11.083 11.369,10.728 L11.369,1.271 C11.369,0.916999995 11.082,0.629999995 10.728,0.629999995 L10.728,0.629999995 Z" id="Fill-54" sketch:type="MSShapeGroup"></path>
                <g id="Fill-56-+-Fill-58-+-Fill-60" transform="translate(71.000000, 0.550000)" sketch:type="MSShapeGroup">
                    <path d="M2.827,9.413 C2.827,10.193 2.194,10.827 1.413,10.827 C0.633,10.827 0,10.193 0,9.413 C0,8.633 0.633,8 1.413,8 C2.194,8 2.827,8.633 2.827,9.413" id="Fill-56"></path>
                    <path d="M0,4 L0,5.954 C0,5.954 4.744,6.087 4.891,11.002 L6.979,11.002 C6.979,11.002 7.226,4.322 0,4" id="Fill-58"></path>
                    <path d="M0,0.234 L0,2.225 C0,2.225 7.718,2.102 8.577,10.827 L10.519,10.827 C10.519,10.827 10.74,0.824 0,0.234" id="Fill-60"></path>
                </g>
                <path d="M30.9057644,5.52899852 C30.9057644,5.52899852 30.7537644,4.96599852 30.8427644,4.60299852 C30.9387644,4.23599852 31.0577644,3.72199852 31.2707644,3.38699852 C31.4817644,3.05099852 31.8007644,2.65699852 32.0917644,2.45999852 C32.3787644,2.26099852 32.6697644,2.04999852 32.9857644,1.95999852 C33.3057644,1.86699852 33.7167644,1.80599852 34.0187644,1.77899852 C34.3227644,1.74499852 34.7927644,1.82199852 34.9757644,1.85299852 C35.1587644,1.88399852 35.5387644,2.00399852 35.7507644,2.12599852 C35.9627644,2.24799852 36.2037644,2.45999852 36.3557644,2.62699852 C36.5087644,2.79199852 36.7367644,3.09699852 36.8117644,3.31099852 C36.8887644,3.52199852 36.9647644,3.82399852 36.9817644,4.05399852 C36.9957644,4.27899852 37.0227644,4.53899852 36.9817644,4.85999852 C36.9367644,5.17799852 36.8287644,5.79999852 36.7537644,6.04499852 C36.6777644,6.28799852 36.4817644,6.77399852 36.4037644,6.90999852 C36.3277644,7.04699852 36.1447644,7.31899852 36.0077644,7.43899852 C35.8737644,7.56199852 35.6607644,7.75999852 35.3997644,7.84799852 C35.1417644,7.94299852 34.8407644,8.00199852 34.5637644,7.92499852 C34.2917644,7.84799852 33.9887644,7.65499852 33.8967644,7.47199852 C33.8067644,7.29099852 33.6857644,6.93899852 33.7467644,6.69799852 C33.8067644,6.45299852 33.9127644,6.05799852 34.0337644,5.67799852 C34.1537644,5.29899852 34.3987644,4.70799852 34.3847644,4.35899852 C34.3687644,4.00799852 34.2917644,3.58299852 34.0957644,3.46399852 C33.8967644,3.34199852 33.4577644,3.17399852 33.1837644,3.28099852 C32.9087644,3.38699852 32.4847644,3.73399852 32.3477644,4.09999852 C32.2097644,4.46099852 32.1207644,4.81299852 32.1657644,5.11699852 C32.2097644,5.41899852 32.2867644,5.79999852 32.2867644,5.79999852 L32.3957644,6.07599852 C32.3957644,6.07599852 31.9387644,8.00199852 31.7857644,8.62399852 C31.6337644,9.24699852 31.4677644,9.85699852 31.4077644,10.2199985 C31.3477644,10.5849985 31.3917644,11.2969985 31.3917644,11.2969985 C31.3917644,11.2969985 31.5737644,11.4059985 31.7407644,11.4519985 C31.9087644,11.4949985 32.1827644,11.5859985 32.1827644,11.5859985 C32.1827644,11.5859985 32.3647644,11.3149985 32.5317644,10.9489985 C32.6987644,10.5849985 32.8487644,10.1749985 33.0017644,9.61299852 C33.1537644,9.05099852 33.3217644,8.32399852 33.3217644,8.32399852 C33.3217644,8.32399852 33.7467644,8.90199852 34.4277644,9.01999852 C35.1117644,9.14199852 35.3097644,9.12699852 35.7967644,9.01999852 C36.2837644,8.91399852 36.7667644,8.74699852 37.2377644,8.24399852 C37.7107644,7.74599852 38.1647644,7.29099852 38.3467644,6.49899852 C38.5287644,5.71199852 38.6967644,5.19299852 38.6667644,4.53899852 C38.6347644,3.88599852 38.4667644,3.21599852 38.2707644,2.88399852 C38.0747644,2.55099852 37.7697644,2.00399852 37.3437644,1.68699852 C36.9197644,1.36599852 36.4327644,1.01499852 35.7967644,0.848998524 C35.1587644,0.681998524 34.5377644,0.544998524 33.9587644,0.621998524 C33.3797644,0.698998524 32.5447644,0.834998524 32.0437644,1.09199852 C31.5427644,1.34999852 30.6927644,1.95999852 30.4057644,2.36699852 C30.1137644,2.77899852 29.7227644,3.56899852 29.6297644,4.11499852 C29.5377644,4.66099852 29.4497644,5.73999852 29.8277644,6.29899852 C30.2067644,6.86399852 30.2067644,7.01599852 30.5557644,7.22699852 C30.9057644,7.43899852 31.0887644,7.60699852 31.2107644,7.30399852 C31.3297644,6.99899852 31.4077644,6.71099852 31.4077644,6.71099852 C31.4077644,6.71099852 31.4377644,6.45299852 31.3607644,6.40999852 C31.2847644,6.36299852 31.1177644,6.13399852 31.0407644,5.95299852 C30.9667644,5.77099852 30.9057644,5.52899852 30.9057644,5.52899852" id="Fill-62" sketch:type="MSShapeGroup"></path>
                <path d="M46.544,3.92133333 C46.544,3.92133333 46.467,2.22033333 46.955,1.60433333 C47.442,0.989333333 47.955,0.575333333 48.755,0.521333333 C49.554,0.473333333 50.895,0.521333333 50.895,0.521333333 L50.895,2.37733333 C50.895,2.37733333 49.683,2.29833333 49.477,2.53033333 C49.269,2.76133333 49.145,3.17433333 49.145,3.43333333 C49.145,3.68633333 49.119,3.92133333 49.119,3.92133333 L50.895,3.92133333 L50.895,5.82433333 L49.119,5.82433333 L49.065,11.6353333 L46.537,11.6353333 L46.537,5.82433333 L45,5.80033333 L45,3.97033333 L46.544,3.92133333 Z" id="Fill-64" sketch:type="MSShapeGroup"></path>
                <path d="M26.5692426,2.252 C26.5142426,2.182 26.4262426,2.147 26.3382426,2.159 C26.2862426,2.167 26.2192426,2.18 26.1342426,2.199 C26.0552426,2.216 25.9582426,2.239 25.8502426,2.265 C25.8912426,2.171 25.9262426,2.071 25.9572426,1.969 C26.0082426,1.799 26.0502426,1.619 26.0942426,1.428 C26.1162426,1.332 26.0802426,1.232 26.0022426,1.173 C25.9232426,1.114 25.8172426,1.106 25.7312426,1.154 C25.3422426,1.368 25.0532426,1.504 24.8012426,1.593 C24.5892426,1.667 24.4042426,1.71 24.2002426,1.739 C23.9602426,1.513 23.6922426,1.34 23.4042426,1.221 C23.0792426,1.087 22.7312426,1.02 22.3752426,1.02 C21.9502426,1.02 21.5132426,1.114 21.0862426,1.294 C20.8792426,1.382 20.6872426,1.511 20.5122426,1.669 C20.2512426,1.907 20.0312426,2.211 19.8732426,2.548 C19.7162426,2.887 19.6202426,3.26 19.6202426,3.638 C19.6202426,3.677 19.6222426,3.717 19.6242426,3.757 C19.6172426,3.756 19.6112426,3.754 19.6052426,3.752 C19.1522426,3.632 18.4542426,3.395 17.7632426,3.086 C17.4792426,2.96 17.0862426,2.708 16.7042426,2.383 C16.3202426,2.061 15.9422426,1.663 15.6692426,1.249 C15.6292426,1.187 15.5612426,1.147 15.4872426,1.138 C15.4132426,1.131 15.3382426,1.158 15.2852426,1.21 C15.1672426,1.328 15.0662426,1.438 14.9802426,1.547 C14.8522426,1.71 14.7562426,1.876 14.6912426,2.055 C14.6262426,2.236 14.5932426,2.426 14.5722426,2.643 C14.5582426,2.79 14.5492426,2.948 14.5492426,3.111 C14.5492426,3.471 14.5932426,3.856 14.7482426,4.206 C14.6302426,4.22 14.5372426,4.315 14.5282426,4.435 C14.5222426,4.529 14.5192426,4.621 14.5192426,4.711 C14.5182426,5.522 15.0212426,6.182 15.4272426,6.641 C15.4662426,6.686 14.7942426,6.727 15.7942426,6.768 L15.7942426,6.774 C15.7942426,6.79 15.5502426,6.806 15.5502426,6.823 C15.5502426,7.132 15.5072426,7.423 15.6432426,7.68 C15.8462426,8.066 16.1082426,8.379 16.4822426,8.608 C16.6202426,8.691 16.7332426,8.764 16.8822426,8.825 C16.2552426,9.025 15.7232426,9.071 15.2962426,9.072 C15.1072426,9.072 14.9282426,9.062 14.7712426,9.053 C14.6142426,9.043 14.4682426,9.033 14.3352426,9.033 C14.3032426,9.033 14.2702426,9.033 14.2392426,9.035 C14.1642426,9.039 14.0952426,9.075 14.0502426,9.134 C14.0052426,9.194 13.9892426,9.27 14.0072426,9.343 C14.0802426,9.644 14.2592426,9.917 14.5052426,10.158 C14.8772426,10.519 15.4052426,10.818 16.0412426,11.031 C16.6772426,11.243 17.4192426,11.369 18.2172426,11.369 C19.3802426,11.369 20.6592426,11.101 21.8802426,10.437 C22.9962426,9.829 23.9232426,8.833 24.4812426,7.724 C24.6742426,7.34 24.8842426,6.844 25.0492426,6.316 C25.2122426,5.789 25.3312426,5.233 25.3322426,4.719 C25.3322426,4.545 25.3172426,4.375 25.2852426,4.213 C25.4262426,4.112 25.5532426,4.013 25.6662426,3.913 C25.8922426,3.715 26.0712426,3.51 26.2192426,3.28 C26.3682426,3.049 26.4862426,2.797 26.6042426,2.498 C26.6382426,2.415 26.6242426,2.322 26.5692426,2.252" id="Fill-66" sketch:type="MSShapeGroup"></path>
                <path d="M58.75,5.03399995 L58.75,3.49699995 C58.822,3.46699995 58.894,3.43799995 58.966,3.40899995 C59.905,3.02999995 60.52,2.35599995 60.798,1.38399995 C60.875,1.11199995 60.914,0.827999952 60.971,0.549999952 L62.508,0.549999952 L62.508,3.32199995 L65.091,3.32199995 L65.091,5.04699995 L62.548,5.04699995 C62.548,6.25899995 62.536,7.44599995 62.553,8.63199995 C62.562,9.21899995 62.824,9.51899995 63.396,9.64899995 C64.048,9.79799995 64.649,9.62399995 65.219,9.30999995 C65.29,9.27099995 65.363,9.23299995 65.454,9.18399995 C65.454,9.71699995 65.449,10.222 65.458,10.726 C65.46,10.863 65.408,10.921 65.29,10.977 C64.414,11.391 63.491,11.549 62.53,11.475 C61.934,11.429 61.369,11.267 60.873,10.916 C60.409,10.588 60.073,10.168 60.002,9.58399995 C59.973,9.35099995 59.956,9.11599995 59.955,8.88199995 C59.95,7.68699995 59.953,6.49199995 59.952,5.29699995 L59.952,5.03399995 L58.75,5.03399995 Z" id="Fill-68" sketch:type="MSShapeGroup"></path>
            </g>
        </g>
    </g>
</svg>