<?xml version="1.0" encoding="UTF-8" standalone="no"?>
<svg width="2000px" height="16px" viewBox="0 0 2000 16" version="1.1" xmlns="http://www.w3.org/2000/svg" xmlns:xlink="http://www.w3.org/1999/xlink" xmlns:sketch="http://www.bohemiancoding.com/sketch/ns">
    <!-- Generator: Sketch 3.3.3 (12072) - http://www.bohemiancoding.com/sketch -->
    <title>fork-handle</title>
    <desc>Created with Sketch.</desc>
    <defs></defs>
    <g id="Page-1" stroke="none" stroke-width="1" fill="none" fill-rule="evenodd" sketch:type="MSPage">
        <g id="fork-handle" sketch:type="MSArtboardGroup" fill="#000000">
            <g id="Group-106" sketch:type="MSLayerGroup" transform="translate(-52.000000, 7.000000)">
                <path d="M601.4926,0.564 C599.9736,0.508 599.2536,0.337 598.1176,0.2 C597.3276,0.313 596.7556,0.276 596.0496,0.166 C595.0646,0.204 593.8556,0.269 592.6076,0.292 C591.8396,0.305 591.2966,0.18 590.2006,0.213 C588.4616,0.265 586.5946,0.231 584.7836,0.239 C583.5646,0.245 582.3406,0.253 581.1336,0.275 C580.2776,0.292 579.4376,0.343 578.9146,0.191 C578.8986,0.186 578.3626,0.217 578.1966,0.265 C576.5326,0.259 574.8676,0.256 573.2066,0.243 C572.5656,0.238 571.9366,0.192 571.2996,0.191 C567.9036,0.186 564.5076,0.189 561.1116,0.189 C559.4206,0.189 557.7166,0.206 556.0436,0.181 C554.5276,0.159 553.0336,0.065 551.6546,0.235 C551.5996,0.242 551.4476,0.239 551.3626,0.233 C549.3156,0.104 547.3256,0.268 545.3016,0.257 C543.8126,0.249 542.2156,0.202 540.8566,0.26 C538.7766,0.35 536.6646,0.22 534.7956,0.301 C532.7816,0.387 530.7546,0.311 528.7996,0.393 C528.6066,0.401 528.1556,0.288 527.7576,0.22 C526.8946,0.434 525.4616,0.45 523.6606,0.384 C522.7566,0.351 521.4456,0.481 520.7046,0.429 C519.4306,0.339 518.4046,0.41 517.2696,0.427 C515.2716,0.455 513.2656,0.511 511.2766,0.502 C509.7976,0.495 508.4386,0.567 507.0026,0.562 C506.8036,0.561 506.6066,0.559 506.4096,0.556 C505.1166,0.538 503.8186,0.498 502.5366,0.506 C501.1686,0.515 499.8216,0.579 498.4516,0.604 C497.3616,0.623 496.2476,0.619 495.3956,0.625 C495.3096,0.617 495.4956,0.633 495.8306,0.662 C494.0866,0.679 492.2406,0.501 491.2056,0.729 C490.4726,0.707 489.9216,0.689 489.3666,0.673 C488.1776,0.641 486.9916,0.604 485.7936,0.582 C485.4266,0.576 484.6966,0.608 484.6836,0.629 C484.5746,0.799 483.6796,0.753 482.9966,0.764 C481.9526,0.781 480.8946,0.786 479.8656,0.814 C479.0986,0.835 478.4526,0.896 477.6666,0.79 C477.3636,0.75 476.4166,0.769 475.8936,0.802 C474.3316,0.901 472.7836,0.887 471.1196,0.874 C468.7096,0.856 466.2776,0.91 463.8516,0.92 C461.5486,0.93 459.2336,0.91 456.9376,0.931 C455.3706,0.946 453.8366,1.022 452.2676,1.046 C450.9606,1.066 449.6266,1.05 448.3056,1.05 C448.0616,1.05 447.7426,1.04 447.5886,1.058 C446.4516,1.188 445.3346,1.126 444.1436,1.052 C444.1256,1.091 444.1116,1.121 444.0896,1.167 C442.5036,1.176 440.9066,1.186 439.3086,1.195 C436.8946,1.209 434.4756,1.212 432.0696,1.24 C430.1996,1.261 428.3536,1.329 426.4826,1.346 C425.4406,1.356 424.3676,1.289 423.3076,1.289 C422.2156,1.289 421.1266,1.34 420.0276,1.349 C416.7356,1.374 413.4396,1.393 410.1446,1.407 C407.3636,1.418 404.5826,1.417 401.8006,1.423 C400.0186,1.427 398.1256,1.492 396.4806,1.429 C393.7746,1.324 390.9916,1.513 388.3936,1.339 C387.3736,1.468 386.3456,1.345 385.2866,1.345 C385.4306,1.37 385.5736,1.395 385.7206,1.42 C385.6256,1.425 385.5326,1.434 385.4466,1.433 C383.9176,1.413 382.3896,1.378 380.8606,1.376 C379.8686,1.375 378.8586,1.261 377.8036,1.38 C377.6896,1.394 376.8066,1.272 376.3486,1.22 C376.2806,1.596 374.1346,1.313 373.0626,1.335 C370.4896,1.389 367.8246,1.359 365.1976,1.358 C363.3766,1.358 361.5556,1.347 359.7346,1.349 C359.0806,1.349 358.4096,1.392 357.7826,1.38 C357.1026,1.367 356.4636,1.312 356.1036,1.291 C355.2076,1.303 354.4506,1.291 353.8146,1.325 C352.4936,1.396 351.2216,1.301 349.8036,1.342 C347.4146,1.41 344.8006,1.368 342.3296,1.321 C340.7536,1.292 339.3626,1.4 337.7686,1.357 C336.1736,1.314 334.4616,1.364 332.8016,1.361 C332.0456,1.359 331.2886,1.31 330.5416,1.315 C329.5226,1.322 328.5206,1.377 327.5026,1.382 C326.1316,1.387 324.7546,1.365 323.3806,1.354 C323.0906,1.352 322.7956,1.341 322.5126,1.345 C321.4846,1.363 320.4636,1.393 319.4326,1.403 C318.1736,1.416 316.9066,1.421 315.6456,1.416 C315.1446,1.414 314.6536,1.374 314.5426,1.369 C310.2866,1.367 306.3516,1.365 302.3146,1.364 C302.2066,1.314 302.0866,1.259 301.9256,1.184 C301.4816,1.342 299.3116,1.47 297.9486,1.459 C293.8996,1.427 289.8496,1.392 285.7976,1.38 C282.6906,1.371 279.5766,1.396 276.4666,1.404 C276.2906,1.404 276.1156,1.391 275.9296,1.355 C276.6006,1.336 277.2736,1.318 277.9456,1.3 C277.9346,1.292 277.9236,1.284 277.9136,1.276 C276.5806,1.284 275.2486,1.292 273.5086,1.302 C274.1496,1.264 274.4196,1.249 274.6886,1.233 C273.7466,1.234 272.5916,1.116 272.0366,1.322 C271.9596,1.351 271.5776,1.378 271.3276,1.38 C269.5996,1.394 267.8696,1.407 266.1396,1.409 C264.8526,1.411 263.5646,1.394 262.2756,1.389 C261.5516,1.386 260.7856,1.367 260.1106,1.392 C258.1406,1.467 256.3266,1.412 254.5866,1.289 C253.6396,1.499 253.1686,1.506 252.6386,1.372 C251.6386,1.377 250.8156,1.386 249.9916,1.387 C247.1566,1.39 244.3206,1.398 241.4866,1.391 C238.6226,1.384 235.7636,1.36 232.9036,1.341 C232.7816,1.341 232.6116,1.307 232.5566,1.311 C230.6476,1.46 228.6116,1.359 226.6386,1.37 C226.0736,1.373 225.4996,1.338 224.7656,1.365 C224.4086,1.308 224.0526,1.251 223.6356,1.184 C222.6186,1.324 221.5386,1.456 220.1026,1.275 C218.9586,1.393 217.7116,1.319 216.5086,1.31 C216.2436,1.308 215.9906,1.268 215.7336,1.246 C215.7656,1.217 215.7976,1.188 215.8296,1.158 C214.9826,1.199 214.1356,1.241 213.2906,1.282 C213.3336,1.299 213.3766,1.317 213.4196,1.334 C212.7356,1.338 212.0516,1.342 211.1046,1.348 C210.8516,1.317 210.3626,1.257 209.8726,1.197 C209.7886,1.208 209.7056,1.22 209.6236,1.231 C209.8326,1.266 210.0446,1.302 210.4566,1.372 C207.9886,1.364 205.7896,1.361 203.5946,1.349 C202.0866,1.34 200.6806,1.313 199.1376,1.41 C198.0616,1.477 196.5406,1.408 195.2246,1.391 C195.1556,1.39 195.1106,1.356 195.1036,1.345 C193.9106,1.357 192.8466,1.376 191.7836,1.377 C188.7196,1.38 185.6556,1.382 182.5956,1.369 C181.4156,1.364 180.2496,1.311 179.0676,1.296 C178.7046,1.291 178.3196,1.35 177.9206,1.359 C177.3726,1.371 176.7586,1.383 176.2496,1.36 C175.6606,1.334 175.1556,1.27 174.5876,1.22 C174.2656,1.429 173.0786,1.34 172.2836,1.368 C171.6816,1.389 170.9776,1.393 170.3906,1.369 C169.8476,1.347 169.4006,1.278 168.8026,1.22 C168.7596,1.231 168.5566,1.283 168.3366,1.34 C167.2766,1.337 166.1956,1.031 165.2336,1.294 C164.0196,1.312 162.9936,1.327 161.9656,1.342 C160.6266,1.361 159.3866,1.28 158.1016,1.264 C157.1326,1.252 156.1246,1.304 154.9996,1.331 C153.9256,1.16 152.4196,1.258 151.1356,1.309 C149.4416,1.376 148.0366,1.322 146.5966,1.217 C146.0416,1.177 145.4556,1.144 145.2856,1.134 C144.9156,1.222 144.7126,1.327 144.4016,1.334 C143.5556,1.353 142.6646,1.331 141.6706,1.324 C141.9406,1.293 142.1396,1.27 142.4386,1.236 C141.3716,1.252 140.4346,1.267 139.2456,1.285 C138.7856,1.283 138.1736,1.279 137.5596,1.277 C136.3736,1.275 135.1826,1.264 134.0026,1.274 C131.4386,1.295 128.8796,1.347 126.3156,1.351 C122.5426,1.358 118.7686,1.331 114.9936,1.326 C113.6976,1.324 112.2516,1.403 111.1396,1.345 C109.7436,1.272 108.5366,1.322 107.2346,1.327 C105.7876,1.333 104.3356,1.314 102.8866,1.313 C101.2956,1.313 99.7016,1.327 98.1096,1.326 C95.2916,1.324 92.4746,1.313 89.6556,1.31 C88.3556,1.309 87.0556,1.316 85.7576,1.325 C83.1686,1.343 80.5546,1.404 77.9986,1.372 C75.8756,1.345 73.8336,1.382 71.7546,1.394 C69.2226,1.409 66.6896,1.425 63.9276,1.441 C64.1036,1.396 64.2216,1.378 64.2416,1.358 C64.2876,1.311 64.2876,1.263 64.3076,1.215 C63.9426,1.225 63.5236,1.223 63.2276,1.248 C62.8156,1.284 62.5156,1.378 62.1316,1.382 C58.8856,1.415 55.6286,1.449 52.3766,1.447 C51.2876,1.447 50.1936,1.421 49.0996,1.45 C49.0496,1.451 48.9836,1.456 48.9526,1.453 C47.2946,1.3 45.7456,1.488 44.1446,1.482 C41.2796,1.473 38.4206,1.444 35.5576,1.435 C33.3296,1.428 31.1466,1.374 28.8616,1.424 C26.0776,1.484 23.2056,1.466 20.3706,1.474 C18.2506,1.48 16.1306,1.473 14.0106,1.472 C11.2996,1.47 8.5866,1.478 5.8806,1.46 C4.9976,1.454 4.1386,1.38 3.2106,1.334 C3.1766,1.356 3.0836,1.417 3.0126,1.464 C2.0006,1.47 1.0476,1.475 0.0666,1.481 L0.0666,3.705 C0.3726,3.705 0.6786,3.705 0.9836,3.704 C6.6296,3.698 12.2756,3.695 17.9216,3.682 C22.6786,3.672 27.4346,3.637 32.1926,3.636 C34.7406,3.635 37.2906,3.685 39.8426,3.704 C42.9916,3.728 46.1436,3.748 49.2966,3.761 C52.0486,3.772 54.8046,3.765 57.5566,3.777 C61.6536,3.794 65.7476,3.829 69.8446,3.843 C72.7976,3.854 75.7536,3.834 78.7066,3.844 C81.1016,3.853 83.4906,3.89 85.8846,3.907 C89.1416,3.929 92.4006,3.943 95.6586,3.963 C97.3666,3.973 99.0716,3.995 100.7796,4 C105.4226,4.011 110.0676,4.011 114.7106,4.024 C117.4166,4.032 120.1186,4.065 122.8236,4.072 C124.9816,4.078 127.1446,4.059 129.3046,4.058 C132.5056,4.058 135.7096,4.068 138.9116,4.066 C141.1886,4.064 143.4686,4.039 145.7456,4.042 C148.5106,4.045 151.2756,4.068 154.0406,4.079 C158.2426,4.096 162.4476,4.122 166.6496,4.122 C169.9466,4.122 173.2426,4.079 176.5416,4.073 C179.4856,4.066 182.4306,4.085 185.3766,4.089 C187.5606,4.091 189.7476,4.085 191.9316,4.087 C192.8826,4.088 193.8336,4.098 194.7826,4.107 C197.7806,4.135 200.7756,4.181 203.7766,4.189 C208.0426,4.2 212.3126,4.179 216.5816,4.181 C220.4906,4.182 224.3976,4.197 228.3056,4.203 C231.8076,4.208 235.3116,4.201 238.8146,4.214 C241.9856,4.225 245.1516,4.263 248.3226,4.275 C252.0686,4.29 255.8186,4.295 259.5666,4.293 C263.7246,4.29 267.8786,4.27 272.0366,4.266 C275.2416,4.263 278.4506,4.286 281.6536,4.274 C285.2116,4.262 288.7646,4.207 292.3206,4.203 C295.9006,4.199 299.4816,4.241 303.0646,4.25 C304.8626,4.254 306.6636,4.226 308.4646,4.221 C312.1536,4.211 315.8456,4.214 319.5366,4.199 C323.2326,4.185 326.9266,4.151 330.6226,4.133 C335.1066,4.111 339.5916,4.093 344.0776,4.078 C346.3406,4.07 348.6076,4.072 350.8726,4.066 C354.8646,4.056 358.8576,4.039 362.8506,4.035 C366.6466,4.032 370.4426,4.045 374.2406,4.044 C377.2846,4.043 380.3266,4.023 383.3706,4.025 C387.2336,4.028 391.0956,4.061 394.9566,4.053 C400.3156,4.042 405.6736,4.002 411.0326,3.982 C415.8476,3.963 420.6666,3.96 425.4796,3.941 C427.4746,3.934 429.4636,3.9 431.4586,3.888 C434.1586,3.871 436.8646,3.866 439.5666,3.85 C442.2186,3.834 444.8706,3.815 447.5176,3.786 C448.8906,3.772 450.2466,3.716 451.6156,3.71 C455.6936,3.693 459.7776,3.704 463.8536,3.681 C465.9666,3.669 468.0576,3.596 470.1686,3.573 C475.2826,3.515 480.3986,3.452 485.5236,3.425 C489.5096,3.403 493.5076,3.44 497.4996,3.431 C499.3846,3.427 501.2596,3.367 503.1466,3.347 C504.7876,3.329 506.4396,3.338 508.0816,3.324 C513.1316,3.281 518.1776,3.229 523.2276,3.188 C526.0616,3.165 528.9156,3.174 531.7386,3.137 C537.4946,3.06 543.2346,2.958 548.9856,2.871 C554.1046,2.794 559.2256,2.719 564.3516,2.652 C567.1996,2.614 570.0626,2.598 572.9136,2.564 C576.8456,2.517 580.7906,2.481 584.6936,2.403 C587.5356,2.346 590.4346,2.273 593.0966,2.13 C596.0256,1.972 598.7476,1.734 601.4926,1.514 L601.4926,0.564 Z" id="Fill-78" sketch:type="MSShapeGroup"></path>
                <path d="M195.1031,1.3445 L195.1171,1.3445 C195.1051,1.3375 195.1011,1.3395 195.1031,1.3445" id="Fill-80" sketch:type="MSShapeGroup"></path>
            </g>
            <g id="Group-106" sketch:type="MSLayerGroup" transform="translate(457.000000, 6.000000)">
                <path d="M601.4926,0.564 C599.9736,0.508 599.2536,0.337 598.1176,0.2 C597.3276,0.313 596.7556,0.276 596.0496,0.166 C595.0646,0.204 593.8556,0.269 592.6076,0.292 C591.8396,0.305 591.2966,0.18 590.2006,0.213 C588.4616,0.265 586.5946,0.231 584.7836,0.239 C583.5646,0.245 582.3406,0.253 581.1336,0.275 C580.2776,0.292 579.4376,0.343 578.9146,0.191 C578.8986,0.186 578.3626,0.217 578.1966,0.265 C576.5326,0.259 574.8676,0.256 573.2066,0.243 C572.5656,0.238 571.9366,0.192 571.2996,0.191 C567.9036,0.186 564.5076,0.189 561.1116,0.189 C559.4206,0.189 557.7166,0.206 556.0436,0.181 C554.5276,0.159 553.0336,0.065 551.6546,0.235 C551.5996,0.242 551.4476,0.239 551.3626,0.233 C549.3156,0.104 547.3256,0.268 545.3016,0.257 C543.8126,0.249 542.2156,0.202 540.8566,0.26 C538.7766,0.35 536.6646,0.22 534.7956,0.301 C532.7816,0.387 530.7546,0.311 528.7996,0.393 C528.6066,0.401 528.1556,0.288 527.7576,0.22 C526.8946,0.434 525.4616,0.45 523.6606,0.384 C522.7566,0.351 521.4456,0.481 520.7046,0.429 C519.4306,0.339 518.4046,0.41 517.2696,0.427 C515.2716,0.455 513.2656,0.511 511.2766,0.502 C509.7976,0.495 508.4386,0.567 507.0026,0.562 C506.8036,0.561 506.6066,0.559 506.4096,0.556 C505.1166,0.538 503.8186,0.498 502.5366,0.506 C501.1686,0.515 499.8216,0.579 498.4516,0.604 C497.3616,0.623 496.2476,0.619 495.3956,0.625 C495.3096,0.617 495.4956,0.633 495.8306,0.662 C494.0866,0.679 492.2406,0.501 491.2056,0.729 C490.4726,0.707 489.9216,0.689 489.3666,0.673 C488.1776,0.641 486.9916,0.604 485.7936,0.582 C485.4266,0.576 484.6966,0.608 484.6836,0.629 C484.5746,0.799 483.6796,0.753 482.9966,0.764 C481.9526,0.781 480.8946,0.786 479.8656,0.814 C479.0986,0.835 478.4526,0.896 477.6666,0.79 C477.3636,0.75 476.4166,0.769 475.8936,0.802 C474.3316,0.901 472.7836,0.887 471.1196,0.874 C468.7096,0.856 466.2776,0.91 463.8516,0.92 C461.5486,0.93 459.2336,0.91 456.9376,0.931 C455.3706,0.946 453.8366,1.022 452.2676,1.046 C450.9606,1.066 449.6266,1.05 448.3056,1.05 C448.0616,1.05 447.7426,1.04 447.5886,1.058 C446.4516,1.188 445.3346,1.126 444.1436,1.052 C444.1256,1.091 444.1116,1.121 444.0896,1.167 C442.5036,1.176 440.9066,1.186 439.3086,1.195 C436.8946,1.209 434.4756,1.212 432.0696,1.24 C430.1996,1.261 428.3536,1.329 426.4826,1.346 C425.4406,1.356 424.3676,1.289 423.3076,1.289 C422.2156,1.289 421.1266,1.34 420.0276,1.349 C416.7356,1.374 413.4396,1.393 410.1446,1.407 C407.3636,1.418 404.5826,1.417 401.8006,1.423 C400.0186,1.427 398.1256,1.492 396.4806,1.429 C393.7746,1.324 390.9916,1.513 388.3936,1.339 C387.3736,1.468 386.3456,1.345 385.2866,1.345 C385.4306,1.37 385.5736,1.395 385.7206,1.42 C385.6256,1.425 385.5326,1.434 385.4466,1.433 C383.9176,1.413 382.3896,1.378 380.8606,1.376 C379.8686,1.375 378.8586,1.261 377.8036,1.38 C377.6896,1.394 376.8066,1.272 376.3486,1.22 C376.2806,1.596 374.1346,1.313 373.0626,1.335 C370.4896,1.389 367.8246,1.359 365.1976,1.358 C363.3766,1.358 361.5556,1.347 359.7346,1.349 C359.0806,1.349 358.4096,1.392 357.7826,1.38 C357.1026,1.367 356.4636,1.312 356.1036,1.291 C355.2076,1.303 354.4506,1.291 353.8146,1.325 C352.4936,1.396 351.2216,1.301 349.8036,1.342 C347.4146,1.41 344.8006,1.368 342.3296,1.321 C340.7536,1.292 339.3626,1.4 337.7686,1.357 C336.1736,1.314 334.4616,1.364 332.8016,1.361 C332.0456,1.359 331.2886,1.31 330.5416,1.315 C329.5226,1.322 328.5206,1.377 327.5026,1.382 C326.1316,1.387 324.7546,1.365 323.3806,1.354 C323.0906,1.352 322.7956,1.341 322.5126,1.345 C321.4846,1.363 320.4636,1.393 319.4326,1.403 C318.1736,1.416 316.9066,1.421 315.6456,1.416 C315.1446,1.414 314.6536,1.374 314.5426,1.369 C310.2866,1.367 306.3516,1.365 302.3146,1.364 C302.2066,1.314 302.0866,1.259 301.9256,1.184 C301.4816,1.342 299.3116,1.47 297.9486,1.459 C293.8996,1.427 289.8496,1.392 285.7976,1.38 C282.6906,1.371 279.5766,1.396 276.4666,1.404 C276.2906,1.404 276.1156,1.391 275.9296,1.355 C276.6006,1.336 277.2736,1.318 277.9456,1.3 C277.9346,1.292 277.9236,1.284 277.9136,1.276 C276.5806,1.284 275.2486,1.292 273.5086,1.302 C274.1496,1.264 274.4196,1.249 274.6886,1.233 C273.7466,1.234 272.5916,1.116 272.0366,1.322 C271.9596,1.351 271.5776,1.378 271.3276,1.38 C269.5996,1.394 267.8696,1.407 266.1396,1.409 C264.8526,1.411 263.5646,1.394 262.2756,1.389 C261.5516,1.386 260.7856,1.367 260.1106,1.392 C258.1406,1.467 256.3266,1.412 254.5866,1.289 C253.6396,1.499 253.1686,1.506 252.6386,1.372 C251.6386,1.377 250.8156,1.386 249.9916,1.387 C247.1566,1.39 244.3206,1.398 241.4866,1.391 C238.6226,1.384 235.7636,1.36 232.9036,1.341 C232.7816,1.341 232.6116,1.307 232.5566,1.311 C230.6476,1.46 228.6116,1.359 226.6386,1.37 C226.0736,1.373 225.4996,1.338 224.7656,1.365 C224.4086,1.308 224.0526,1.251 223.6356,1.184 C222.6186,1.324 221.5386,1.456 220.1026,1.275 C218.9586,1.393 217.7116,1.319 216.5086,1.31 C216.2436,1.308 215.9906,1.268 215.7336,1.246 C215.7656,1.217 215.7976,1.188 215.8296,1.158 C214.9826,1.199 214.1356,1.241 213.2906,1.282 C213.3336,1.299 213.3766,1.317 213.4196,1.334 C212.7356,1.338 212.0516,1.342 211.1046,1.348 C210.8516,1.317 210.3626,1.257 209.8726,1.197 C209.7886,1.208 209.7056,1.22 209.6236,1.231 C209.8326,1.266 210.0446,1.302 210.4566,1.372 C207.9886,1.364 205.7896,1.361 203.5946,1.349 C202.0866,1.34 200.6806,1.313 199.1376,1.41 C198.0616,1.477 196.5406,1.408 195.2246,1.391 C195.1556,1.39 195.1106,1.356 195.1036,1.345 C193.9106,1.357 192.8466,1.376 191.7836,1.377 C188.7196,1.38 185.6556,1.382 182.5956,1.369 C181.4156,1.364 180.2496,1.311 179.0676,1.296 C178.7046,1.291 178.3196,1.35 177.9206,1.359 C177.3726,1.371 176.7586,1.383 176.2496,1.36 C175.6606,1.334 175.1556,1.27 174.5876,1.22 C174.2656,1.429 173.0786,1.34 172.2836,1.368 C171.6816,1.389 170.9776,1.393 170.3906,1.369 C169.8476,1.347 169.4006,1.278 168.8026,1.22 C168.7596,1.231 168.5566,1.283 168.3366,1.34 C167.2766,1.337 166.1956,1.031 165.2336,1.294 C164.0196,1.312 162.9936,1.327 161.9656,1.342 C160.6266,1.361 159.3866,1.28 158.1016,1.264 C157.1326,1.252 156.1246,1.304 154.9996,1.331 C153.9256,1.16 152.4196,1.258 151.1356,1.309 C149.4416,1.376 148.0366,1.322 146.5966,1.217 C146.0416,1.177 145.4556,1.144 145.2856,1.134 C144.9156,1.222 144.7126,1.327 144.4016,1.334 C143.5556,1.353 142.6646,1.331 141.6706,1.324 C141.9406,1.293 142.1396,1.27 142.4386,1.236 C141.3716,1.252 140.4346,1.267 139.2456,1.285 C138.7856,1.283 138.1736,1.279 137.5596,1.277 C136.3736,1.275 135.1826,1.264 134.0026,1.274 C131.4386,1.295 128.8796,1.347 126.3156,1.351 C122.5426,1.358 118.7686,1.331 114.9936,1.326 C113.6976,1.324 112.2516,1.403 111.1396,1.345 C109.7436,1.272 108.5366,1.322 107.2346,1.327 C105.7876,1.333 104.3356,1.314 102.8866,1.313 C101.2956,1.313 99.7016,1.327 98.1096,1.326 C95.2916,1.324 92.4746,1.313 89.6556,1.31 C88.3556,1.309 87.0556,1.316 85.7576,1.325 C83.1686,1.343 80.5546,1.404 77.9986,1.372 C75.8756,1.345 73.8336,1.382 71.7546,1.394 C69.2226,1.409 66.6896,1.425 63.9276,1.441 C64.1036,1.396 64.2216,1.378 64.2416,1.358 C64.2876,1.311 64.2876,1.263 64.3076,1.215 C63.9426,1.225 63.5236,1.223 63.2276,1.248 C62.8156,1.284 62.5156,1.378 62.1316,1.382 C58.8856,1.415 55.6286,1.449 52.3766,1.447 C51.2876,1.447 50.1936,1.421 49.0996,1.45 C49.0496,1.451 48.9836,1.456 48.9526,1.453 C47.2946,1.3 45.7456,1.488 44.1446,1.482 C41.2796,1.473 38.4206,1.444 35.5576,1.435 C33.3296,1.428 31.1466,1.374 28.8616,1.424 C26.0776,1.484 23.2056,1.466 20.3706,1.474 C18.2506,1.48 16.1306,1.473 14.0106,1.472 C11.2996,1.47 8.5866,1.478 5.8806,1.46 C4.9976,1.454 4.1386,1.38 3.2106,1.334 C3.1766,1.356 3.0836,1.417 3.0126,1.464 C2.0006,1.47 1.0476,1.475 0.0666,1.481 L0.0666,3.705 C0.3726,3.705 0.6786,3.705 0.9836,3.704 C6.6296,3.698 12.2756,3.695 17.9216,3.682 C22.6786,3.672 27.4346,3.637 32.1926,3.636 C34.7406,3.635 37.2906,3.685 39.8426,3.704 C42.9916,3.728 46.1436,3.748 49.2966,3.761 C52.0486,3.772 54.8046,3.765 57.5566,3.777 C61.6536,3.794 65.7476,3.829 69.8446,3.843 C72.7976,3.854 75.7536,3.834 78.7066,3.844 C81.1016,3.853 83.4906,3.89 85.8846,3.907 C89.1416,3.929 92.4006,3.943 95.6586,3.963 C97.3666,3.973 99.0716,3.995 100.7796,4 C105.4226,4.011 110.0676,4.011 114.7106,4.024 C117.4166,4.032 120.1186,4.065 122.8236,4.072 C124.9816,4.078 127.1446,4.059 129.3046,4.058 C132.5056,4.058 135.7096,4.068 138.9116,4.066 C141.1886,4.064 143.4686,4.039 145.7456,4.042 C148.5106,4.045 151.2756,4.068 154.0406,4.079 C158.2426,4.096 162.4476,4.122 166.6496,4.122 C169.9466,4.122 173.2426,4.079 176.5416,4.073 C179.4856,4.066 182.4306,4.085 185.3766,4.089 C187.5606,4.091 189.7476,4.085 191.9316,4.087 C192.8826,4.088 193.8336,4.098 194.7826,4.107 C197.7806,4.135 200.7756,4.181 203.7766,4.189 C208.0426,4.2 212.3126,4.179 216.5816,4.181 C220.4906,4.182 224.3976,4.197 228.3056,4.203 C231.8076,4.208 235.3116,4.201 238.8146,4.214 C241.9856,4.225 245.1516,4.263 248.3226,4.275 C252.0686,4.29 255.8186,4.295 259.5666,4.293 C263.7246,4.29 267.8786,4.27 272.0366,4.266 C275.2416,4.263 278.4506,4.286 281.6536,4.274 C285.2116,4.262 288.7646,4.207 292.3206,4.203 C295.9006,4.199 299.4816,4.241 303.0646,4.25 C304.8626,4.254 306.6636,4.226 308.4646,4.221 C312.1536,4.211 315.8456,4.214 319.5366,4.199 C323.2326,4.185 326.9266,4.151 330.6226,4.133 C335.1066,4.111 339.5916,4.093 344.0776,4.078 C346.3406,4.07 348.6076,4.072 350.8726,4.066 C354.8646,4.056 358.8576,4.039 362.8506,4.035 C366.6466,4.032 370.4426,4.045 374.2406,4.044 C377.2846,4.043 380.3266,4.023 383.3706,4.025 C387.2336,4.028 391.0956,4.061 394.9566,4.053 C400.3156,4.042 405.6736,4.002 411.0326,3.982 C415.8476,3.963 420.6666,3.96 425.4796,3.941 C427.4746,3.934 429.4636,3.9 431.4586,3.888 C434.1586,3.871 436.8646,3.866 439.5666,3.85 C442.2186,3.834 444.8706,3.815 447.5176,3.786 C448.8906,3.772 450.2466,3.716 451.6156,3.71 C455.6936,3.693 459.7776,3.704 463.8536,3.681 C465.9666,3.669 468.0576,3.596 470.1686,3.573 C475.2826,3.515 480.3986,3.452 485.5236,3.425 C489.5096,3.403 493.5076,3.44 497.4996,3.431 C499.3846,3.427 501.2596,3.367 503.1466,3.347 C504.7876,3.329 506.4396,3.338 508.0816,3.324 C513.1316,3.281 518.1776,3.229 523.2276,3.188 C526.0616,3.165 528.9156,3.174 531.7386,3.137 C537.4946,3.06 543.2346,2.958 548.9856,2.871 C554.1046,2.794 559.2256,2.719 564.3516,2.652 C567.1996,2.614 570.0626,2.598 572.9136,2.564 C576.8456,2.517 580.7906,2.481 584.6936,2.403 C587.5356,2.346 590.4346,2.273 593.0966,2.13 C596.0256,1.972 598.7476,1.734 601.4926,1.514 L601.4926,0.564 Z" id="Fill-78" sketch:type="MSShapeGroup"></path>
                <path d="M195.1031,1.3445 L195.1171,1.3445 C195.1051,1.3375 195.1011,1.3395 195.1031,1.3445" id="Fill-80" sketch:type="MSShapeGroup"></path>
            </g>
            <g id="Group-106" sketch:type="MSLayerGroup" transform="translate(991.000000, 5.000000)">
                <path d="M601.4926,0.564 C599.9736,0.508 599.2536,0.337 598.1176,0.2 C597.3276,0.313 596.7556,0.276 596.0496,0.166 C595.0646,0.204 593.8556,0.269 592.6076,0.292 C591.8396,0.305 591.2966,0.18 590.2006,0.213 C588.4616,0.265 586.5946,0.231 584.7836,0.239 C583.5646,0.245 582.3406,0.253 581.1336,0.275 C580.2776,0.292 579.4376,0.343 578.9146,0.191 C578.8986,0.186 578.3626,0.217 578.1966,0.265 C576.5326,0.259 574.8676,0.256 573.2066,0.243 C572.5656,0.238 571.9366,0.192 571.2996,0.191 C567.9036,0.186 564.5076,0.189 561.1116,0.189 C559.4206,0.189 557.7166,0.206 556.0436,0.181 C554.5276,0.159 553.0336,0.065 551.6546,0.235 C551.5996,0.242 551.4476,0.239 551.3626,0.233 C549.3156,0.104 547.3256,0.268 545.3016,0.257 C543.8126,0.249 542.2156,0.202 540.8566,0.26 C538.7766,0.35 536.6646,0.22 534.7956,0.301 C532.7816,0.387 530.7546,0.311 528.7996,0.393 C528.6066,0.401 528.1556,0.288 527.7576,0.22 C526.8946,0.434 525.4616,0.45 523.6606,0.384 C522.7566,0.351 521.4456,0.481 520.7046,0.429 C519.4306,0.339 518.4046,0.41 517.2696,0.427 C515.2716,0.455 513.2656,0.511 511.2766,0.502 C509.7976,0.495 508.4386,0.567 507.0026,0.562 C506.8036,0.561 506.6066,0.559 506.4096,0.556 C505.1166,0.538 503.8186,0.498 502.5366,0.506 C501.1686,0.515 499.8216,0.579 498.4516,0.604 C497.3616,0.623 496.2476,0.619 495.3956,0.625 C495.3096,0.617 495.4956,0.633 495.8306,0.662 C494.0866,0.679 492.2406,0.501 491.2056,0.729 C490.4726,0.707 489.9216,0.689 489.3666,0.673 C488.1776,0.641 486.9916,0.604 485.7936,0.582 C485.4266,0.576 484.6966,0.608 484.6836,0.629 C484.5746,0.799 483.6796,0.753 482.9966,0.764 C481.9526,0.781 480.8946,0.786 479.8656,0.814 C479.0986,0.835 478.4526,0.896 477.6666,0.79 C477.3636,0.75 476.4166,0.769 475.8936,0.802 C474.3316,0.901 472.7836,0.887 471.1196,0.874 C468.7096,0.856 466.2776,0.91 463.8516,0.92 C461.5486,0.93 459.2336,0.91 456.9376,0.931 C455.3706,0.946 453.8366,1.022 452.2676,1.046 C450.9606,1.066 449.6266,1.05 448.3056,1.05 C448.0616,1.05 447.7426,1.04 447.5886,1.058 C446.4516,1.188 445.3346,1.126 444.1436,1.052 C444.1256,1.091 444.1116,1.121 444.0896,1.167 C442.5036,1.176 440.9066,1.186 439.3086,1.195 C436.8946,1.209 434.4756,1.212 432.0696,1.24 C430.1996,1.261 428.3536,1.329 426.4826,1.346 C425.4406,1.356 424.3676,1.289 423.3076,1.289 C422.2156,1.289 421.1266,1.34 420.0276,1.349 C416.7356,1.374 413.4396,1.393 410.1446,1.407 C407.3636,1.418 404.5826,1.417 401.8006,1.423 C400.0186,1.427 398.1256,1.492 396.4806,1.429 C393.7746,1.324 390.9916,1.513 388.3936,1.339 C387.3736,1.468 386.3456,1.345 385.2866,1.345 C385.4306,1.37 385.5736,1.395 385.7206,1.42 C385.6256,1.425 385.5326,1.434 385.4466,1.433 C383.9176,1.413 382.3896,1.378 380.8606,1.376 C379.8686,1.375 378.8586,1.261 377.8036,1.38 C377.6896,1.394 376.8066,1.272 376.3486,1.22 C376.2806,1.596 374.1346,1.313 373.0626,1.335 C370.4896,1.389 367.8246,1.359 365.1976,1.358 C363.3766,1.358 361.5556,1.347 359.7346,1.349 C359.0806,1.349 358.4096,1.392 357.7826,1.38 C357.1026,1.367 356.4636,1.312 356.1036,1.291 C355.2076,1.303 354.4506,1.291 353.8146,1.325 C352.4936,1.396 351.2216,1.301 349.8036,1.342 C347.4146,1.41 344.8006,1.368 342.3296,1.321 C340.7536,1.292 339.3626,1.4 337.7686,1.357 C336.1736,1.314 334.4616,1.364 332.8016,1.361 C332.0456,1.359 331.2886,1.31 330.5416,1.315 C329.5226,1.322 328.5206,1.377 327.5026,1.382 C326.1316,1.387 324.7546,1.365 323.3806,1.354 C323.0906,1.352 322.7956,1.341 322.5126,1.345 C321.4846,1.363 320.4636,1.393 319.4326,1.403 C318.1736,1.416 316.9066,1.421 315.6456,1.416 C315.1446,1.414 314.6536,1.374 314.5426,1.369 C310.2866,1.367 306.3516,1.365 302.3146,1.364 C302.2066,1.314 302.0866,1.259 301.9256,1.184 C301.4816,1.342 299.3116,1.47 297.9486,1.459 C293.8996,1.427 289.8496,1.392 285.7976,1.38 C282.6906,1.371 279.5766,1.396 276.4666,1.404 C276.2906,1.404 276.1156,1.391 275.9296,1.355 C276.6006,1.336 277.2736,1.318 277.9456,1.3 C277.9346,1.292 277.9236,1.284 277.9136,1.276 C276.5806,1.284 275.2486,1.292 273.5086,1.302 C274.1496,1.264 274.4196,1.249 274.6886,1.233 C273.7466,1.234 272.5916,1.116 272.0366,1.322 C271.9596,1.351 271.5776,1.378 271.3276,1.38 C269.5996,1.394 267.8696,1.407 266.1396,1.409 C264.8526,1.411 263.5646,1.394 262.2756,1.389 C261.5516,1.386 260.7856,1.367 260.1106,1.392 C258.1406,1.467 256.3266,1.412 254.5866,1.289 C253.6396,1.499 253.1686,1.506 252.6386,1.372 C251.6386,1.377 250.8156,1.386 249.9916,1.387 C247.1566,1.39 244.3206,1.398 241.4866,1.391 C238.6226,1.384 235.7636,1.36 232.9036,1.341 C232.7816,1.341 232.6116,1.307 232.5566,1.311 C230.6476,1.46 228.6116,1.359 226.6386,1.37 C226.0736,1.373 225.4996,1.338 224.7656,1.365 C224.4086,1.308 224.0526,1.251 223.6356,1.184 C222.6186,1.324 221.5386,1.456 220.1026,1.275 C218.9586,1.393 217.7116,1.319 216.5086,1.31 C216.2436,1.308 215.9906,1.268 215.7336,1.246 C215.7656,1.217 215.7976,1.188 215.8296,1.158 C214.9826,1.199 214.1356,1.241 213.2906,1.282 C213.3336,1.299 213.3766,1.317 213.4196,1.334 C212.7356,1.338 212.0516,1.342 211.1046,1.348 C210.8516,1.317 210.3626,1.257 209.8726,1.197 C209.7886,1.208 209.7056,1.22 209.6236,1.231 C209.8326,1.266 210.0446,1.302 210.4566,1.372 C207.9886,1.364 205.7896,1.361 203.5946,1.349 C202.0866,1.34 200.6806,1.313 199.1376,1.41 C198.0616,1.477 196.5406,1.408 195.2246,1.391 C195.1556,1.39 195.1106,1.356 195.1036,1.345 C193.9106,1.357 192.8466,1.376 191.7836,1.377 C188.7196,1.38 185.6556,1.382 182.5956,1.369 C181.4156,1.364 180.2496,1.311 179.0676,1.296 C178.7046,1.291 178.3196,1.35 177.9206,1.359 C177.3726,1.371 176.7586,1.383 176.2496,1.36 C175.6606,1.334 175.1556,1.27 174.5876,1.22 C174.2656,1.429 173.0786,1.34 172.2836,1.368 C171.6816,1.389 170.9776,1.393 170.3906,1.369 C169.8476,1.347 169.4006,1.278 168.8026,1.22 C168.7596,1.231 168.5566,1.283 168.3366,1.34 C167.2766,1.337 166.1956,1.031 165.2336,1.294 C164.0196,1.312 162.9936,1.327 161.9656,1.342 C160.6266,1.361 159.3866,1.28 158.1016,1.264 C157.1326,1.252 156.1246,1.304 154.9996,1.331 C153.9256,1.16 152.4196,1.258 151.1356,1.309 C149.4416,1.376 148.0366,1.322 146.5966,1.217 C146.0416,1.177 145.4556,1.144 145.2856,1.134 C144.9156,1.222 144.7126,1.327 144.4016,1.334 C143.5556,1.353 142.6646,1.331 141.6706,1.324 C141.9406,1.293 142.1396,1.27 142.4386,1.236 C141.3716,1.252 140.4346,1.267 139.2456,1.285 C138.7856,1.283 138.1736,1.279 137.5596,1.277 C136.3736,1.275 135.1826,1.264 134.0026,1.274 C131.4386,1.295 128.8796,1.347 126.3156,1.351 C122.5426,1.358 118.7686,1.331 114.9936,1.326 C113.6976,1.324 112.2516,1.403 111.1396,1.345 C109.7436,1.272 108.5366,1.322 107.2346,1.327 C105.7876,1.333 104.3356,1.314 102.8866,1.313 C101.2956,1.313 99.7016,1.327 98.1096,1.326 C95.2916,1.324 92.4746,1.313 89.6556,1.31 C88.3556,1.309 87.0556,1.316 85.7576,1.325 C83.1686,1.343 80.5546,1.404 77.9986,1.372 C75.8756,1.345 73.8336,1.382 71.7546,1.394 C69.2226,1.409 66.6896,1.425 63.9276,1.441 C64.1036,1.396 64.2216,1.378 64.2416,1.358 C64.2876,1.311 64.2876,1.263 64.3076,1.215 C63.9426,1.225 63.5236,1.223 63.2276,1.248 C62.8156,1.284 62.5156,1.378 62.1316,1.382 C58.8856,1.415 55.6286,1.449 52.3766,1.447 C51.2876,1.447 50.1936,1.421 49.0996,1.45 C49.0496,1.451 48.9836,1.456 48.9526,1.453 C47.2946,1.3 45.7456,1.488 44.1446,1.482 C41.2796,1.473 38.4206,1.444 35.5576,1.435 C33.3296,1.428 31.1466,1.374 28.8616,1.424 C26.0776,1.484 23.2056,1.466 20.3706,1.474 C18.2506,1.48 16.1306,1.473 14.0106,1.472 C11.2996,1.47 8.5866,1.478 5.8806,1.46 C4.9976,1.454 4.1386,1.38 3.2106,1.334 C3.1766,1.356 3.0836,1.417 3.0126,1.464 C2.0006,1.47 1.0476,1.475 0.0666,1.481 L0.0666,3.705 C0.3726,3.705 0.6786,3.705 0.9836,3.704 C6.6296,3.698 12.2756,3.695 17.9216,3.682 C22.6786,3.672 27.4346,3.637 32.1926,3.636 C34.7406,3.635 37.2906,3.685 39.8426,3.704 C42.9916,3.728 46.1436,3.748 49.2966,3.761 C52.0486,3.772 54.8046,3.765 57.5566,3.777 C61.6536,3.794 65.7476,3.829 69.8446,3.843 C72.7976,3.854 75.7536,3.834 78.7066,3.844 C81.1016,3.853 83.4906,3.89 85.8846,3.907 C89.1416,3.929 92.4006,3.943 95.6586,3.963 C97.3666,3.973 99.0716,3.995 100.7796,4 C105.4226,4.011 110.0676,4.011 114.7106,4.024 C117.4166,4.032 120.1186,4.065 122.8236,4.072 C124.9816,4.078 127.1446,4.059 129.3046,4.058 C132.5056,4.058 135.7096,4.068 138.9116,4.066 C141.1886,4.064 143.4686,4.039 145.7456,4.042 C148.5106,4.045 151.2756,4.068 154.0406,4.079 C158.2426,4.096 162.4476,4.122 166.6496,4.122 C169.9466,4.122 173.2426,4.079 176.5416,4.073 C179.4856,4.066 182.4306,4.085 185.3766,4.089 C187.5606,4.091 189.7476,4.085 191.9316,4.087 C192.8826,4.088 193.8336,4.098 194.7826,4.107 C197.7806,4.135 200.7756,4.181 203.7766,4.189 C208.0426,4.2 212.3126,4.179 216.5816,4.181 C220.4906,4.182 224.3976,4.197 228.3056,4.203 C231.8076,4.208 235.3116,4.201 238.8146,4.214 C241.9856,4.225 245.1516,4.263 248.3226,4.275 C252.0686,4.29 255.8186,4.295 259.5666,4.293 C263.7246,4.29 267.8786,4.27 272.0366,4.266 C275.2416,4.263 278.4506,4.286 281.6536,4.274 C285.2116,4.262 288.7646,4.207 292.3206,4.203 C295.9006,4.199 299.4816,4.241 303.0646,4.25 C304.8626,4.254 306.6636,4.226 308.4646,4.221 C312.1536,4.211 315.8456,4.214 319.5366,4.199 C323.2326,4.185 326.9266,4.151 330.6226,4.133 C335.1066,4.111 339.5916,4.093 344.0776,4.078 C346.3406,4.07 348.6076,4.072 350.8726,4.066 C354.8646,4.056 358.8576,4.039 362.8506,4.035 C366.6466,4.032 370.4426,4.045 374.2406,4.044 C377.2846,4.043 380.3266,4.023 383.3706,4.025 C387.2336,4.028 391.0956,4.061 394.9566,4.053 C400.3156,4.042 405.6736,4.002 411.0326,3.982 C415.8476,3.963 420.6666,3.96 425.4796,3.941 C427.4746,3.934 429.4636,3.9 431.4586,3.888 C434.1586,3.871 436.8646,3.866 439.5666,3.85 C442.2186,3.834 444.8706,3.815 447.5176,3.786 C448.8906,3.772 450.2466,3.716 451.6156,3.71 C455.6936,3.693 459.7776,3.704 463.8536,3.681 C465.9666,3.669 468.0576,3.596 470.1686,3.573 C475.2826,3.515 480.3986,3.452 485.5236,3.425 C489.5096,3.403 493.5076,3.44 497.4996,3.431 C499.3846,3.427 501.2596,3.367 503.1466,3.347 C504.7876,3.329 506.4396,3.338 508.0816,3.324 C513.1316,3.281 518.1776,3.229 523.2276,3.188 C526.0616,3.165 528.9156,3.174 531.7386,3.137 C537.4946,3.06 543.2346,2.958 548.9856,2.871 C554.1046,2.794 559.2256,2.719 564.3516,2.652 C567.1996,2.614 570.0626,2.598 572.9136,2.564 C576.8456,2.517 580.7906,2.481 584.6936,2.403 C587.5356,2.346 590.4346,2.273 593.0966,2.13 C596.0256,1.972 598.7476,1.734 601.4926,1.514 L601.4926,0.564 Z" id="Fill-78" sketch:type="MSShapeGroup"></path>
                <path d="M195.1031,1.3445 L195.1171,1.3445 C195.1051,1.3375 195.1011,1.3395 195.1031,1.3445" id="Fill-80" sketch:type="MSShapeGroup"></path>
            </g>
            <g id="Group-106" sketch:type="MSLayerGroup" transform="translate(1706.000000, 6.500000) rotate(-180.000000) translate(-1706.000000, -6.500000) translate(1405.000000, 4.000000)">
                <path d="M601.4926,0.564 C599.9736,0.508 599.2536,0.337 598.1176,0.2 C597.3276,0.313 596.7556,0.276 596.0496,0.166 C595.0646,0.204 593.8556,0.269 592.6076,0.292 C591.8396,0.305 591.2966,0.18 590.2006,0.213 C588.4616,0.265 586.5946,0.231 584.7836,0.239 C583.5646,0.245 582.3406,0.253 581.1336,0.275 C580.2776,0.292 579.4376,0.343 578.9146,0.191 C578.8986,0.186 578.3626,0.217 578.1966,0.265 C576.5326,0.259 574.8676,0.256 573.2066,0.243 C572.5656,0.238 571.9366,0.192 571.2996,0.191 C567.9036,0.186 564.5076,0.189 561.1116,0.189 C559.4206,0.189 557.7166,0.206 556.0436,0.181 C554.5276,0.159 553.0336,0.065 551.6546,0.235 C551.5996,0.242 551.4476,0.239 551.3626,0.233 C549.3156,0.104 547.3256,0.268 545.3016,0.257 C543.8126,0.249 542.2156,0.202 540.8566,0.26 C538.7766,0.35 536.6646,0.22 534.7956,0.301 C532.7816,0.387 530.7546,0.311 528.7996,0.393 C528.6066,0.401 528.1556,0.288 527.7576,0.22 C526.8946,0.434 525.4616,0.45 523.6606,0.384 C522.7566,0.351 521.4456,0.481 520.7046,0.429 C519.4306,0.339 518.4046,0.41 517.2696,0.427 C515.2716,0.455 513.2656,0.511 511.2766,0.502 C509.7976,0.495 508.4386,0.567 507.0026,0.562 C506.8036,0.561 506.6066,0.559 506.4096,0.556 C505.1166,0.538 503.8186,0.498 502.5366,0.506 C501.1686,0.515 499.8216,0.579 498.4516,0.604 C497.3616,0.623 496.2476,0.619 495.3956,0.625 C495.3096,0.617 495.4956,0.633 495.8306,0.662 C494.0866,0.679 492.2406,0.501 491.2056,0.729 C490.4726,0.707 489.9216,0.689 489.3666,0.673 C488.1776,0.641 486.9916,0.604 485.7936,0.582 C485.4266,0.576 484.6966,0.608 484.6836,0.629 C484.5746,0.799 483.6796,0.753 482.9966,0.764 C481.9526,0.781 480.8946,0.786 479.8656,0.814 C479.0986,0.835 478.4526,0.896 477.6666,0.79 C477.3636,0.75 476.4166,0.769 475.8936,0.802 C474.3316,0.901 472.7836,0.887 471.1196,0.874 C468.7096,0.856 466.2776,0.91 463.8516,0.92 C461.5486,0.93 459.2336,0.91 456.9376,0.931 C455.3706,0.946 453.8366,1.022 452.2676,1.046 C450.9606,1.066 449.6266,1.05 448.3056,1.05 C448.0616,1.05 447.7426,1.04 447.5886,1.058 C446.4516,1.188 445.3346,1.126 444.1436,1.052 C444.1256,1.091 444.1116,1.121 444.0896,1.167 C442.5036,1.176 440.9066,1.186 439.3086,1.195 C436.8946,1.209 434.4756,1.212 432.0696,1.24 C430.1996,1.261 428.3536,1.329 426.4826,1.346 C425.4406,1.356 424.3676,1.289 423.3076,1.289 C422.2156,1.289 421.1266,1.34 420.0276,1.349 C416.7356,1.374 413.4396,1.393 410.1446,1.407 C407.3636,1.418 404.5826,1.417 401.8006,1.423 C400.0186,1.427 398.1256,1.492 396.4806,1.429 C393.7746,1.324 390.9916,1.513 388.3936,1.339 C387.3736,1.468 386.3456,1.345 385.2866,1.345 C385.4306,1.37 385.5736,1.395 385.7206,1.42 C385.6256,1.425 385.5326,1.434 385.4466,1.433 C383.9176,1.413 382.3896,1.378 380.8606,1.376 C379.8686,1.375 378.8586,1.261 377.8036,1.38 C377.6896,1.394 376.8066,1.272 376.3486,1.22 C376.2806,1.596 374.1346,1.313 373.0626,1.335 C370.4896,1.389 367.8246,1.359 365.1976,1.358 C363.3766,1.358 361.5556,1.347 359.7346,1.349 C359.0806,1.349 358.4096,1.392 357.7826,1.38 C357.1026,1.367 356.4636,1.312 356.1036,1.291 C355.2076,1.303 354.4506,1.291 353.8146,1.325 C352.4936,1.396 351.2216,1.301 349.8036,1.342 C347.4146,1.41 344.8006,1.368 342.3296,1.321 C340.7536,1.292 339.3626,1.4 337.7686,1.357 C336.1736,1.314 334.4616,1.364 332.8016,1.361 C332.0456,1.359 331.2886,1.31 330.5416,1.315 C329.5226,1.322 328.5206,1.377 327.5026,1.382 C326.1316,1.387 324.7546,1.365 323.3806,1.354 C323.0906,1.352 322.7956,1.341 322.5126,1.345 C321.4846,1.363 320.4636,1.393 319.4326,1.403 C318.1736,1.416 316.9066,1.421 315.6456,1.416 C315.1446,1.414 314.6536,1.374 314.5426,1.369 C310.2866,1.367 306.3516,1.365 302.3146,1.364 C302.2066,1.314 302.0866,1.259 301.9256,1.184 C301.4816,1.342 299.3116,1.47 297.9486,1.459 C293.8996,1.427 289.8496,1.392 285.7976,1.38 C282.6906,1.371 279.5766,1.396 276.4666,1.404 C276.2906,1.404 276.1156,1.391 275.9296,1.355 C276.6006,1.336 277.2736,1.318 277.9456,1.3 C277.9346,1.292 277.9236,1.284 277.9136,1.276 C276.5806,1.284 275.2486,1.292 273.5086,1.302 C274.1496,1.264 274.4196,1.249 274.6886,1.233 C273.7466,1.234 272.5916,1.116 272.0366,1.322 C271.9596,1.351 271.5776,1.378 271.3276,1.38 C269.5996,1.394 267.8696,1.407 266.1396,1.409 C264.8526,1.411 263.5646,1.394 262.2756,1.389 C261.5516,1.386 260.7856,1.367 260.1106,1.392 C258.1406,1.467 256.3266,1.412 254.5866,1.289 C253.6396,1.499 253.1686,1.506 252.6386,1.372 C251.6386,1.377 250.8156,1.386 249.9916,1.387 C247.1566,1.39 244.3206,1.398 241.4866,1.391 C238.6226,1.384 235.7636,1.36 232.9036,1.341 C232.7816,1.341 232.6116,1.307 232.5566,1.311 C230.6476,1.46 228.6116,1.359 226.6386,1.37 C226.0736,1.373 225.4996,1.338 224.7656,1.365 C224.4086,1.308 224.0526,1.251 223.6356,1.184 C222.6186,1.324 221.5386,1.456 220.1026,1.275 C218.9586,1.393 217.7116,1.319 216.5086,1.31 C216.2436,1.308 215.9906,1.268 215.7336,1.246 C215.7656,1.217 215.7976,1.188 215.8296,1.158 C214.9826,1.199 214.1356,1.241 213.2906,1.282 C213.3336,1.299 213.3766,1.317 213.4196,1.334 C212.7356,1.338 212.0516,1.342 211.1046,1.348 C210.8516,1.317 210.3626,1.257 209.8726,1.197 C209.7886,1.208 209.7056,1.22 209.6236,1.231 C209.8326,1.266 210.0446,1.302 210.4566,1.372 C207.9886,1.364 205.7896,1.361 203.5946,1.349 C202.0866,1.34 200.6806,1.313 199.1376,1.41 C198.0616,1.477 196.5406,1.408 195.2246,1.391 C195.1556,1.39 195.1106,1.356 195.1036,1.345 C193.9106,1.357 192.8466,1.376 191.7836,1.377 C188.7196,1.38 185.6556,1.382 182.5956,1.369 C181.4156,1.364 180.2496,1.311 179.0676,1.296 C178.7046,1.291 178.3196,1.35 177.9206,1.359 C177.3726,1.371 176.7586,1.383 176.2496,1.36 C175.6606,1.334 175.1556,1.27 174.5876,1.22 C174.2656,1.429 173.0786,1.34 172.2836,1.368 C171.6816,1.389 170.9776,1.393 170.3906,1.369 C169.8476,1.347 169.4006,1.278 168.8026,1.22 C168.7596,1.231 168.5566,1.283 168.3366,1.34 C167.2766,1.337 166.1956,1.031 165.2336,1.294 C164.0196,1.312 162.9936,1.327 161.9656,1.342 C160.6266,1.361 159.3866,1.28 158.1016,1.264 C157.1326,1.252 156.1246,1.304 154.9996,1.331 C153.9256,1.16 152.4196,1.258 151.1356,1.309 C149.4416,1.376 148.0366,1.322 146.5966,1.217 C146.0416,1.177 145.4556,1.144 145.2856,1.134 C144.9156,1.222 144.7126,1.327 144.4016,1.334 C143.5556,1.353 142.6646,1.331 141.6706,1.324 C141.9406,1.293 142.1396,1.27 142.4386,1.236 C141.3716,1.252 140.4346,1.267 139.2456,1.285 C138.7856,1.283 138.1736,1.279 137.5596,1.277 C136.3736,1.275 135.1826,1.264 134.0026,1.274 C131.4386,1.295 128.8796,1.347 126.3156,1.351 C122.5426,1.358 118.7686,1.331 114.9936,1.326 C113.6976,1.324 112.2516,1.403 111.1396,1.345 C109.7436,1.272 108.5366,1.322 107.2346,1.327 C105.7876,1.333 104.3356,1.314 102.8866,1.313 C101.2956,1.313 99.7016,1.327 98.1096,1.326 C95.2916,1.324 92.4746,1.313 89.6556,1.31 C88.3556,1.309 87.0556,1.316 85.7576,1.325 C83.1686,1.343 80.5546,1.404 77.9986,1.372 C75.8756,1.345 73.8336,1.382 71.7546,1.394 C69.2226,1.409 66.6896,1.425 63.9276,1.441 C64.1036,1.396 64.2216,1.378 64.2416,1.358 C64.2876,1.311 64.2876,1.263 64.3076,1.215 C63.9426,1.225 63.5236,1.223 63.2276,1.248 C62.8156,1.284 62.5156,1.378 62.1316,1.382 C58.8856,1.415 55.6286,1.449 52.3766,1.447 C51.2876,1.447 50.1936,1.421 49.0996,1.45 C49.0496,1.451 48.9836,1.456 48.9526,1.453 C47.2946,1.3 45.7456,1.488 44.1446,1.482 C41.2796,1.473 38.4206,1.444 35.5576,1.435 C33.3296,1.428 31.1466,1.374 28.8616,1.424 C26.0776,1.484 23.2056,1.466 20.3706,1.474 C18.2506,1.48 16.1306,1.473 14.0106,1.472 C11.2996,1.47 8.5866,1.478 5.8806,1.46 C4.9976,1.454 4.1386,1.38 3.2106,1.334 C3.1766,1.356 3.0836,1.417 3.0126,1.464 C2.0006,1.47 1.0476,1.475 0.0666,1.481 L0.0666,3.705 C0.3726,3.705 0.6786,3.705 0.9836,3.704 C6.6296,3.698 12.2756,3.695 17.9216,3.682 C22.6786,3.672 27.4346,3.637 32.1926,3.636 C34.7406,3.635 37.2906,3.685 39.8426,3.704 C42.9916,3.728 46.1436,3.748 49.2966,3.761 C52.0486,3.772 54.8046,3.765 57.5566,3.777 C61.6536,3.794 65.7476,3.829 69.8446,3.843 C72.7976,3.854 75.7536,3.834 78.7066,3.844 C81.1016,3.853 83.4906,3.89 85.8846,3.907 C89.1416,3.929 92.4006,3.943 95.6586,3.963 C97.3666,3.973 99.0716,3.995 100.7796,4 C105.4226,4.011 110.0676,4.011 114.7106,4.024 C117.4166,4.032 120.1186,4.065 122.8236,4.072 C124.9816,4.078 127.1446,4.059 129.3046,4.058 C132.5056,4.058 135.7096,4.068 138.9116,4.066 C141.1886,4.064 143.4686,4.039 145.7456,4.042 C148.5106,4.045 151.2756,4.068 154.0406,4.079 C158.2426,4.096 162.4476,4.122 166.6496,4.122 C169.9466,4.122 173.2426,4.079 176.5416,4.073 C179.4856,4.066 182.4306,4.085 185.3766,4.089 C187.5606,4.091 189.7476,4.085 191.9316,4.087 C192.8826,4.088 193.8336,4.098 194.7826,4.107 C197.7806,4.135 200.7756,4.181 203.7766,4.189 C208.0426,4.2 212.3126,4.179 216.5816,4.181 C220.4906,4.182 224.3976,4.197 228.3056,4.203 C231.8076,4.208 235.3116,4.201 238.8146,4.214 C241.9856,4.225 245.1516,4.263 248.3226,4.275 C252.0686,4.29 255.8186,4.295 259.5666,4.293 C263.7246,4.29 267.8786,4.27 272.0366,4.266 C275.2416,4.263 278.4506,4.286 281.6536,4.274 C285.2116,4.262 288.7646,4.207 292.3206,4.203 C295.9006,4.199 299.4816,4.241 303.0646,4.25 C304.8626,4.254 306.6636,4.226 308.4646,4.221 C312.1536,4.211 315.8456,4.214 319.5366,4.199 C323.2326,4.185 326.9266,4.151 330.6226,4.133 C335.1066,4.111 339.5916,4.093 344.0776,4.078 C346.3406,4.07 348.6076,4.072 350.8726,4.066 C354.8646,4.056 358.8576,4.039 362.8506,4.035 C366.6466,4.032 370.4426,4.045 374.2406,4.044 C377.2846,4.043 380.3266,4.023 383.3706,4.025 C387.2336,4.028 391.0956,4.061 394.9566,4.053 C400.3156,4.042 405.6736,4.002 411.0326,3.982 C415.8476,3.963 420.6666,3.96 425.4796,3.941 C427.4746,3.934 429.4636,3.9 431.4586,3.888 C434.1586,3.871 436.8646,3.866 439.5666,3.85 C442.2186,3.834 444.8706,3.815 447.5176,3.786 C448.8906,3.772 450.2466,3.716 451.6156,3.71 C455.6936,3.693 459.7776,3.704 463.8536,3.681 C465.9666,3.669 468.0576,3.596 470.1686,3.573 C475.2826,3.515 480.3986,3.452 485.5236,3.425 C489.5096,3.403 493.5076,3.44 497.4996,3.431 C499.3846,3.427 501.2596,3.367 503.1466,3.347 C504.7876,3.329 506.4396,3.338 508.0816,3.324 C513.1316,3.281 518.1776,3.229 523.2276,3.188 C526.0616,3.165 528.9156,3.174 531.7386,3.137 C537.4946,3.06 543.2346,2.958 548.9856,2.871 C554.1046,2.794 559.2256,2.719 564.3516,2.652 C567.1996,2.614 570.0626,2.598 572.9136,2.564 C576.8456,2.517 580.7906,2.481 584.6936,2.403 C587.5356,2.346 590.4346,2.273 593.0966,2.13 C596.0256,1.972 598.7476,1.734 601.4926,1.514 L601.4926,0.564 Z" id="Fill-78" sketch:type="MSShapeGroup"></path>
                <path d="M195.1031,1.3445 L195.1171,1.3445 C195.1051,1.3375 195.1011,1.3395 195.1031,1.3445" id="Fill-80" sketch:type="MSShapeGroup"></path>
            </g>
        </g>
    </g>
</svg>