<?xml version="1.0" encoding="UTF-8" standalone="no"?>
<svg width="100px" height="160px" viewBox="0 0 100 160" version="1.1" xmlns="http://www.w3.org/2000/svg" xmlns:xlink="http://www.w3.org/1999/xlink" xmlns:sketch="http://www.bohemiancoding.com/sketch/ns">
    <!-- Generator: Sketch 3.3.3 (12072) - http://www.bohemiancoding.com/sketch -->
    <title>logo</title>
    <desc>Created with Sketch.</desc>
    <defs></defs>
    <g id="Page-1" stroke="none" stroke-width="1" fill="none" fill-rule="evenodd" sketch:type="MSPage">
        <g id="logo" sketch:type="MSArtboardGroup" fill="#000000">
            <g id="Group-106" sketch:type="MSLayerGroup" transform="translate(17.000000, 12.000000)">
                <path d="M632.4926,0.564 C630.9736,0.508 630.2536,0.337 629.1176,0.2 C628.3276,0.313 627.7556,0.276 627.0496,0.166 C626.0646,0.204 624.8556,0.269 623.6076,0.292 C622.8396,0.305 622.2966,0.18 621.2006,0.213 C619.4616,0.265 617.5946,0.231 615.7836,0.239 C614.5646,0.245 613.3406,0.253 612.1336,0.275 C611.2776,0.292 610.4376,0.343 609.9146,0.191 C609.8986,0.186 609.3626,0.217 609.1966,0.265 C607.5326,0.259 605.8676,0.256 604.2066,0.243 C603.5656,0.238 602.9366,0.192 602.2996,0.191 C598.9036,0.186 595.5076,0.189 592.1116,0.189 C590.4206,0.189 588.7166,0.206 587.0436,0.181 C585.5276,0.159 584.0336,0.065 582.6546,0.235 C582.5996,0.242 582.4476,0.239 582.3626,0.233 C580.3156,0.104 578.3256,0.268 576.3016,0.257 C574.8126,0.249 573.2156,0.202 571.8566,0.26 C569.7766,0.35 567.6646,0.22 565.7956,0.301 C563.7816,0.387 561.7546,0.311 559.7996,0.393 C559.6066,0.401 559.1556,0.288 558.7576,0.22 C557.8946,0.434 556.4616,0.45 554.6606,0.384 C553.7566,0.351 552.4456,0.481 551.7046,0.429 C550.4306,0.339 549.4046,0.41 548.2696,0.427 C546.2716,0.455 544.2656,0.511 542.2766,0.502 C540.7976,0.495 539.4386,0.567 538.0026,0.562 C537.8036,0.561 537.6066,0.559 537.4096,0.556 C536.1166,0.538 534.8186,0.498 533.5366,0.506 C532.1686,0.515 530.8216,0.579 529.4516,0.604 C528.3616,0.623 527.2476,0.619 526.3956,0.625 C526.3096,0.617 526.4956,0.633 526.8306,0.662 C525.0866,0.679 523.2406,0.501 522.2056,0.729 C521.4726,0.707 520.9216,0.689 520.3666,0.673 C519.1776,0.641 517.9916,0.604 516.7936,0.582 C516.4266,0.576 515.6966,0.608 515.6836,0.629 C515.5746,0.799 514.6796,0.753 513.9966,0.764 C512.9526,0.781 511.8946,0.786 510.8656,0.814 C510.0986,0.835 509.4526,0.896 508.6666,0.79 C508.3636,0.75 507.4166,0.769 506.8936,0.802 C505.3316,0.901 503.7836,0.887 502.1196,0.874 C499.7096,0.856 497.2776,0.91 494.8516,0.92 C492.5486,0.93 490.2336,0.91 487.9376,0.931 C486.3706,0.946 484.8366,1.022 483.2676,1.046 C481.9606,1.066 480.6266,1.05 479.3056,1.05 C479.0616,1.05 478.7426,1.04 478.5886,1.058 C477.4516,1.188 476.3346,1.126 475.1436,1.052 C475.1256,1.091 475.1116,1.121 475.0896,1.167 C473.5036,1.176 471.9066,1.186 470.3086,1.195 C467.8946,1.209 465.4756,1.212 463.0696,1.24 C461.1996,1.261 459.3536,1.329 457.4826,1.346 C456.4406,1.356 455.3676,1.289 454.3076,1.289 C453.2156,1.289 452.1266,1.34 451.0276,1.349 C447.7356,1.374 444.4396,1.393 441.1446,1.407 C438.3636,1.418 435.5826,1.417 432.8006,1.423 C431.0186,1.427 429.1256,1.492 427.4806,1.429 C424.7746,1.324 421.9916,1.513 419.3936,1.339 C418.3736,1.468 417.3456,1.345 416.2866,1.345 C416.4306,1.37 416.5736,1.395 416.7206,1.42 C416.6256,1.425 416.5326,1.434 416.4466,1.433 C414.9176,1.413 413.3896,1.378 411.8606,1.376 C410.8686,1.375 409.8586,1.261 408.8036,1.38 C408.6896,1.394 407.8066,1.272 407.3486,1.22 C407.2806,1.596 405.1346,1.313 404.0626,1.335 C401.4896,1.389 398.8246,1.359 396.1976,1.358 C394.3766,1.358 392.5556,1.347 390.7346,1.349 C390.0806,1.349 389.4096,1.392 388.7826,1.38 C388.1026,1.367 387.4636,1.312 387.1036,1.291 C386.2076,1.303 385.4506,1.291 384.8146,1.325 C383.4936,1.396 382.2216,1.301 380.8036,1.342 C378.4146,1.41 375.8006,1.368 373.3296,1.321 C371.7536,1.292 370.3626,1.4 368.7686,1.357 C367.1736,1.314 365.4616,1.364 363.8016,1.361 C363.0456,1.359 362.2886,1.31 361.5416,1.315 C360.5226,1.322 359.5206,1.377 358.5026,1.382 C357.1316,1.387 355.7546,1.365 354.3806,1.354 C354.0906,1.352 353.7956,1.341 353.5126,1.345 C352.4846,1.363 351.4636,1.393 350.4326,1.403 C349.1736,1.416 347.9066,1.421 346.6456,1.416 C346.1446,1.414 345.6536,1.374 345.5426,1.369 C341.2866,1.367 337.3516,1.365 333.3146,1.364 C333.2066,1.314 333.0866,1.259 332.9256,1.184 C332.4816,1.342 330.3116,1.47 328.9486,1.459 C324.8996,1.427 320.8496,1.392 316.7976,1.38 C313.6906,1.371 310.5766,1.396 307.4666,1.404 C307.2906,1.404 307.1156,1.391 306.9296,1.355 C307.6006,1.336 308.2736,1.318 308.9456,1.3 C308.9346,1.292 308.9236,1.284 308.9136,1.276 C307.5806,1.284 306.2486,1.292 304.5086,1.302 C305.1496,1.264 305.4196,1.249 305.6886,1.233 C304.7466,1.234 303.5916,1.116 303.0366,1.322 C302.9596,1.351 302.5776,1.378 302.3276,1.38 C300.5996,1.394 298.8696,1.407 297.1396,1.409 C295.8526,1.411 294.5646,1.394 293.2756,1.389 C292.5516,1.386 291.7856,1.367 291.1106,1.392 C289.1406,1.467 287.3266,1.412 285.5866,1.289 C284.6396,1.499 284.1686,1.506 283.6386,1.372 C282.6386,1.377 281.8156,1.386 280.9916,1.387 C278.1566,1.39 275.3206,1.398 272.4866,1.391 C269.6226,1.384 266.7636,1.36 263.9036,1.341 C263.7816,1.341 263.6116,1.307 263.5566,1.311 C261.6476,1.46 259.6116,1.359 257.6386,1.37 C257.0736,1.373 256.4996,1.338 255.7656,1.365 C255.4086,1.308 255.0526,1.251 254.6356,1.184 C253.6186,1.324 252.5386,1.456 251.1026,1.275 C249.9586,1.393 248.7116,1.319 247.5086,1.31 C247.2436,1.308 246.9906,1.268 246.7336,1.246 C246.7656,1.217 246.7976,1.188 246.8296,1.158 C245.9826,1.199 245.1356,1.241 244.2906,1.282 C244.3336,1.299 244.3766,1.317 244.4196,1.334 C243.7356,1.338 243.0516,1.342 242.1046,1.348 C241.8516,1.317 241.3626,1.257 240.8726,1.197 C240.7886,1.208 240.7056,1.22 240.6236,1.231 C240.8326,1.266 241.0446,1.302 241.4566,1.372 C238.9886,1.364 236.7896,1.361 234.5946,1.349 C233.0866,1.34 231.6806,1.313 230.1376,1.41 C229.0616,1.477 227.5406,1.408 226.2246,1.391 C226.1556,1.39 226.1106,1.356 226.1036,1.345 C224.9106,1.357 223.8466,1.376 222.7836,1.377 C219.7196,1.38 216.6556,1.382 213.5956,1.369 C212.4156,1.364 211.2496,1.311 210.0676,1.296 C209.7046,1.291 209.3196,1.35 208.9206,1.359 C208.3726,1.371 207.7586,1.383 207.2496,1.36 C206.6606,1.334 206.1556,1.27 205.5876,1.22 C205.2656,1.429 204.0786,1.34 203.2836,1.368 C202.6816,1.389 201.9776,1.393 201.3906,1.369 C200.8476,1.347 200.4006,1.278 199.8026,1.22 C199.7596,1.231 199.5566,1.283 199.3366,1.34 C198.2766,1.337 197.1956,1.031 196.2336,1.294 C195.0196,1.312 193.9936,1.327 192.9656,1.342 C191.6266,1.361 190.3866,1.28 189.1016,1.264 C188.1326,1.252 187.1246,1.304 185.9996,1.331 C184.9256,1.16 183.4196,1.258 182.1356,1.309 C180.4416,1.376 179.0366,1.322 177.5966,1.217 C177.0416,1.177 176.4556,1.144 176.2856,1.134 C175.9156,1.222 175.7126,1.327 175.4016,1.334 C174.5556,1.353 173.6646,1.331 172.6706,1.324 C172.9406,1.293 173.1396,1.27 173.4386,1.236 C172.3716,1.252 171.4346,1.267 170.2456,1.285 C169.7856,1.283 169.1736,1.279 168.5596,1.277 C167.3736,1.275 166.1826,1.264 165.0026,1.274 C162.4386,1.295 159.8796,1.347 157.3156,1.351 C153.5426,1.358 149.7686,1.331 145.9936,1.326 C144.6976,1.324 143.2516,1.403 142.1396,1.345 C140.7436,1.272 139.5366,1.322 138.2346,1.327 C136.7876,1.333 135.3356,1.314 133.8866,1.313 C132.2956,1.313 130.7016,1.327 129.1096,1.326 C126.2916,1.324 123.4746,1.313 120.6556,1.31 C119.3556,1.309 118.0556,1.316 116.7576,1.325 C114.1686,1.343 111.5546,1.404 108.9986,1.372 C106.8756,1.345 104.8336,1.382 102.7546,1.394 C100.2226,1.409 97.6896,1.425 94.9276,1.441 C95.1036,1.396 95.2216,1.378 95.2416,1.358 C95.2876,1.311 95.2876,1.263 95.3076,1.215 C94.9426,1.225 94.5236,1.223 94.2276,1.248 C93.8156,1.284 93.5156,1.378 93.1316,1.382 C89.8856,1.415 86.6286,1.449 83.3766,1.447 C82.2876,1.447 81.1936,1.421 80.0996,1.45 C80.0496,1.451 79.9836,1.456 79.9526,1.453 C78.2946,1.3 76.7456,1.488 75.1446,1.482 C72.2796,1.473 69.4206,1.444 66.5576,1.435 C64.3296,1.428 62.1466,1.374 59.8616,1.424 C57.0776,1.484 54.2056,1.466 51.3706,1.474 C49.2506,1.48 47.1306,1.473 45.0106,1.472 C42.2996,1.47 39.5866,1.478 36.8806,1.46 C35.9976,1.454 35.1386,1.38 34.2106,1.334 C34.1766,1.356 34.0836,1.417 34.0126,1.464 C33.0006,1.47 32.0476,1.475 31.0666,1.481 L31.0666,3.705 C31.3726,3.705 31.6786,3.705 31.9836,3.704 C37.6296,3.698 43.2756,3.695 48.9216,3.682 C53.6786,3.672 58.4346,3.637 63.1926,3.636 C65.7406,3.635 68.2906,3.685 70.8426,3.704 C73.9916,3.728 77.1436,3.748 80.2966,3.761 C83.0486,3.772 85.8046,3.765 88.5566,3.777 C92.6536,3.794 96.7476,3.829 100.8446,3.843 C103.7976,3.854 106.7536,3.834 109.7066,3.844 C112.1016,3.853 114.4906,3.89 116.8846,3.907 C120.1416,3.929 123.4006,3.943 126.6586,3.963 C128.3666,3.973 130.0716,3.995 131.7796,4 C136.4226,4.011 141.0676,4.011 145.7106,4.024 C148.4166,4.032 151.1186,4.065 153.8236,4.072 C155.9816,4.078 158.1446,4.059 160.3046,4.058 C163.5056,4.058 166.7096,4.068 169.9116,4.066 C172.1886,4.064 174.4686,4.039 176.7456,4.042 C179.5106,4.045 182.2756,4.068 185.0406,4.079 C189.2426,4.096 193.4476,4.122 197.6496,4.122 C200.9466,4.122 204.2426,4.079 207.5416,4.073 C210.4856,4.066 213.4306,4.085 216.3766,4.089 C218.5606,4.091 220.7476,4.085 222.9316,4.087 C223.8826,4.088 224.8336,4.098 225.7826,4.107 C228.7806,4.135 231.7756,4.181 234.7766,4.189 C239.0426,4.2 243.3126,4.179 247.5816,4.181 C251.4906,4.182 255.3976,4.197 259.3056,4.203 C262.8076,4.208 266.3116,4.201 269.8146,4.214 C272.9856,4.225 276.1516,4.263 279.3226,4.275 C283.0686,4.29 286.8186,4.295 290.5666,4.293 C294.7246,4.29 298.8786,4.27 303.0366,4.266 C306.2416,4.263 309.4506,4.286 312.6536,4.274 C316.2116,4.262 319.7646,4.207 323.3206,4.203 C326.9006,4.199 330.4816,4.241 334.0646,4.25 C335.8626,4.254 337.6636,4.226 339.4646,4.221 C343.1536,4.211 346.8456,4.214 350.5366,4.199 C354.2326,4.185 357.9266,4.151 361.6226,4.133 C366.1066,4.111 370.5916,4.093 375.0776,4.078 C377.3406,4.07 379.6076,4.072 381.8726,4.066 C385.8646,4.056 389.8576,4.039 393.8506,4.035 C397.6466,4.032 401.4426,4.045 405.2406,4.044 C408.2846,4.043 411.3266,4.023 414.3706,4.025 C418.2336,4.028 422.0956,4.061 425.9566,4.053 C431.3156,4.042 436.6736,4.002 442.0326,3.982 C446.8476,3.963 451.6666,3.96 456.4796,3.941 C458.4746,3.934 460.4636,3.9 462.4586,3.888 C465.1586,3.871 467.8646,3.866 470.5666,3.85 C473.2186,3.834 475.8706,3.815 478.5176,3.786 C479.8906,3.772 481.2466,3.716 482.6156,3.71 C486.6936,3.693 490.7776,3.704 494.8536,3.681 C496.9666,3.669 499.0576,3.596 501.1686,3.573 C506.2826,3.515 511.3986,3.452 516.5236,3.425 C520.5096,3.403 524.5076,3.44 528.4996,3.431 C530.3846,3.427 532.2596,3.367 534.1466,3.347 C535.7876,3.329 537.4396,3.338 539.0816,3.324 C544.1316,3.281 549.1776,3.229 554.2276,3.188 C557.0616,3.165 559.9156,3.174 562.7386,3.137 C568.4946,3.06 574.2346,2.958 579.9856,2.871 C585.1046,2.794 590.2256,2.719 595.3516,2.652 C598.1996,2.614 601.0626,2.598 603.9136,2.564 C607.8456,2.517 611.7906,2.481 615.6936,2.403 C618.5356,2.346 621.4346,2.273 624.0966,2.13 C627.0256,1.972 629.7476,1.734 632.4926,1.514 L632.4926,0.564 Z" id="Fill-78" sketch:type="MSShapeGroup"></path>
                <path d="M30.9323,3.4067 C30.9353,3.5257 30.9053,3.6457 30.9073,3.7657 C30.9113,3.9627 30.9303,4.1597 30.9393,4.3577 C30.9453,4.4817 30.9403,4.6057 30.9493,4.7287 C30.9613,4.8937 30.9953,5.0577 30.9953,5.2217 C30.9953,5.5247 30.9763,5.8277 30.9673,6.1307 C30.9653,6.1997 30.9723,6.2687 30.9753,6.3557 C30.9253,6.3317 30.8733,6.3077 30.8103,6.2797 C30.7703,6.3997 30.6943,6.5157 30.8913,6.5827 C30.9303,6.5957 30.9773,6.6857 30.9693,6.7297 C30.9253,6.9517 31.0313,7.1827 30.8893,7.4067 C30.8353,7.4927 30.9423,7.6677 30.9443,7.8027 C30.9533,8.2907 30.9443,8.7777 30.9523,9.2647 C30.9573,9.6287 30.9823,9.9927 30.9913,10.3567 C30.9963,10.5667 30.9863,10.7777 30.9823,10.9887 C30.9793,11.1957 30.9813,11.4037 30.9673,11.6107 C30.9623,11.6867 30.9203,11.7607 30.8813,11.8747 C30.9533,11.9357 31.0403,12.0257 30.9273,12.2097 C30.8753,12.2937 30.9713,12.4627 30.9803,12.5947 C31.0133,13.0397 31.0463,13.4847 31.0623,13.9297 C31.0733,14.2527 31.0633,14.5767 31.0533,14.8997 C31.0513,14.9667 31.0063,15.0327 30.9853,15.0877 C31.0073,15.1517 31.0493,15.2217 31.0533,15.2937 C31.0673,15.5487 31.0703,15.8037 31.0743,16.0587 C31.0763,16.2097 31.0843,16.3577 31.0473,16.5137 C31.0153,16.6457 31.0903,16.7997 31.1053,16.9457 C31.1233,17.1207 31.1373,17.2977 31.1313,17.4727 C31.1293,17.5597 31.0783,17.6447 31.0343,17.7747 C31.0363,17.7747 30.9773,17.7927 30.9073,17.8137 C30.9723,17.8887 31.0293,17.9527 31.1063,18.0417 C31.1093,18.0367 31.0933,18.0787 31.0683,18.1137 C30.9923,18.2157 30.9053,18.3097 31.0273,18.4407 C31.0543,18.4697 31.0463,18.5367 31.0433,18.5857 C31.0243,18.8727 30.9903,19.1597 30.9843,19.4467 C30.9803,19.6367 31.0183,19.8277 31.0313,20.0177 C31.0473,20.2577 31.0643,20.4977 31.0693,20.7377 C31.0733,20.9407 31.0633,21.1447 31.0543,21.3477 C31.0453,21.5297 31.0153,21.7127 31.0213,21.8947 C31.0263,22.0527 31.0853,22.2097 31.0893,22.3677 C31.0953,22.5767 31.0533,22.7867 31.0623,22.9957 C31.0803,23.3847 31.1233,23.7717 31.1493,24.1607 C31.1683,24.4397 31.1813,24.7197 31.0543,24.9857 C31.0363,25.0237 31.0383,25.1087 31.0613,25.1237 C31.2293,25.2297 31.1423,25.4117 31.1983,25.5497 C31.2133,25.5857 31.2223,25.6427 31.2043,25.6717 C31.0803,25.8687 31.1623,26.0787 31.1593,26.2817 C31.1553,26.5757 31.1593,26.8707 31.1693,27.1647 C31.1743,27.3157 31.2033,27.4667 31.2143,27.6187 C31.2203,27.6957 31.2153,27.7737 31.2103,27.8507 C31.1983,28.0447 31.1743,28.2397 31.1723,28.4347 C31.1673,28.8307 31.1773,29.2257 31.1733,29.6217 C31.1713,29.7637 31.0803,29.9547 31.1443,30.0387 C31.2983,30.2427 31.1413,30.4397 31.1953,30.6377 C31.2493,30.8317 31.2633,31.0457 31.2503,31.2487 C31.2343,31.4997 31.2613,31.7367 31.3313,31.9767 C31.3493,32.0377 31.2763,32.1207 31.2693,32.1957 C31.2623,32.2767 31.2813,32.3607 31.2943,32.4427 C31.2973,32.4677 31.3363,32.4997 31.3293,32.5117 C31.2393,32.6717 31.3533,32.8677 31.2973,32.9887 C31.2003,33.1977 31.3573,33.3567 31.3193,33.5487 C31.2783,33.7547 31.3183,33.9767 31.3263,34.1907 C31.3313,34.3527 31.3533,34.5157 31.3463,34.6767 C31.3433,34.7497 31.2613,34.8227 31.2653,34.8927 C31.2923,35.3877 31.3453,35.8817 31.3643,36.3767 C31.3793,36.7647 31.3463,37.1557 31.3533,37.5447 C31.3603,37.9457 31.3993,38.3457 31.4073,38.7477 C31.4133,39.0517 31.3763,39.3567 31.3873,39.6607 C31.4003,40.0077 31.4483,40.3527 31.4733,40.6987 C31.4983,41.0407 31.5163,41.3827 31.5303,41.7247 C31.5433,42.0317 31.5663,42.3417 31.5513,42.6477 C31.5383,42.9107 31.6463,43.1517 31.6393,43.4117 C31.6333,43.6067 31.7023,43.8127 31.6633,43.9977 C31.5913,44.3437 31.6353,44.6877 31.6273,45.0307 C31.6183,45.3987 31.7193,45.7727 31.6823,46.1347 C31.6573,46.3837 31.7543,46.5937 31.7563,46.8227 C31.7613,47.2987 31.7523,47.7757 31.7553,48.2517 C31.7563,48.4737 31.7653,48.6967 31.7813,48.9187 C31.7963,49.1147 31.8593,49.3067 31.7353,49.4987 C31.7053,49.5447 31.7703,49.6467 31.7753,49.7247 C31.7913,49.9847 31.7993,50.2457 31.8123,50.5577 C31.6983,50.4857 31.6433,50.4507 31.5693,50.4047 C31.5513,50.5237 31.5353,50.6317 31.5133,50.7717 C31.6193,50.7307 31.6893,50.7047 31.7553,50.6787 C31.7663,50.9347 31.7633,51.1797 31.7903,51.4217 C31.8213,51.6987 31.8833,51.9717 31.9233,52.2477 C31.9413,52.3747 31.9383,52.5057 31.9453,52.6337 C31.9823,53.2867 32.0333,53.9387 32.0513,54.5917 C32.0573,54.8127 31.9793,55.0357 31.9403,55.2577 C31.9013,55.4797 31.8673,55.7017 31.8223,55.9217 C31.8073,55.9917 31.7643,56.0547 31.7153,56.1657 C31.7953,56.3467 31.6463,56.4927 31.5083,56.6507 C31.4713,56.6927 31.4783,56.7787 31.4753,56.8447 C31.4693,56.9717 31.4293,57.0307 31.2633,56.9217 C31.2933,57.0417 31.3143,57.1247 31.3243,57.1687 C31.2513,57.2597 31.1963,57.3317 31.1363,57.3987 C31.1103,57.4277 31.0713,57.4427 31.0423,57.4687 C30.9943,57.5107 30.9193,57.5497 30.9093,57.6007 C30.8673,57.8187 30.6723,57.9067 30.5583,58.0587 C30.3263,58.3727 29.9913,58.5597 29.7223,58.8247 C29.6903,58.8557 29.6443,58.8737 29.6073,58.9017 C29.5183,58.9687 29.4313,59.0367 29.3693,59.1357 C29.3083,59.1447 29.2273,59.1327 29.1893,59.1667 C28.9443,59.3927 28.7043,59.6257 28.4703,59.8627 C28.3753,59.9587 28.3063,60.0777 28.2163,60.1777 C28.0453,60.3677 27.8253,60.5297 27.7083,60.7477 C27.6373,60.8797 27.3793,60.9697 27.5193,61.1997 C27.5223,61.2037 27.4483,61.2587 27.4073,61.2867 C27.3353,61.3377 27.2543,61.3787 27.1903,61.4387 C27.0523,61.5667 26.9223,61.7047 26.7743,61.8547 C26.7353,61.9307 26.6883,62.0447 26.6233,62.1467 C26.5403,62.2777 26.4363,62.3947 26.3553,62.5267 C26.3193,62.5847 26.3153,62.6637 26.2853,62.7747 C26.0833,62.8707 25.9433,63.0797 25.8183,63.3167 C25.5913,63.7477 25.3153,64.1537 25.0973,64.5877 C24.9493,64.8837 24.8663,65.2117 24.7503,65.5237 C24.7223,65.5987 24.6633,65.6637 24.6403,65.7387 C24.5473,66.0507 24.5063,66.3867 24.3613,66.6707 C24.2343,66.9187 24.1983,67.1847 24.1013,67.4357 C23.9353,67.8697 23.9123,68.3367 23.8613,68.7967 C23.8483,68.9147 23.7593,69.0237 23.6993,69.1507 C23.7563,69.1407 23.7893,69.1347 23.8013,69.1327 C23.7813,69.3507 23.7673,69.5577 23.7413,69.7637 C23.7333,69.8297 23.6963,69.8917 23.6743,69.9487 C23.6893,70.0607 23.7243,70.1787 23.7163,70.2937 C23.7063,70.4327 23.6813,70.5797 23.6233,70.7037 C23.5503,70.8587 23.5623,70.9577 23.7043,71.0067 C23.6763,71.0877 23.6333,71.1547 23.6343,71.2207 C23.6433,71.6827 23.6673,72.1437 23.6753,72.6047 C23.6773,72.7367 23.6423,72.8677 23.6193,73.0387 C23.6433,73.2497 23.7143,73.5147 23.6963,73.7727 C23.6553,74.3587 23.7263,74.9367 23.7713,75.5147 C23.8153,76.0937 23.9003,76.6687 23.9633,77.2457 C23.9813,77.4047 23.9883,77.5657 23.9883,77.7257 C23.9873,77.8657 24.0783,77.9707 24.0893,78.1217 C24.1293,78.6837 24.2293,79.2427 24.3333,79.7987 C24.3963,80.1367 24.5233,80.4627 24.5913,80.8017 C24.6683,81.1857 24.7093,81.5767 24.7683,81.9657 C24.7753,82.0047 24.8003,82.0417 24.8103,82.0817 C24.8833,82.3677 25.0083,82.6537 25.0073,82.9397 C25.0073,83.1057 25.2193,83.2597 25.0443,83.4357 C25.0313,83.4487 25.1143,83.5427 25.1343,83.6057 C25.2213,83.8837 25.2963,84.1657 25.3833,84.4437 C25.4643,84.7007 25.5563,84.9547 25.6423,85.2107 C25.7103,85.4117 25.7723,85.6137 25.8453,85.8127 C25.9063,85.9797 25.9573,86.1577 26.0543,86.3037 C26.2203,86.5537 26.2363,86.9047 26.5523,87.0657 C26.6573,86.9677 26.6453,86.8727 26.6283,86.7327 C26.5973,86.4837 26.6663,86.2237 26.6603,85.9687 C26.6523,85.5997 26.6153,85.2307 26.5913,84.8617 C26.5553,84.3317 26.5213,83.8007 26.4863,83.2707 C26.4763,83.1117 26.4673,82.9527 26.4583,82.7947 C26.4493,82.6147 26.4473,82.4347 26.4283,82.2567 C26.3853,81.8577 26.3253,81.4607 26.2873,81.0617 C26.2503,80.6717 26.2383,80.2787 26.2043,79.8887 C26.1673,79.4637 26.0983,79.0417 26.0773,78.6167 C26.0553,78.1447 26.0753,77.6717 26.0713,77.1987 C26.0703,77.0587 26.0513,76.9197 26.0383,76.7807 C26.0353,76.7547 26.0143,76.7297 26.0173,76.7057 C26.0803,76.1397 26.1443,75.5737 26.2143,75.0077 C26.2243,74.9257 26.2693,74.8497 26.2843,74.7677 C26.3443,74.4347 26.4183,74.1017 26.4483,73.7657 C26.4683,73.5457 26.5923,73.4007 26.7133,73.2487 C26.8543,73.0717 26.9893,72.8737 27.1713,72.7467 C27.5253,72.4997 27.8543,72.6837 28.1613,72.8877 C28.2373,72.9387 28.3453,72.9767 28.3133,73.1227 C28.3013,73.1787 28.3673,73.2817 28.4253,73.3167 C28.6643,73.4657 28.6603,73.7367 28.7443,73.9507 C28.9063,74.3657 29.0303,74.7977 29.1323,75.2307 C29.1943,75.4957 29.1813,75.7767 29.2093,76.0497 C29.2443,76.3967 29.2873,76.7427 29.3243,77.0897 C29.3313,77.1557 29.3253,77.2227 29.3233,77.2897 C29.3203,77.3657 29.3023,77.4437 29.3123,77.5177 C29.3463,77.7807 29.3943,78.0417 29.4253,78.3047 C29.4623,78.6077 29.5023,78.9117 29.5153,79.2167 C29.5353,79.6817 29.5293,80.1477 29.5433,80.6147 C29.5523,80.8927 29.6053,81.1737 29.5883,81.4497 C29.5713,81.7137 29.6233,81.9657 29.6433,82.2227 C29.6613,82.4587 29.7323,82.6957 29.7163,82.9277 C29.6933,83.2887 29.7503,83.6417 29.7523,83.9957 C29.7563,84.4157 29.8553,84.8147 29.9063,85.2237 C29.9393,85.4837 30.0233,85.7367 30.0823,85.9937 C30.1253,86.1757 30.1523,86.3617 30.2103,86.5387 C30.2463,86.6497 30.3243,86.7477 30.4163,86.8457 C30.5683,86.6067 30.7763,86.4417 30.7943,86.1387 C30.8193,85.6907 30.9033,85.2457 30.9603,84.7987 C30.9673,84.7427 30.9693,84.6857 30.9673,84.6287 C30.9433,83.9957 30.9133,83.3627 30.8943,82.7287 C30.8693,81.9277 30.8613,81.1257 30.8293,80.3237 C30.8053,79.7497 30.7483,79.1757 30.7133,78.6017 C30.6623,77.7437 30.5893,76.8867 30.5803,76.0287 C30.5763,75.5697 30.6843,75.1077 30.7523,74.6487 C30.7883,74.4117 30.8353,74.1747 30.9043,73.9457 C30.9403,73.8237 31.0383,73.7207 31.0963,73.6037 C31.1283,73.5387 31.1333,73.4617 31.1453,73.4167 C31.2343,73.3247 31.2993,73.2307 31.3873,73.1717 C31.6953,72.9677 31.9943,72.7377 32.3303,72.5967 C32.4873,72.5317 32.7213,72.6447 32.9193,72.6827 C32.9803,72.6937 33.0483,72.7097 33.0943,72.7457 C33.1823,72.8127 33.2853,72.8827 33.3313,72.9767 C33.4813,73.2767 33.6153,73.5857 33.7403,73.8967 C33.8713,74.2217 34.0273,74.5437 34.0973,74.8837 C34.2333,75.5447 34.3053,76.2187 34.4263,76.8827 C34.4983,77.2777 34.6163,77.6637 34.7053,78.0547 C34.7213,78.1257 34.6903,78.2047 34.6933,78.2797 C34.6963,78.3917 34.7043,78.5047 34.7193,78.6167 C34.7403,78.7737 34.7743,78.9287 34.7953,79.0847 C34.8183,79.2607 34.8703,79.4447 34.8423,79.6137 C34.8063,79.8287 34.9503,79.9707 34.9843,80.1517 C35.0213,80.3507 35.0503,80.5497 35.0833,80.7487 C35.0873,80.7697 35.1013,80.7937 35.0953,80.8107 C34.9553,81.1897 35.2423,81.5747 35.0803,81.9587 C35.0563,82.0157 35.1423,82.1107 35.1583,82.1927 C35.2513,82.6537 35.3363,83.1157 35.4293,83.5767 C35.4663,83.7607 35.5833,83.9587 35.5463,84.1227 C35.4813,84.4127 35.6863,84.5777 35.7563,84.8017 C35.8363,85.0607 35.8963,85.3267 35.9963,85.5777 C36.0453,85.6997 36.1613,85.7967 36.2553,85.8967 C36.2663,85.9087 36.3643,85.8757 36.3713,85.8487 C36.4333,85.6267 36.5033,85.4047 36.5323,85.1777 C36.5603,84.9547 36.5443,84.7257 36.5463,84.4997 C36.5473,84.4437 36.5443,84.3867 36.5363,84.3317 C36.5043,84.0817 36.4723,83.8317 36.4353,83.5827 C36.3823,83.2177 36.3243,82.8527 36.2713,82.4877 C36.2163,82.1047 36.1633,81.7217 36.1123,81.3387 C36.0683,81.0117 36.0163,80.6867 35.9903,80.3587 C35.9663,80.0527 35.9763,79.7457 35.9653,79.4387 C35.9573,79.2387 35.9283,79.0387 35.9253,78.8387 C35.9213,78.5567 35.9393,78.2747 35.9353,77.9937 C35.9253,77.4357 35.8983,76.8787 35.8953,76.3207 C35.8943,76.0667 35.9253,75.8117 35.9543,75.5587 C36.0223,74.9797 36.1763,74.4187 36.3633,73.8707 C36.4373,73.6507 36.6073,73.4597 36.7513,73.2687 C36.8883,73.0877 37.0223,72.8807 37.2063,72.7637 C37.4013,72.6407 37.5393,72.4387 37.8003,72.3917 C38.0293,72.3497 38.2363,72.3977 38.4523,72.4227 C38.4793,72.4257 38.5043,72.4627 38.5273,72.4867 C38.7253,72.6827 38.8713,72.9137 38.9803,73.1697 C38.9833,73.1757 38.9863,73.1817 38.9903,73.1877 C39.0983,73.3517 39.1773,73.5197 39.2383,73.7137 C39.3443,74.0517 39.5063,74.3727 39.5273,74.7327 C39.5533,75.1567 39.5613,75.5817 39.5813,76.0067 C39.5843,76.0677 39.6023,76.1377 39.6373,76.1857 C39.7203,76.2987 39.7513,76.3927 39.6643,76.5297 C39.6313,76.5827 39.5373,76.7627 39.7563,76.7757 C39.7743,76.7767 39.7973,76.8317 39.8023,76.8637 C39.8703,77.3537 39.9333,77.8447 40.0033,78.3357 C40.0443,78.6317 40.1693,78.9387 40.1213,79.2177 C40.0593,79.5737 40.2693,79.8787 40.2063,80.2217 C40.1893,80.3127 40.3053,80.4267 40.2893,80.5197 C40.2243,80.9207 40.4403,81.2737 40.4613,81.6577 C40.4653,81.7197 40.4363,81.7827 40.4243,81.8457 C40.4183,81.8787 40.4003,81.9357 40.4103,81.9417 C40.6003,82.0507 40.4883,82.2177 40.5013,82.3627 C40.5243,82.6137 40.5563,82.8647 40.6003,83.1137 C40.6723,83.5117 40.7283,83.9167 40.8473,84.3017 C40.9333,84.5837 40.9493,84.9087 41.2033,85.1247 C41.2273,85.1457 41.2613,85.1907 41.2533,85.2077 C41.1473,85.4497 41.4033,85.4897 41.4683,85.6307 C41.8373,85.5557 41.8613,85.3077 41.8513,85.0007 C41.8383,84.5907 41.8873,84.1787 41.8873,83.7677 C41.8863,83.3987 41.8483,83.0307 41.8403,82.6627 C41.8373,82.5137 41.8843,82.3637 41.8873,82.2127 C41.8953,81.6827 41.9043,81.1517 41.8933,80.6207 C41.8873,80.3367 41.8353,80.0527 41.8143,79.7687 C41.7913,79.4427 41.7803,79.1147 41.7663,78.7887 C41.7433,78.2687 41.7123,77.7497 41.7053,77.2297 C41.7013,76.9417 41.7453,76.6527 41.7573,76.3637 C41.7733,75.9587 41.8033,75.5527 41.7843,75.1487 C41.7583,74.6057 41.6763,74.0657 41.6453,73.5227 C41.6173,73.0377 41.6373,72.5497 41.6133,72.0647 C41.5923,71.6287 41.5383,71.1957 41.5013,70.7607 C41.4613,70.2907 41.4423,69.8187 41.3823,69.3527 C41.3253,68.9077 41.2213,68.4697 41.1483,68.0277 C41.0883,67.6637 41.0673,67.2907 40.9833,66.9327 C40.9003,66.5797 40.7703,66.2367 40.6413,65.8967 C40.5273,65.5957 40.3933,65.3017 40.2553,65.0107 C40.1793,64.8497 40.0703,64.7057 39.9893,64.5467 C39.8113,64.1947 39.6563,63.8297 39.4653,63.4857 C39.3033,63.1947 39.1133,62.9177 38.9173,62.6477 C38.6843,62.3257 38.4383,62.0107 38.1863,61.7027 C37.8173,61.2517 37.4743,60.7817 37.0293,60.3967 C36.7973,60.1967 36.5953,59.9617 36.3793,59.7437 C36.1513,59.5147 35.9113,59.2977 35.6983,59.0557 C35.4553,58.7797 35.2333,58.4857 35.0093,58.1957 C34.6653,57.7507 34.4933,57.2427 34.4323,56.6847 C34.4103,56.4797 34.2993,56.2857 34.2423,56.0837 C34.1593,55.7807 34.0663,55.4847 34.1033,55.1547 C34.1293,54.9227 34.0623,54.6787 34.0383,54.4407 C34.0133,54.1907 33.9913,53.9407 33.9633,53.6907 C33.9283,53.3877 33.8803,53.0857 33.8503,52.7827 C33.8093,52.3597 33.7683,51.9357 33.7493,51.5107 C33.7313,51.1307 33.7523,50.7487 33.7383,50.3687 C33.7273,50.0517 33.6713,49.7357 33.6693,49.4187 C33.6653,48.9247 33.6903,48.4307 33.7023,47.9357 C33.7073,47.7197 33.7633,47.4857 33.7013,47.2897 C33.5103,46.6817 33.5993,46.0537 33.5233,45.4387 C33.4743,45.0427 33.5253,44.6347 33.5173,44.2317 C33.5113,43.9227 33.4723,43.6147 33.4693,43.3067 C33.4633,42.8237 33.4743,42.3387 33.4803,41.8547 C33.4873,41.3797 33.4953,40.9037 33.5053,40.4287 C33.5143,40.0497 33.5383,39.6707 33.5343,39.2917 C33.5263,38.5707 33.4983,37.8497 33.4853,37.1287 C33.4733,36.4527 33.4673,35.7767 33.4643,35.0997 C33.4623,34.4377 33.4743,33.7757 33.4683,33.1137 C33.4623,32.5907 33.4353,32.0677 33.4233,31.5447 C33.4193,31.3327 33.4353,31.1197 33.4353,30.9077 C33.4333,29.9647 33.4323,29.0207 33.4223,28.0777 C33.4203,27.8227 33.3773,27.5687 33.3773,27.3147 C33.3763,26.8057 33.4003,26.2977 33.3983,25.7887 C33.3963,25.2817 33.3783,24.7747 33.3573,24.2687 C33.3493,24.0797 33.3183,23.8917 33.2873,23.7047 C33.2723,23.6157 33.2333,23.5317 33.2023,23.4377 C33.2363,23.4277 33.2953,23.4087 33.3933,23.3777 C33.2043,23.1567 33.4063,22.9747 33.4263,22.7697 C33.4513,22.5177 33.4383,22.2617 33.4413,22.0077 C33.4483,21.4287 33.4603,20.8507 33.4623,20.2727 C33.4653,19.6777 33.4643,19.0837 33.4553,18.4897 C33.4513,18.1307 33.4263,17.7727 33.4173,17.4137 C33.4043,16.8577 33.4023,16.3017 33.3873,15.7457 C33.3723,15.1877 33.3393,14.6297 33.3283,14.0717 C33.3243,13.8227 33.3633,13.5727 33.3653,13.3237 C33.3673,13.0997 33.3423,12.8757 33.3363,12.6517 C33.3283,12.3337 33.3233,12.0167 33.3243,11.6997 C33.3263,11.3637 33.3543,11.0277 33.3413,10.6927 C33.3213,10.1857 33.2703,9.6807 33.2443,9.1747 C33.2323,8.9257 33.2583,8.6747 33.2423,8.4257 C33.2183,8.0527 33.1533,7.6827 33.1413,7.3107 C33.1273,6.9207 33.1653,6.5297 33.1643,6.1397 C33.1623,5.4987 33.1463,4.8567 33.1403,4.2157 C33.1353,3.7197 33.1353,3.2257 33.1323,2.7307 L30.9053,2.7307 C30.9153,2.9567 30.9263,3.1847 30.9323,3.4067" id="Fill-82" sketch:type="MSShapeGroup"></path>
                <path d="M25.3224,129.4387 C25.3224,129.8507 25.2664,130.1947 25.1664,130.6507 L24.7994,132.3637 C24.7884,132.4077 24.7664,132.5857 24.7664,132.6417 C24.7664,132.7417 24.7664,132.9197 24.8774,132.9197 C25.1104,132.9197 25.5784,132.3417 25.6114,132.3077 C25.6444,132.3077 25.7564,132.4967 25.7564,132.5637 C25.6294,132.7807 24.8744,133.6087 24.3544,133.6087 C24.1214,133.6087 23.9764,133.3647 23.9764,133.0307 C23.9764,132.9417 24.0104,132.6747 24.0544,132.4417 L24.4434,130.6067 C24.4644,130.5087 24.5214,130.1277 24.5214,130.0057 C24.5214,129.7497 24.4994,129.5277 24.3104,129.5277 C23.9094,129.5277 22.4974,131.0067 22.1754,132.6747 L21.9864,133.5427 C21.8744,133.5757 21.7524,133.5867 21.6414,133.5867 C21.5304,133.5867 21.3964,133.5757 21.2634,133.5427 L22.4674,127.3257 C22.5084,127.1257 22.5674,126.8587 22.5674,126.7367 C22.5674,126.5247 22.0664,126.5247 21.8894,126.5247 C21.8664,126.5247 21.8554,126.4807 21.8554,126.4587 C21.8554,126.3697 21.9004,126.2807 21.9444,126.2357 C22.5564,126.1807 23.1014,126.0137 23.3464,125.9247 C23.4014,125.9577 23.4084,126.0687 23.4084,126.1357 C23.4084,126.2247 23.3204,126.6917 23.2684,126.9697 L22.6994,129.8727 L22.5004,130.8957 C22.6454,130.6177 24.0324,128.7047 24.7664,128.7047 C25.2004,128.7047 25.3224,129.0157 25.3224,129.4387" id="Fill-84" sketch:type="MSShapeGroup"></path>
                <path d="M27.5424,131.7854 C27.5424,132.6754 27.8654,133.1414 28.2654,133.1414 C29.0434,133.1414 29.6774,131.6184 29.6774,130.5064 C29.6774,129.6164 29.4104,129.1604 29.0104,129.1604 C28.2314,129.1604 27.5424,130.6734 27.5424,131.7854 M30.5224,130.4174 C30.5224,131.9744 29.1774,133.5974 28.0654,133.5974 C27.1754,133.5974 26.6974,132.9864 26.6974,131.9304 C26.6974,130.3724 28.0314,128.7044 29.1434,128.7044 C30.0334,128.7044 30.5224,129.3604 30.5224,130.4174" id="Fill-86" sketch:type="MSShapeGroup"></path>
                <path d="M33.3005,129.283 C33.3005,129.372 33.2875,129.639 33.2335,129.872 L32.8445,131.707 C32.8205,131.808 32.7665,132.186 32.7665,132.308 C32.7665,132.564 32.7885,132.786 32.9775,132.786 C33.3785,132.786 34.7015,131.307 35.0245,129.639 L35.2135,128.772 C35.3245,128.738 35.4465,128.727 35.5575,128.727 C35.6695,128.727 35.8025,128.738 35.9365,128.772 L35.2445,132.364 C35.2335,132.408 35.2115,132.586 35.2115,132.642 C35.2115,132.742 35.2115,132.92 35.3225,132.92 C35.5565,132.92 36.0235,132.341 36.0565,132.308 C36.0905,132.308 36.2015,132.497 36.2015,132.564 C36.0755,132.78 35.3195,133.609 34.8005,133.609 C34.5665,133.609 34.4215,133.365 34.4215,133.031 C34.4215,132.942 34.4555,132.675 34.4995,132.441 L34.6985,131.418 C34.5545,131.696 33.2555,133.609 32.5225,133.609 C32.0885,133.609 31.9655,133.298 31.9655,132.875 C31.9655,132.464 32.0195,132.119 32.1215,131.663 L32.4535,130.117 C32.4645,130.039 32.5105,129.728 32.5105,129.672 C32.5105,129.572 32.5105,129.394 32.3995,129.394 C32.2215,129.394 31.8215,129.884 31.7875,129.917 C31.7545,129.917 31.6435,129.728 31.6435,129.661 C31.7695,129.445 32.4885,128.705 32.9225,128.705 C33.1555,128.705 33.3005,128.95 33.3005,129.283" id="Fill-88" sketch:type="MSShapeGroup"></path>
                <path d="M40.2454,129.094 C40.2784,129.172 40.3004,129.25 40.3004,129.328 C40.3004,129.583 40.1454,129.817 39.9224,129.817 C39.5334,129.817 39.5554,129.161 38.8554,129.161 C38.5214,129.161 38.3544,129.439 38.3544,129.672 C38.3544,130.562 39.7334,131.129 39.7334,132.241 C39.7334,133.064 39.0774,133.609 38.1434,133.609 C37.6984,133.609 37.3764,133.453 37.1424,133.187 C37.1094,133.131 37.0864,133.042 37.0864,132.975 C37.0864,132.719 37.2424,132.464 37.4654,132.464 C37.8544,132.464 37.8324,133.12 38.5324,133.12 C38.8774,133.12 39.0774,132.842 39.0774,132.608 C39.0774,131.719 37.6984,131.151 37.6984,130.039 C37.6984,129.472 38.3104,128.671 39.2444,128.671 C39.6894,128.671 40.0114,128.827 40.2454,129.094" id="Fill-90" sketch:type="MSShapeGroup"></path>
                <path d="M41.8757,131.0735 C41.8757,131.0955 41.8867,131.1175 41.9197,131.1175 C42.3537,131.1175 43.5997,130.3175 43.5997,129.4945 C43.5997,129.3605 43.5327,129.1605 43.3217,129.1605 C42.5427,129.1605 41.8757,130.6625 41.8757,131.0735 M44.3997,129.5385 C44.3997,130.6065 42.5317,131.5075 41.8427,131.5075 C41.7977,131.5075 41.7977,131.8405 41.7977,131.8965 C41.7977,132.5795 42.0867,132.9195 42.5207,132.9195 C43.0437,132.9195 43.5217,132.3415 43.5547,132.3075 C43.5887,132.3075 43.6997,132.4975 43.6997,132.5635 C43.5767,132.7745 42.8547,133.6095 42.1537,133.6095 C41.3637,133.6095 40.9637,132.9525 40.9637,131.9185 C40.9637,130.5065 42.2867,128.7045 43.4327,128.7045 C44.1887,128.7045 44.3997,129.2055 44.3997,129.5385" id="Fill-92" sketch:type="MSShapeGroup"></path>
                <path d="M10.0593,115.1636 L10.0593,117.7146 C10.0593,118.4936 10.0833,119.1546 10.2483,119.7926 C10.3193,120.0526 11.4763,120.2646 11.6653,120.2646 C11.7833,120.2646 11.7833,120.8076 11.7363,120.9496 C10.7913,120.9026 10.1063,120.8316 9.2093,120.8316 C8.2413,120.8316 7.6973,120.9026 6.7293,120.9496 C6.6113,120.8316 6.6113,120.2646 6.7293,120.2646 C7.0133,120.2646 8.0053,120.0526 8.0753,119.7926 C8.2173,119.2016 8.2413,118.4696 8.2413,118.1396 L8.2413,115.6356 C8.2413,112.5186 7.2723,111.9756 5.7853,111.9756 C4.7933,111.9756 3.6833,112.9906 3.6833,113.5106 L3.6833,117.6906 C3.6833,118.4696 3.7063,119.1546 3.8723,119.7926 C3.9423,120.0526 5.1003,120.2646 5.2893,120.2646 C5.4073,120.2646 5.4073,120.8076 5.3603,120.9496 C4.4153,120.9026 3.7303,120.8316 2.8333,120.8316 C1.8643,120.8316 1.2273,120.9026 0.2593,120.9496 C0.1403,120.8316 0.1403,120.2646 0.2593,120.2646 C0.5423,120.2646 1.6283,120.0526 1.6993,119.7926 C1.8413,119.2016 1.8643,118.4936 1.8643,118.1626 L1.8643,107.9136 C1.8643,107.5126 1.8173,106.8746 1.7233,106.4026 C1.6283,106.0716 0.9203,106.0246 0.5183,106.0246 L0.3063,106.0246 C0.2113,106.0246 0.1643,105.9296 0.1643,105.7646 C0.1643,105.7176 0.1883,105.3866 0.3063,105.3866 C2.8803,105.1506 3.5173,104.4896 3.5883,104.4896 L3.6363,104.4896 C3.7773,104.4896 3.9193,104.7486 3.9423,104.8676 C3.9423,104.8676 3.6833,105.6226 3.6833,106.9216 L3.6833,112.0936 C3.6833,112.1176 3.6833,112.1876 3.7303,112.1876 C3.7543,112.1876 3.7773,112.1646 3.8013,112.1406 C4.3683,111.5266 5.8323,110.5346 7.1073,110.5346 C9.2803,110.5346 10.0593,112.0936 10.0593,115.1636" id="Fill-94" sketch:type="MSShapeGroup"></path>
                <path d="M15.7662,115.4233 C15.7662,118.0213 17.3482,120.1233 19.1202,120.1233 C20.8432,120.1233 21.9772,118.2333 21.9772,116.1083 C21.9772,113.5103 20.3712,111.4793 18.6002,111.4793 C16.8762,111.4793 15.7662,113.2983 15.7662,115.4233 M24.0082,115.7773 C24.0082,118.6583 21.7882,121.0443 18.9072,121.0443 C16.0262,121.0443 13.7352,118.6583 13.7352,115.7773 C13.7352,112.8493 15.9312,110.5583 18.8602,110.5583 C21.7172,110.5583 24.0082,112.9203 24.0082,115.7773" id="Fill-96" sketch:type="MSShapeGroup"></path>
                <path d="M27.5662,107.9136 C27.5662,107.5126 27.5192,106.8746 27.4242,106.4026 C27.3302,106.0716 26.6212,106.0246 26.2202,106.0246 L26.0072,106.0246 C25.9132,106.0246 25.8662,105.9296 25.8662,105.7646 C25.8662,105.7176 25.8892,105.3866 26.0072,105.3866 C28.5812,105.1506 29.2192,104.4896 29.2902,104.4896 L29.3372,104.4896 C29.4792,104.4896 29.6212,104.7486 29.6442,104.8676 C29.6442,104.8676 29.3842,105.6226 29.3842,106.9216 L29.3842,117.6906 C29.3842,118.4696 29.4082,119.1546 29.5732,119.7926 C29.6442,120.0526 30.8012,120.2646 30.9902,120.2646 C31.1082,120.2646 31.1082,120.8076 31.0612,120.9496 C30.1172,120.9026 29.4322,120.8316 28.5342,120.8316 C27.5662,120.8316 26.9282,120.9026 25.9602,120.9496 C25.8422,120.8316 25.8422,120.2646 25.9602,120.2646 C26.2432,120.2646 27.3302,120.0526 27.4012,119.7926 C27.5422,119.2016 27.5662,118.4696 27.5662,118.1396 L27.5662,107.9136 Z" id="Fill-98" sketch:type="MSShapeGroup"></path>
                <path d="M38.9637,110.8655 C39.1287,111.5975 39.2237,112.4245 39.2477,113.2745 C39.2477,113.3685 39.0587,113.3925 38.9407,113.3925 C38.8217,113.3925 38.6097,113.3455 38.5857,113.2275 C38.4447,112.4245 37.6647,111.3855 36.6497,111.3855 C35.5157,111.3855 34.9487,111.9285 34.9487,112.7785 C34.9487,114.0065 35.9877,114.3605 37.0507,114.9985 C38.1137,115.6365 39.8137,116.3915 39.8137,117.8795 C39.8137,119.7925 38.0897,121.1385 36.1767,121.1385 C35.0907,121.1385 34.4537,120.8785 33.4137,120.6895 C33.2247,120.1935 33.0127,118.8475 33.0127,118.2335 C33.1067,118.1625 33.1777,118.0925 33.2957,118.0925 C33.4607,118.0925 33.6507,118.0685 33.6737,118.2335 C33.8387,119.0845 34.9257,120.2885 36.1767,120.2885 C37.1457,120.2885 37.9007,119.7685 37.9007,118.6825 C37.9007,117.2415 36.3427,116.7695 34.9727,115.9665 C34.0287,115.4235 33.1307,114.6915 33.1307,113.4395 C33.1307,111.6925 34.8077,110.5585 36.5547,110.5585 C37.4757,110.5585 37.9247,110.7475 38.9637,110.8655" id="Fill-100" sketch:type="MSShapeGroup"></path>
                <path d="M44.0327,115.4233 C44.0327,118.0213 45.6147,120.1233 47.3867,120.1233 C49.1097,120.1233 50.2437,118.2333 50.2437,116.1083 C50.2437,113.5103 48.6377,111.4793 46.8667,111.4793 C45.1427,111.4793 44.0327,113.2983 44.0327,115.4233 M52.2747,115.7773 C52.2747,118.6583 50.0547,121.0443 47.1737,121.0443 C44.2927,121.0443 42.0017,118.6583 42.0017,115.7773 C42.0017,112.8493 44.1977,110.5583 47.1267,110.5583 C49.9837,110.5583 52.2747,112.9203 52.2747,115.7773" id="Fill-102" sketch:type="MSShapeGroup"></path>
                <path d="M64.3578,115.5415 L64.3578,117.6905 C64.3578,118.4695 64.3818,119.1545 64.5468,119.7925 C64.6178,120.0525 65.7748,120.2645 65.9638,120.2645 C66.0818,120.2645 66.0818,120.8075 66.0348,120.9495 C65.0898,120.9025 64.4048,120.8315 63.5078,120.8315 C62.5398,120.8315 61.9958,120.9025 61.0278,120.9495 C60.9098,120.8315 60.9098,120.2645 61.0278,120.2645 C61.3118,120.2645 62.3028,120.0525 62.3738,119.7925 C62.5158,119.2015 62.5398,118.4695 62.5398,118.1395 L62.5398,115.7775 C62.5398,112.7315 61.7368,111.9755 60.1308,111.9755 C59.0678,111.9755 57.9818,112.9675 57.9818,113.5345 L57.9818,117.6905 C57.9818,118.4695 58.0048,119.1545 58.1708,119.7925 C58.2408,120.0525 59.3988,120.2645 59.5878,120.2645 C59.7058,120.2645 59.7058,120.8075 59.6588,120.9495 C58.7138,120.9025 58.0288,120.8315 57.1318,120.8315 C56.1628,120.8315 55.5258,120.9025 54.5578,120.9495 C54.4388,120.8315 54.4388,120.2645 54.5578,120.2645 C54.8408,120.2645 55.9268,120.0525 55.9978,119.7925 C56.1398,119.2015 56.1628,118.4695 56.1628,118.1395 L56.1628,113.6755 C56.1628,113.4865 56.1398,112.7315 55.8328,112.4005 C55.3128,111.7625 54.4628,111.9995 54.4628,111.8575 C54.4628,111.8335 54.4868,111.2905 54.6048,111.2675 C55.6668,111.1015 56.9898,110.9125 57.8638,110.6535 C57.8868,110.6535 57.9578,110.6295 57.9818,110.6295 C58.1228,110.6295 58.1228,111.0075 58.0998,111.1255 C58.0288,111.6215 58.0048,111.8815 58.0048,112.0705 C58.0048,112.0935 58.0048,112.1645 58.0518,112.1645 C58.0758,112.1645 58.0998,112.1405 58.1228,112.1175 C58.6898,111.5265 60.1068,110.5345 61.3818,110.5345 C63.6258,110.5345 64.3578,112.1175 64.3578,115.5415" id="Fill-104" sketch:type="MSShapeGroup"></path>
            </g>
        </g>
    </g>
</svg>