<?xml version="1.0" encoding="UTF-8" standalone="no"?>
<svg width="12px" height="10px" viewBox="0 0 12 10" version="1.1" xmlns="http://www.w3.org/2000/svg" xmlns:xlink="http://www.w3.org/1999/xlink" xmlns:sketch="http://www.bohemiancoding.com/sketch/ns">
    <!-- Generator: Sketch 3.3.3 (12072) - http://www.bohemiancoding.com/sketch -->
    <title>more</title>
    <desc>Created with Sketch.</desc>
    <defs></defs>
    <g id="Page-1" stroke="none" stroke-width="1" fill="none" fill-rule="evenodd" sketch:type="MSPage">
        <g id="more" sketch:type="MSArtboardGroup" fill="#000000">
            <path d="M11.9220001,5.17749999 C11.9460001,5.15149999 11.9640001,5.12549999 11.9770001,5.09549999 C11.9890001,5.06549999 11.9960001,5.03349999 11.9960001,5.00049999 C11.9960001,4.96649999 11.9890001,4.93349999 11.9770001,4.90349999 C11.9640001,4.87249999 11.9460001,4.84449999 11.9220001,4.82149999 L7.41400008,0.313499995 C7.31600008,0.215499995 7.15700008,0.215499995 7.05900008,0.313499995 C7.01000008,0.362499995 6.98500008,0.426499995 6.98500008,0.490499995 C6.98500008,0.555499995 7.01000008,0.619499995 7.05900008,0.668499995 L11.1390001,4.74849999 L0.251,4.74850002 C0.112,4.74850002 0,4.86050002 0,4.99950002 C0,5.13850002 0.112,5.25050002 0.251,5.25050002 L11.1390001,5.25049999 L7.05900008,9.33049999 C7.01000008,9.37949999 6.98500008,9.44349999 6.98500008,9.50749999 C6.98500008,9.57249999 7.01000008,9.63649999 7.05900008,9.68549999 C7.15700008,9.78349999 7.31600008,9.78349999 7.41400008,9.68549999 L11.9220001,5.17749999 Z" id="Arrow" sketch:type="MSShapeGroup"></path>
        </g>
    </g>
</svg>