<?xml version="1.0" encoding="UTF-8" standalone="no"?>
<svg width="40px" height="40px" viewBox="0 0 40 40" version="1.1" xmlns="http://www.w3.org/2000/svg" xmlns:xlink="http://www.w3.org/1999/xlink" xmlns:sketch="http://www.bohemiancoding.com/sketch/ns">
    <!-- Generator: Sketch 3.4 (15575) - http://www.bohemiancoding.com/sketch -->
    <title>share</title>
    <desc>Created with Sketch.</desc>
    <defs></defs>
    <g id="Page-1" stroke="none" stroke-width="1" fill="none" fill-rule="evenodd" sketch:type="MSPage">
        <g id="share" sketch:type="MSArtboardGroup">
            <circle id="Background" fill="#FFFFFF" sketch:type="MSShapeGroup" cx="20" cy="20" r="20"></circle>
            <g id="pinterest13" sketch:type="MSLayerGroup" fill="#CF1614">
                <path d="M37.2012698,10.0292063 C35.4250794,6.98603175 33.0155556,4.57650794 29.972381,2.80031746 C26.9288889,1.02412698 23.6057143,0.136190476 20.0015873,0.136190476 C16.3977778,0.136190476 13.0739683,1.02412698 10.0307937,2.80031746 C6.98730159,4.57619048 4.57777778,6.98571429 2.8015873,10.0292063 C1.02507937,13.0726984 0.137142857,16.3961905 0.137142857,20 C0.137142857,24.0174603 1.23206349,27.6650794 3.42190476,30.9406349 C5.61174603,34.2171429 8.48253968,36.6396825 12.0346032,38.2088889 C11.9657143,36.3638095 12.0777778,34.8380952 12.3707937,33.6311111 L14.9314286,22.8193651 C14.5003175,21.9742857 14.2847619,20.9228571 14.2847619,19.6638095 C14.2847619,18.1984127 14.6552381,16.9742857 15.3968254,15.9911111 C16.1384127,15.008254 17.0434921,14.5168254 18.1126984,14.5168254 C18.9746032,14.5168254 19.6384127,14.8012698 20.104127,15.3701587 C20.5698413,15.9393651 20.8022222,16.6549206 20.8022222,17.5171429 C20.8022222,18.0514286 20.7028571,18.7025397 20.5044444,19.4698413 C20.3060317,20.2371429 20.047619,21.1250794 19.7285714,22.1339683 C19.4095238,23.1425397 19.1809524,23.9492063 19.0431746,24.5520635 C18.8019048,25.6038095 19,26.5047619 19.6380952,27.2552381 C20.275873,28.0050794 21.1212698,28.3806349 22.1730159,28.3806349 C24.0180952,28.3806349 25.5307937,27.3546032 26.712381,25.3028571 C27.8936508,23.2504762 28.4838095,20.7590476 28.4838095,17.8279365 C28.4838095,15.5688889 27.7552381,13.732381 26.2980952,12.3187302 C24.8409524,10.9047619 22.8104762,10.1974603 20.2066667,10.1974603 C17.2930159,10.1974603 14.9349206,11.1330159 13.1330159,13.0038095 C11.3311111,14.8749206 10.4301587,17.112381 10.4301587,19.715873 C10.4301587,21.2679365 10.8698413,22.5698413 11.7492063,23.6215873 C12.0422222,23.9663492 12.1371429,24.3371429 12.0336508,24.7339683 C11.9990476,24.8374603 11.9301587,25.095873 11.8266667,25.5095238 C11.7234921,25.9231746 11.6542857,26.1907937 11.62,26.3111111 C11.4822222,26.8628571 11.1542857,27.0352381 10.6371429,26.8285714 C9.30952381,26.2771429 8.30063492,25.3196825 7.61111111,23.9574603 C6.92126984,22.5955556 6.57650794,21.0171429 6.57650794,19.2244444 C6.57650794,18.0692063 6.76190476,16.9139683 7.13269841,15.7587302 C7.5031746,14.6031746 8.08095238,13.4869841 8.86539683,12.4092063 C9.65015873,11.3311111 10.5898413,10.3784127 11.6847619,9.55111111 C12.7793651,8.72349206 14.1114286,8.05968254 15.6806349,7.55968254 C17.2498413,7.05968254 18.9393651,6.80952381 20.7501587,6.80952381 C23.1987302,6.80952381 25.3968254,7.35269841 27.3450794,8.43904762 C29.2939683,9.52539683 30.7809524,10.9304762 31.8069841,12.6549206 C32.8330159,14.3793651 33.3460317,16.2244444 33.3460317,18.1901587 C33.3460317,20.7765079 32.8977778,23.104127 32.0012698,25.1736508 C31.1047619,27.2425397 29.8374603,28.867619 28.1990476,30.0485714 C26.5606349,31.2301587 24.6987302,31.8206349 22.611746,31.8206349 C21.5603175,31.8206349 20.5774603,31.5749206 19.6631746,31.0834921 C18.7495238,30.5920635 18.12,30.0101587 17.7752381,29.3377778 C16.9993651,32.3892063 16.5336508,34.2085714 16.3784127,34.7949206 C16.0507937,36.0187302 15.3784127,37.4330159 14.3609524,39.0361905 C16.2060317,39.5879365 18.0853968,39.8634921 19.9993651,39.8634921 C23.6031746,39.8634921 26.9269841,38.9755556 29.9701587,37.1993651 C33.0133333,35.4234921 35.4228571,33.0136508 37.1990476,29.9704762 C38.9749206,26.9269841 39.8628571,23.6031746 39.8628571,19.9996825 C39.8634921,16.3961905 38.9768254,13.072381 37.2012698,10.0292063 L37.2012698,10.0292063 Z" id="Shape" sketch:type="MSShapeGroup"></path>
            </g>
        </g>
    </g>
</svg>