<?xml version="1.0" encoding="UTF-8" standalone="no"?>
<svg width="28px" height="11px" viewBox="0 0 28 11" version="1.1" xmlns="http://www.w3.org/2000/svg" xmlns:xlink="http://www.w3.org/1999/xlink" xmlns:sketch="http://www.bohemiancoding.com/sketch/ns">
    <!-- Generator: Sketch 3.3.3 (12072) - http://www.bohemiancoding.com/sketch -->
    <title>category-nav</title>
    <desc>Created with Sketch.</desc>
    <defs></defs>
    <g id="Page-1" stroke="none" stroke-width="1" fill="none" fill-rule="evenodd" sketch:type="MSPage">
        <g id="category-nav" sketch:type="MSArtboardGroup" stroke="#CCC3C0">
            <path d="M19.6720002,10.1855 L15.1640002,5.67750001 L15.1620002,5.67550001 C15.1400002,5.65150001 15.1220002,5.62550001 15.1090002,5.59550001 C15.0970002,5.56550001 15.0900002,5.53350001 15.0900002,5.50050001 L15.0900002,5.49950001 C15.0900002,5.46650001 15.0970002,5.43350001 15.1090002,5.40350001 C15.1220002,5.37250001 15.1400002,5.34450001 15.1640002,5.32150001 L19.6720002,0.81350001 C19.7700002,0.71550001 19.9290002,0.71550001 20.0270002,0.81350001 C20.0760002,0.86250001 20.1010002,0.92650001 20.1010002,0.99050001 C20.1010002,1.05550001 20.0760002,1.11950001 20.0270002,1.16850001 L15.9470002,5.24850001 L26.6650002,5.24850001 C26.8040002,5.24850001 26.9160002,5.36050001 26.9160002,5.49950001 C26.9160002,5.63850001 26.8040002,5.75050001 26.6650002,5.75050001 L15.9470002,5.75050001 L20.0270002,9.83050001 C20.0760002,9.87950001 20.1010002,9.94350001 20.1010002,10.0075 C20.1010002,10.0725 20.0760002,10.1365 20.0270002,10.1855 C19.9290002,10.2835 19.7700002,10.2835 19.6720002,10.1855" id="Next" sketch:type="MSShapeGroup" transform="translate(21.003000, 5.499500) rotate(-180.000000) translate(-21.003000, -5.499500) "></path>
            <path d="M1.16402506,5.678 C1.14001694,5.652 1.12201086,5.626 1.10900646,5.596 C1.0970024,5.566 1.09000003,5.534 1.09000003,5.501 C1.09000003,5.467 1.0970024,5.434 1.10900646,5.404 C1.12201086,5.373 1.14001694,5.345 1.16402506,5.322 L5.67354981,0.814 C5.77158296,0.716 5.93063673,0.716 6.02866988,0.814 C6.07768645,0.863 6.10269491,0.927 6.10269491,0.991 C6.10269491,1.056 6.07768645,1.12 6.02866988,1.169 L1.9472899,5.249 L12.6689151,5.249 C12.8079621,5.249 12.92,5.361 12.92,5.5 C12.92,5.639 12.8079621,5.751 12.6689151,5.751 L1.9472899,5.751 L6.02866988,9.831 C6.07768645,9.88 6.10269491,9.944 6.10269491,10.008 C6.10269491,10.073 6.07768645,10.137 6.02866988,10.186 C5.93063673,10.284 5.77158296,10.284 5.67354981,10.186 L1.16402506,5.678 Z" id="Previous" sketch:type="MSShapeGroup"></path>
        </g>
    </g>
</svg>