<?xml version="1.0" encoding="UTF-8" standalone="no"?>
<svg width="28px" height="12px" viewBox="0 0 28 12" version="1.1" xmlns="http://www.w3.org/2000/svg" xmlns:xlink="http://www.w3.org/1999/xlink" xmlns:sketch="http://www.bohemiancoding.com/sketch/ns">
    <!-- Generator: Sketch 3.4 (15575) - http://www.bohemiancoding.com/sketch -->
    <title>project-nav</title>
    <desc>Created with Sketch.</desc>
    <defs></defs>
    <g id="Page-1" stroke="none" stroke-width="1" fill="none" fill-rule="evenodd" sketch:type="MSPage">
        <g id="project-nav" sketch:type="MSArtboardGroup" stroke="#FFFFFF">
            <path d="M22.4164502,10.6855 L26.9269753,6.17750001 L26.9279756,6.17550001 C26.9499831,6.15150001 26.9679892,6.12550001 26.9809936,6.09550001 C26.9929976,6.06550001 27,6.03350001 27,6.00050001 L27,5.99950001 C27,5.96650001 26.9929976,5.93350001 26.9809936,5.90350001 C26.9679892,5.87250001 26.9499831,5.84450001 26.9269753,5.82150001 L22.4164502,1.31350001 C22.3184171,1.21550001 22.1593633,1.21550001 22.0613302,1.31350001 C22.0123136,1.36250001 21.9873051,1.42650001 21.9873051,1.49050001 C21.9873051,1.55550001 22.0123136,1.61950001 22.0613302,1.66850001 L26.1427101,5.74850001 L15.421085,5.74850001 C15.282038,5.74850001 15.1700001,5.86050001 15.1700001,5.99950001 C15.1700001,6.13850001 15.282038,6.25050001 15.421085,6.25050001 L26.1427101,6.25050001 L22.0613302,10.3305 C22.0123136,10.3795 21.9873051,10.4435 21.9873051,10.5075 C21.9873051,10.5725 22.0123136,10.6365 22.0613302,10.6855 C22.1593633,10.7835 22.3184171,10.7835 22.4164502,10.6855" id="Stroke-59" sketch:type="MSShapeGroup"></path>
            <path d="M5.582,10.6855 L1.073,6.17750001 L1.072,6.17550001 C1.05,6.15150001 1.032,6.12550001 1.019,6.09550001 C1.007,6.06550001 1,6.03350001 1,6.00050001 L1,5.99950001 C1,5.96650001 1.007,5.93350001 1.019,5.90350001 C1.032,5.87250001 1.05,5.84450001 1.073,5.82150001 L5.582,1.31350001 C5.68,1.21550001 5.839,1.21550001 5.937,1.31350001 C5.986,1.36250001 6.011,1.42650001 6.011,1.49050001 C6.011,1.55550001 5.986,1.61950001 5.937,1.66850001 L1.857,5.74850001 L12.575,5.74850001 C12.714,5.74850001 12.826,5.86050001 12.826,5.99950001 C12.826,6.13850001 12.714,6.25050001 12.575,6.25050001 L1.857,6.25050001 L5.937,10.3305 C5.986,10.3795 6.011,10.4435 6.011,10.5075 C6.011,10.5725 5.986,10.6365 5.937,10.6855 C5.839,10.7835 5.68,10.7835 5.582,10.6855" id="Stroke-64" sketch:type="MSShapeGroup"></path>
        </g>
    </g>
</svg>