<svg width="84" height="14" viewBox="0 0 84 14" xmlns="http://www.w3.org/2000/svg"><title>be-social-alt</title><g fill="#CCC3C0" fill-rule="evenodd"><path d="M11.238 3.95c0 .285-.23.516-.516.516h-.674c-.285 0-.516-.23-.516-.515v-.673c0-.286.23-.516.516-.516h.674c.285 0 .516.23.516.517v.674zm0 7.29H2.76V5.755H4.3c-.166.37-.26.777-.26 1.208 0 1.632 1.327 2.96 2.96 2.96 1.63 0 2.96-1.328 2.96-2.96 0-.43-.096-.84-.262-1.208h1.54v5.483zm-5.61-5.484c.336-.38.825-.622 1.37-.622.547 0 1.036.242 1.372.622.284.322.458.745.458 1.208 0 1.008-.82 1.83-1.83 1.83-1.008 0-1.828-.822-1.828-1.83 0-.463.174-.886.46-1.208zm6.1-4.126H2.27c-.354 0-.64.287-.64.64v9.458c0 .355.286.64.64.64h9.458c.354 0 .64-.285.64-.64V2.27c0-.353-.286-.64-.64-.64zM74.827 10.963c0 .78-.633 1.414-1.414 1.414-.78 0-1.413-.634-1.413-1.414 0-.78.633-1.413 1.413-1.413s1.414.633 1.414 1.413M72 5.55v1.954s4.744.133 4.89 5.048h2.09s.246-6.68-6.98-7.002"/><path d="M72 1.784v1.99s7.718-.122 8.577 8.603h1.942S82.74 2.374 72 1.784M31.906 6.53s-.152-.564-.063-.927c.096-.367.215-.88.428-1.216.212-.336.53-.73.822-.927.287-.2.578-.41.894-.5.32-.093.73-.154 1.033-.18.303-.035.773.042.956.073.183.03.563.15.775.273.213.122.454.334.606.5.153.166.38.47.456.685.077.212.153.514.17.744.014.225.04.485 0 .806-.045.318-.153.94-.228 1.185-.076.243-.272.73-.35.865-.076.137-.26.41-.396.53-.134.122-.347.32-.608.408-.258.095-.56.154-.836.077-.272-.077-.575-.27-.667-.453-.09-.18-.21-.533-.15-.774.06-.245.166-.64.287-1.02.12-.38.365-.97.35-1.32-.015-.35-.092-.775-.288-.894-.2-.122-.638-.29-.912-.183-.275.107-.7.454-.836.82-.138.36-.227.713-.182 1.017.044.302.12.683.12.683l.11.276s-.457 1.926-.61 2.548c-.152.623-.318 1.233-.378 1.596-.06.365-.016 1.077-.016 1.077s.182.11.35.155c.167.043.44.134.44.134s.183-.27.35-.637c.167-.365.317-.775.47-1.337.152-.562.32-1.29.32-1.29s.425.58 1.106.697c.684.122.882.107 1.37 0 .486-.106.97-.273 1.44-.776.473-.498.927-.953 1.11-1.745.18-.788.35-1.307.32-1.96-.033-.654-.2-1.324-.397-1.656-.195-.333-.5-.88-.926-1.197-.424-.32-.91-.672-1.547-.838-.638-.168-1.26-.305-1.838-.228-.58.077-1.415.213-1.916.47-.5.258-1.35.868-1.638 1.275-.292.412-.683 1.202-.776 1.748-.092.546-.18 1.625.198 2.184.38.564.38.716.728.927.35.212.533.38.655.077.12-.305.198-.593.198-.593s.03-.257-.047-.3c-.075-.047-.242-.276-.32-.457-.073-.182-.134-.424-.134-.424M47.544 4.92s-.077-1.7.41-2.316c.488-.615 1-1.03 1.8-1.083.8-.047 2.14 0 2.14 0v1.857s-1.21-.08-1.417.153c-.208.23-.332.644-.332.903 0 .253-.026.488-.026.488h1.775v1.904H50.12l-.055 5.81h-2.528v-5.81L46 6.8V4.97l1.544-.05zM27.57 3.252c-.056-.07-.144-.105-.232-.093-.052.007-.12.02-.204.04-.08.016-.176.04-.284.065.04-.094.076-.194.107-.296.05-.17.093-.35.137-.542.022-.096-.014-.196-.092-.255-.08-.06-.185-.067-.27-.02-.39.215-.68.35-.93.44-.213.074-.398.117-.602.146-.24-.227-.508-.4-.796-.52-.325-.133-.673-.2-1.03-.2-.424 0-.86.094-1.288.274-.207.088-.4.217-.574.375-.26.237-.48.54-.64.878-.156.34-.252.712-.252 1.09 0 .04.002.08.004.12l-.02-.006c-.452-.12-1.15-.357-1.84-.666-.285-.126-.678-.378-1.06-.703-.384-.322-.762-.72-1.035-1.134-.04-.063-.11-.103-.183-.112-.074-.007-.15.02-.202.072-.118.118-.22.228-.305.337-.128.163-.224.33-.29.508-.064.18-.097.37-.118.588-.014.147-.023.305-.023.468 0 .36.043.746.198 1.096-.118.014-.21.11-.22.23-.006.093-.01.185-.01.275 0 .812.503 1.472.91 1.93.038.046-.634.087.366.128v.006c0 .016-.244.032-.244.05 0 .308-.043.6.093.856.203.386.465.7.84.928.137.083.25.156.4.217-.628.2-1.16.246-1.587.247-.19 0-.368-.01-.525-.02-.156-.01-.302-.02-.435-.02-.032 0-.065 0-.096.003-.076.004-.145.04-.19.1-.045.06-.06.135-.043.208.073.3.252.574.498.815.372.36.9.66 1.536.873.637.213 1.38.34 2.177.34 1.163 0 2.442-.27 3.663-.933 1.116-.608 2.043-1.604 2.6-2.713.194-.384.404-.88.57-1.408.162-.527.28-1.083.282-1.597 0-.175-.015-.345-.047-.507.14-.1.268-.2.38-.3.227-.198.406-.403.554-.633.148-.23.266-.483.384-.782.034-.083.02-.176-.035-.246M59.75 6.034V4.497c.072-.03.144-.06.216-.088.94-.38 1.554-1.054 1.832-2.026.077-.272.116-.556.173-.834h1.538v2.772h2.583v1.725H63.55c0 1.212-.012 2.4.005 3.585.01.587.27.887.843 1.017.652.148 1.253-.026 1.823-.34.07-.04.143-.077.234-.126 0 .533-.005 1.038.004 1.542.002.137-.05.195-.168.25-.876.415-1.8.573-2.76.5-.596-.047-1.16-.21-1.657-.56-.464-.328-.8-.748-.87-1.332-.03-.233-.047-.468-.048-.702-.005-1.195-.002-2.39-.003-3.585v-.263H59.75z"/></g></svg>