<svg width="14" height="11" viewBox="0 0 14 11" xmlns="http://www.w3.org/2000/svg"><title>back-to</title><path d="M1.164 5.678c-.024-.026-.042-.052-.055-.082-.013-.03-.02-.062-.02-.095s.007-.066.02-.096c.012-.03.03-.06.054-.082L5.674.814c.098-.098.257-.098.355 0 .048.05.073.113.073.177 0 .066-.025.13-.074.18L1.946 5.25H12.67c.138 0 .25.11.25.25s-.112.25-.25.25H1.946L6.03 9.83c.048.05.073.114.073.178 0 .065-.025.13-.074.178-.1.098-.258.098-.356 0l-4.51-4.508z" stroke="#CCC3C0" fill="none" fill-rule="evenodd"/></svg>