<svg width="168" height="24" viewBox="0 0 168 24" xmlns="http://www.w3.org/2000/svg"><title>be-social</title><g fill="#000" fill-rule="evenodd"><path d="M18.272 7.493c0 .42-.342.762-.763.762h-.998c-.42 0-.763-.34-.763-.762v-.998c0-.422.34-.762.762-.762h.997c.42 0 .762.34.762.762v.998zm0 10.78H5.732v-8.11H8.01c-.246.546-.386 1.15-.386 1.786 0 2.413 1.964 4.376 4.378 4.376s4.378-1.963 4.378-4.377c0-.638-.14-1.24-.385-1.788h2.277v8.11zm-8.297-8.11c.496-.562 1.22-.92 2.027-.92.807 0 1.53.358 2.027.92.42.477.678 1.102.678 1.786 0 1.49-1.214 2.705-2.706 2.705S9.296 13.44 9.296 11.95c0-.685.258-1.31.68-1.788zm9.02-6.103H5.01c-.524 0-.948.424-.948.948v13.988c0 .525.424.95.948.95h13.988c.524 0 .948-.425.948-.95V5.008c0-.524-.424-.948-.948-.948zM105.18 17.89c0 1.154-.935 2.09-2.09 2.09-1.154 0-2.09-.936-2.09-2.09s.936-2.09 2.09-2.09c1.155 0 2.09.936 2.09 2.09"/><path d="M101 9.8v2.89s7.016.196 7.234 7.467h3.09S111.688 10.277 101 9.8"/><path d="M101 3.8v2.945s11.415-.182 12.687 12.723h2.872S116.885 4.672 101 3.8M55.005 11.04s-.224-.83-.093-1.368c.14-.543.318-1.304.632-1.8.313-.496.785-1.078 1.215-1.37.424-.294.855-.607 1.32-.74.475-.138 1.082-.228 1.53-.268.45-.05 1.144.063 1.414.11.272.045.834.223 1.147.404.316.18.672.494.896.74.227.245.564.696.675 1.012.114.313.228.76.252 1.1.02.333.06.716 0 1.19-.066.472-.226 1.392-.337 1.754-.113.36-.403 1.08-.517 1.28-.114.202-.384.605-.586.782-.2.182-.514.475-.9.606-.382.14-.827.228-1.236.113-.402-.113-.85-.4-.987-.67-.134-.268-.314-.788-.223-1.145.09-.362.245-.946.425-1.51.177-.56.54-1.433.52-1.95-.025-.518-.138-1.147-.428-1.324-.295-.18-.943-.43-1.35-.27-.406.157-1.033.67-1.236 1.212-.204.533-.336 1.054-.27 1.503.066.448.18 1.012.18 1.012l.16.408s-.674 2.85-.9 3.768c-.227.922-.472 1.825-.56 2.362-.09.54-.024 1.592-.024 1.592s.27.162.517.23c.25.063.654.198.654.198s.268-.4.516-.942c.247-.54.47-1.144.696-1.977.224-.83.473-1.905.473-1.905s.627.855 1.635 1.03c1.01.18 1.304.16 2.025 0 .72-.157 1.435-.405 2.13-1.148.7-.737 1.372-1.41 1.642-2.58.268-1.166.517-1.932.473-2.9-.048-.966-.296-1.957-.586-2.448-.29-.493-.742-1.303-1.372-1.772-.628-.474-1.348-.994-2.288-1.24-.944-.246-1.862-.45-2.72-.335-.856.113-2.09.315-2.83.695-.743.38-2 1.284-2.425 1.886-.43.61-1.01 1.778-1.148 2.585-.135.807-.266 2.403.293 3.23.56.836.56 1.06 1.078 1.373.517.313.788.562.968.113.176-.45.29-.876.29-.876s.045-.382-.068-.445c-.113-.07-.36-.41-.473-.677-.11-.27-.2-.627-.2-.627M81.934 8.81s-.113-2.515.607-3.426c.722-.91 1.482-1.523 2.664-1.602 1.182-.072 3.166 0 3.166 0v2.745s-1.794-.117-2.097.226c-.308.343-.492.953-.492 1.336 0 .373-.038.72-.038.72h2.628v2.816h-2.628l-.08 8.596h-3.74v-8.596l-2.272-.035V8.885l2.284-.073zM45.592 6.322c-.082-.103-.21-.155-.342-.137-.077.012-.175.03-.3.058-.118.026-.262.06-.422.1.06-.14.113-.288.16-.44.074-.25.137-.517.202-.8.033-.14-.02-.29-.137-.377-.117-.088-.273-.1-.4-.028-.576.317-1.004.517-1.376.65-.314.11-.588.172-.89.215-.354-.334-.75-.59-1.176-.766-.48-.2-.995-.297-1.522-.297-.63 0-1.275.14-1.905.405-.307.13-.592.32-.85.555-.386.352-.71.8-.945 1.3-.233.5-.374 1.052-.374 1.612 0 .06.003.117.006.176l-.03-.007c-.67-.177-1.7-.528-2.723-.985-.42-.186-1-.558-1.567-1.04-.568-.476-1.126-1.064-1.53-1.677-.06-.09-.16-.15-.27-.163-.11-.01-.22.028-.298.106-.175.176-.324.338-.452.5-.19.24-.332.486-.427.75-.096.268-.145.55-.176.87-.02.218-.035.45-.035.693 0 .53.066 1.1.294 1.62-.173.02-.312.16-.324.338-.01.14-.014.276-.014.41 0 1.2.37 2.175.97 2.854.06.066-.83.127.17.188v.01c0 .023.012.046.012.07 0 .458.123.888.324 1.27.3.57.782 1.033 1.334 1.37.205.125.42.232.64.322-.93.296-1.693.364-2.323.365-.28 0-.534-.015-.766-.028-.233-.015-.442-.03-.64-.03-.047 0-.093 0-.138.003-.112.005-.212.06-.278.147-.067.09-.09.2-.063.31.11.443.373.847.737 1.204.55.535 1.332.977 2.272 1.29.94.316 2.038.5 3.218.5 1.72 0 3.612-.395 5.42-1.377 1.648-.9 3.02-2.374 3.846-4.014.286-.568.595-1.302.84-2.082.24-.78.417-1.602.418-2.363 0-.257-.02-.507-.07-.747.21-.15.397-.296.565-.444.334-.294.598-.597.817-.938.22-.34.396-.714.57-1.157.05-.12.03-.26-.052-.363M156.87 3.45c-.008 1.34-.01 2.68-.03 4.02-.003.252.144.213.293.213 1.19 0 2.378.01 3.567-.01.31-.004.396.07.386.385-.025.814-.02 1.63-.002 2.446.006.27-.063.35-.34.345-1.19-.017-2.38.002-3.567-.015-.283-.004-.34.086-.338.348.012 1.52.002 3.042.01 4.563.003 1.156.675 1.823 1.843 1.88.842.04 1.614-.153 2.382-.674v2.438c0 .1-.08.135-.16.168-1.784.756-3.61 1.14-5.514.508-1.142-.38-2.082-1.025-2.463-2.254-.165-.535-.154-1.09-.155-1.642-.005-1.618-.02-3.236.01-4.853.007-.417-.12-.51-.506-.483-.48.035-.968-.002-1.45.013-.236.008-.344-.03-.336-.307.02-.76.01-1.52.005-2.28 0-.166.013-.28.208-.342 2.114-.658 3.114-2.197 3.386-4.306.006-.054.02-.108.032-.162h2.74zM135.188 16.162c-.994.003-1.988 0-2.98 0-.984 0-1.968.003-2.95 0-.684 0-1.148-.415-1.15-1.02-.005-.605.46-1.03 1.138-1.03 1.977-.003 3.954-.003 5.93 0 .677 0 1.142.43 1.136 1.035-.006.594-.466 1.013-1.124 1.015m-5.992-8.207c.49-.005.983 0 1.474 0 .492 0 .983-.005 1.475 0 .63.007 1.084.435 1.088 1.018.005.583-.45 1.027-1.073 1.032-.993.006-1.987.006-2.98 0-.624-.005-1.078-.45-1.073-1.033.004-.582.458-1.01 1.09-1.017m9.876 1.966c-.17 0-.34.003-.512 0-.685-.01-1.104-.433-1.138-1.112-.1-1.99-1.06-3.446-2.784-4.413-.632-.354-1.32-.518-2.044-.545h-3.848c-.34.072-.696.04-1.03.16-1.066.382-2 .955-2.68 1.878-.577.782-1.015 1.625-1.002 2.635l.018-.005c.018.117.048.235-.052.334v6.734c.074.117.022.25.042.374.233 1.454 1.007 2.568 2.186 3.404.73.516 1.544.853 2.454.903h6.605c.143-.1.303-.065.46-.055-.004.007-.003.014-.005.02 1.46-.054 2.587-.768 3.51-1.834.69-.8 1.103-1.74 1.166-2.812v-4.618c-.19-.8-.505-1.045-1.345-1.047"/></g></svg>