<svg width="2000" height="16" viewBox="0 0 2000 16" xmlns="http://www.w3.org/2000/svg"><title>fork-handle</title><g fill="#000" fill-rule="evenodd"><path d="M549.493 7.564c-1.52-.056-2.24-.227-3.375-.364-.79.113-1.362.076-2.068-.034-.985.038-2.194.103-3.442.126-.768.013-1.31-.112-2.407-.08-1.738.053-3.605.02-5.416.027-1.22.005-2.443.013-3.65.035-.856.017-1.696.068-2.22-.084-.015-.004-.55.027-.717.075-1.664-.006-3.33-.01-4.99-.022-.64-.005-1.27-.05-1.907-.052-3.396-.004-6.792 0-10.188 0-1.69 0-3.395.016-5.068-.01-1.516-.02-3.01-.115-4.39.055-.054.007-.206.004-.29-.002-2.048-.13-4.038.035-6.062.024-1.49-.008-3.086-.055-4.445.003-2.08.09-4.192-.04-6.06.04-2.015.087-4.042.01-5.997.093-.193.008-.644-.105-1.042-.173-.863.214-2.296.23-4.097.164-.903-.033-2.214.097-2.955.045-1.274-.09-2.3-.02-3.435-.003-1.998.028-4.004.084-5.993.075-1.48-.007-2.838.065-4.274.06-.2 0-.396-.003-.593-.006-1.293-.018-2.59-.058-3.873-.05-1.368.01-2.715.073-4.085.098-1.09.02-2.204.015-3.056.02-.086-.007.1.01.435.038-1.743.017-3.59-.16-4.624.067l-1.84-.057c-1.188-.032-2.374-.07-3.572-.09-.367-.007-1.097.025-1.11.046-.11.17-1.004.123-1.687.134-1.044.017-2.102.022-3.13.05-.768.02-1.414.082-2.2-.024-.303-.04-1.25-.02-1.773.012-1.562.1-3.11.085-4.774.072-2.41-.018-4.842.036-7.268.046-2.303.01-4.618-.01-6.914.01-1.567.016-3.1.092-4.67.116-1.307.02-2.64.004-3.962.004-.244 0-.563-.01-.717.008-1.138.13-2.255.068-3.446-.006l-.054.115c-1.586.01-3.183.02-4.78.028-2.415.014-4.834.017-7.24.045-1.87.02-3.716.09-5.587.106-1.042.01-2.115-.057-3.175-.057-1.092 0-2.18.05-3.28.06-3.292.024-6.588.043-9.883.057-2.78.01-5.562.01-8.344.016-1.78.004-3.674.07-5.32.006-2.705-.106-5.488.083-8.086-.09-1.02.128-2.048.005-3.107.005l.434.075c-.094.005-.187.014-.273.013-1.53-.02-3.057-.055-4.586-.057-.99 0-2-.115-3.056.004-.114.014-.997-.108-1.455-.16-.07.376-2.215.093-3.287.115-2.573.054-5.238.024-7.865.023-1.82 0-3.642-.01-5.463-.01-.654 0-1.325.044-1.952.032-.68-.013-1.32-.068-1.68-.09-.895.013-1.652 0-2.288.035-1.32.07-2.593-.024-4.01.017-2.39.068-5.004.026-7.475-.02-1.576-.03-2.967.078-4.56.035-1.596-.043-3.308.007-4.968.004-.756 0-1.513-.05-2.26-.045-1.02.007-2.02.062-3.04.067-1.37.005-2.747-.017-4.12-.028-.29-.002-.586-.013-.87-.01-1.027.02-2.048.05-3.08.06-1.258.012-2.525.017-3.786.012-.5-.002-.992-.042-1.103-.047l-12.228-.006-.39-.18c-.443.158-2.613.286-3.976.275-4.05-.033-8.1-.068-12.152-.08-3.107-.01-6.22.016-9.33.024-.177 0-.352-.013-.538-.05l2.016-.054-.032-.024-4.405.026 1.18-.07c-.943.002-2.098-.116-2.653.09-.077.03-.46.056-.71.058-1.727.014-3.457.027-5.187.03-1.287 0-2.575-.016-3.864-.02-.724-.004-1.49-.023-2.165.002-1.97.075-3.783.02-5.523-.103-.947.21-1.418.216-1.948.082-1 .005-1.824.014-2.648.015-2.835.003-5.67.01-8.505.004-2.864-.006-5.723-.03-8.583-.05-.122 0-.292-.033-.347-.03-1.91.15-3.945.05-5.918.06-.566.003-1.14-.032-1.874-.005l-1.13-.18c-1.017.14-2.097.27-3.533.09-1.144.118-2.39.044-3.594.035-.266-.002-.52-.042-.776-.064l.096-.088c-.847.04-1.694.083-2.54.124l.13.052-2.315.014-1.232-.15c-.084.01-.167.022-.25.033l.834.142c-2.468-.008-4.667-.01-6.862-.023-1.508-.01-2.914-.037-4.457.06-1.076.067-2.597-.002-3.913-.02-.07 0-.114-.034-.12-.045-1.194.012-2.258.03-3.32.032-3.065.003-6.13.005-9.19-.008-1.18-.006-2.345-.06-3.527-.074-.363-.005-.748.054-1.147.063-.547.01-1.16.023-1.67 0-.59-.026-1.094-.09-1.662-.14-.322.21-1.51.12-2.304.148-.602.02-1.306.025-1.893 0-.542-.02-.99-.09-1.587-.148-.043.01-.246.063-.466.12-1.06-.003-2.14-.31-3.103-.046l-3.268.048c-1.34.02-2.58-.062-3.864-.078-.97-.012-1.977.04-3.102.067-1.074-.17-2.58-.072-3.864-.02-1.694.066-3.1.012-4.54-.093-.554-.04-1.14-.073-1.31-.083-.37.088-.573.193-.884.2-.846.02-1.737-.003-2.73-.01l.767-.088c-1.068.016-2.005.03-3.194.05l-1.686-.01c-1.186 0-2.377-.012-3.557-.002-2.564.02-5.123.073-7.687.077-3.773.008-7.547-.02-11.322-.024-1.296-.002-2.742.077-3.854.02-1.396-.074-2.603-.024-3.905-.02-1.447.007-2.9-.012-4.348-.013-1.59 0-3.185.014-4.777.013-2.818-.002-5.635-.013-8.454-.016-1.3 0-2.6.006-3.898.015-2.59.018-5.203.08-7.76.047-2.122-.027-4.164.01-6.243.022l-7.827.047c.176-.044.294-.062.314-.082.046-.047.046-.095.066-.143-.365.01-.784.008-1.08.033-.412.036-.712.13-1.096.134-3.246.033-6.503.067-9.755.065-1.09 0-2.183-.026-3.277.003-.05 0-.116.006-.147.003-1.658-.153-3.207.035-4.808.03-2.865-.01-5.724-.04-8.587-.048-2.228-.007-4.41-.06-6.696-.01-2.784.06-5.656.04-8.49.05-2.12.005-4.24-.002-6.36-.003-2.712-.002-5.425.006-8.13-.012-.884-.006-1.743-.08-2.67-.126l-.2.13c-1.01.006-1.964.01-2.945.017v2.225h.917c5.646-.007 11.292-.01 16.938-.023 4.757-.01 9.513-.045 14.27-.046 2.55 0 5.1.05 7.65.068 3.15.024 6.302.044 9.455.057 2.752.012 5.508.005 8.26.017 4.097.017 8.19.052 12.288.066 2.953.01 5.91-.01 8.862 0 2.395.01 4.784.047 7.178.064 3.257.022 6.516.036 9.774.056 1.707.01 3.412.032 5.12.037 4.643.01 9.288.01 13.93.024 2.707.008 5.41.04 8.114.048 2.158.006 4.32-.013 6.48-.014 3.202 0 6.406.01 9.608.008 2.277-.002 4.557-.027 6.834-.024 2.765.003 5.53.026 8.295.037 4.203.016 8.408.042 12.61.042 3.297 0 6.593-.043 9.892-.05 2.944-.006 5.89.013 8.835.017 2.184 0 4.37-.005 6.555-.003.95 0 1.902.01 2.85.02 3 .028 5.994.074 8.995.082 4.266.01 8.536-.01 12.805-.01 3.91.002 7.816.017 11.724.023 3.502.005 7.006-.002 10.51.01 3.17.012 6.336.05 9.507.062 3.746.015 7.496.02 11.244.018 4.158-.003 8.312-.023 12.47-.027 3.205-.003 6.414.02 9.617.008 3.558-.012 7.11-.067 10.667-.07 3.58-.005 7.162.037 10.745.046 1.798.004 3.6-.024 5.4-.03 3.69-.01 7.38-.006 11.072-.02 3.696-.015 7.39-.05 11.086-.067 4.484-.022 8.97-.04 13.455-.055 2.263-.008 4.53-.006 6.795-.012 3.992-.01 7.985-.027 11.978-.03 3.797-.004 7.593.01 11.39.008 3.045 0 6.087-.02 9.13-.02 3.864.004 7.726.037 11.587.03 5.36-.012 10.717-.052 16.076-.072 4.815-.02 9.634-.022 14.447-.04 1.995-.008 3.984-.042 5.98-.054 2.7-.017 5.405-.022 8.107-.038 2.652-.016 5.304-.035 7.95-.064 1.374-.014 2.73-.07 4.1-.076 4.077-.017 8.16-.006 12.237-.03 2.113-.01 4.204-.084 6.315-.107 5.113-.058 10.23-.12 15.354-.148 3.986-.022 7.984.015 11.976.006 1.885-.003 3.76-.063 5.647-.083 1.64-.018 3.293-.01 4.935-.023 5.05-.043 10.096-.095 15.146-.136 2.834-.023 5.688-.014 8.51-.05 5.757-.078 11.497-.18 17.248-.267 5.12-.076 10.24-.15 15.366-.218 2.848-.038 5.71-.054 8.562-.088 3.932-.047 7.877-.083 11.78-.16 2.842-.058 5.74-.13 8.403-.274 2.93-.158 5.65-.396 8.396-.616v-.95z"/><path d="M143.103 8.345h.014c-.012-.008-.016-.006-.014 0M1058.493 6.564c-1.52-.056-2.24-.227-3.375-.364-.79.113-1.362.076-2.068-.034-.985.038-2.194.103-3.442.126-.768.013-1.31-.112-2.407-.08-1.738.053-3.605.02-5.416.027-1.22.005-2.443.013-3.65.035-.856.017-1.696.068-2.22-.084-.015-.004-.55.027-.717.075-1.664-.006-3.33-.01-4.99-.022-.64-.005-1.27-.05-1.907-.052-3.396-.004-6.792 0-10.188 0-1.69 0-3.395.016-5.068-.01-1.516-.02-3.01-.115-4.39.055-.054.007-.206.004-.29-.002-2.048-.13-4.038.035-6.062.024-1.49-.008-3.086-.055-4.445.003-2.08.09-4.192-.04-6.06.04-2.015.087-4.042.01-5.997.093-.193.008-.644-.105-1.042-.173-.863.214-2.296.23-4.097.164-.903-.033-2.214.097-2.955.045-1.274-.09-2.3-.02-3.435-.003-1.998.028-4.004.084-5.993.075-1.48-.007-2.838.065-4.274.06-.2 0-.396-.003-.593-.006-1.293-.018-2.59-.058-3.873-.05-1.368.01-2.715.073-4.085.098-1.09.02-2.204.015-3.056.02-.086-.007.1.01.435.038-1.743.017-3.59-.16-4.624.067l-1.84-.057c-1.188-.032-2.374-.07-3.572-.09-.367-.007-1.097.025-1.11.046-.11.17-1.004.123-1.687.134-1.044.017-2.102.022-3.13.05-.768.02-1.414.082-2.2-.024-.303-.04-1.25-.02-1.773.012-1.562.1-3.11.085-4.774.072-2.41-.018-4.842.036-7.268.046-2.303.01-4.618-.01-6.914.01-1.567.016-3.1.092-4.67.116-1.307.02-2.64.004-3.962.004-.244 0-.563-.01-.717.008-1.138.13-2.255.068-3.446-.006l-.054.115c-1.586.01-3.183.02-4.78.028-2.415.014-4.834.017-7.24.045-1.87.02-3.716.09-5.587.106-1.042.01-2.115-.057-3.175-.057-1.092 0-2.18.05-3.28.06-3.292.024-6.588.043-9.883.057-2.78.01-5.562.01-8.344.016-1.78.004-3.674.07-5.32.006-2.705-.106-5.488.083-8.086-.09-1.02.128-2.048.005-3.107.005l.434.075c-.094.005-.187.014-.273.013-1.53-.02-3.057-.055-4.586-.057-.99 0-2-.115-3.056.004-.114.014-.997-.108-1.455-.16-.07.376-2.215.093-3.287.115-2.573.054-5.238.024-7.865.023-1.82 0-3.642-.01-5.463-.01-.654 0-1.325.044-1.952.032-.68-.013-1.32-.068-1.68-.09-.895.013-1.652 0-2.288.035-1.32.07-2.593-.024-4.01.017-2.39.068-5.004.026-7.475-.02-1.576-.03-2.967.078-4.56.035-1.596-.043-3.308.007-4.968.004-.756 0-1.513-.05-2.26-.045-1.02.007-2.02.062-3.04.067-1.37.005-2.747-.017-4.12-.028-.29-.002-.586-.013-.87-.01-1.027.02-2.048.05-3.08.06-1.258.012-2.525.017-3.786.012-.5-.002-.992-.042-1.103-.047l-12.228-.006-.39-.18c-.443.158-2.613.286-3.976.275-4.05-.033-8.1-.068-12.152-.08-3.107-.01-6.22.016-9.33.024-.177 0-.352-.013-.538-.05l2.016-.054-.032-.024-4.405.026 1.18-.07c-.943.002-2.098-.116-2.653.09-.077.03-.46.056-.71.058-1.727.014-3.457.027-5.187.03-1.287 0-2.575-.016-3.864-.02-.724-.004-1.49-.023-2.165.002-1.97.075-3.783.02-5.523-.103-.947.21-1.418.216-1.948.082-1 .005-1.824.014-2.648.015-2.835.003-5.67.01-8.505.004-2.864-.006-5.723-.03-8.583-.05-.122 0-.292-.033-.347-.03-1.91.15-3.945.05-5.918.06-.566.003-1.14-.032-1.874-.005l-1.13-.18c-1.017.14-2.097.27-3.533.09-1.144.118-2.39.044-3.594.035-.266-.002-.52-.042-.776-.064l.096-.088c-.847.04-1.694.083-2.54.124l.13.052-2.315.014-1.232-.15c-.084.01-.167.022-.25.033l.834.142c-2.468-.008-4.667-.01-6.862-.023-1.508-.01-2.914-.037-4.457.06-1.076.067-2.597-.002-3.913-.02-.07 0-.114-.034-.12-.045-1.194.012-2.258.03-3.32.032-3.065.003-6.13.005-9.19-.008-1.18-.006-2.345-.06-3.527-.074-.363-.005-.748.054-1.147.063-.547.01-1.16.023-1.67 0-.59-.026-1.094-.09-1.662-.14-.322.21-1.51.12-2.304.148-.602.02-1.306.025-1.893 0-.542-.02-.99-.09-1.587-.148-.043.01-.246.063-.466.12-1.06-.003-2.14-.31-3.103-.046l-3.268.048c-1.34.02-2.58-.062-3.864-.078-.97-.012-1.977.04-3.102.067-1.074-.17-2.58-.072-3.864-.02-1.694.066-3.1.012-4.54-.093-.554-.04-1.14-.073-1.31-.083-.37.088-.573.193-.884.2-.846.02-1.737-.003-2.73-.01l.767-.088c-1.068.016-2.005.03-3.194.05l-1.686-.01c-1.186 0-2.377-.012-3.557-.002-2.564.02-5.123.073-7.687.077-3.773.008-7.547-.02-11.322-.024-1.296-.002-2.742.077-3.854.02-1.396-.074-2.603-.024-3.905-.02-1.447.007-2.9-.012-4.348-.013-1.59 0-3.185.014-4.777.013-2.818-.002-5.635-.013-8.454-.016-1.3 0-2.6.006-3.898.015-2.59.018-5.203.08-7.76.047-2.122-.027-4.164.01-6.243.022l-7.827.047c.176-.044.294-.062.314-.082.046-.047.046-.095.066-.143-.365.01-.784.008-1.08.033-.412.036-.712.13-1.096.134-3.246.033-6.503.067-9.755.065-1.09 0-2.183-.026-3.277.003-.05 0-.116.006-.147.003-1.658-.153-3.207.035-4.808.03-2.865-.01-5.724-.04-8.587-.048-2.228-.007-4.41-.06-6.696-.01-2.784.06-5.656.04-8.49.05-2.12.005-4.24-.002-6.36-.003-2.712-.002-5.425.006-8.13-.012-.884-.006-1.743-.08-2.67-.126l-.2.13c-1.01.006-1.964.01-2.945.017v2.225h.917c5.646-.007 11.292-.01 16.938-.023 4.757-.01 9.513-.045 14.27-.046 2.55 0 5.1.05 7.65.068 3.15.024 6.302.044 9.455.057 2.752.012 5.508.005 8.26.017 4.097.017 8.19.052 12.288.066 2.953.01 5.91-.01 8.862 0 2.395.01 4.784.047 7.178.064 3.257.022 6.516.036 9.774.056 1.707.01 3.412.032 5.12.037 4.643.01 9.288.01 13.93.024 2.707.008 5.41.04 8.114.048 2.158.006 4.32-.013 6.48-.014 3.202 0 6.406.01 9.608.008 2.277-.002 4.557-.027 6.834-.024 2.765.003 5.53.026 8.295.037 4.203.016 8.408.042 12.61.042 3.297 0 6.593-.043 9.892-.05 2.944-.006 5.89.013 8.835.017 2.184 0 4.37-.005 6.555-.003.95 0 1.902.01 2.85.02 3 .028 5.994.074 8.995.082 4.266.01 8.536-.01 12.805-.01 3.91.002 7.816.017 11.724.023 3.502.005 7.006-.002 10.51.01 3.17.012 6.336.05 9.507.062 3.746.015 7.496.02 11.244.018 4.158-.003 8.312-.023 12.47-.027 3.205-.003 6.414.02 9.617.008 3.558-.012 7.11-.067 10.667-.07 3.58-.005 7.162.037 10.745.046 1.798.004 3.6-.024 5.4-.03 3.69-.01 7.38-.006 11.072-.02 3.696-.015 7.39-.05 11.086-.067 4.484-.022 8.97-.04 13.455-.055 2.263-.008 4.53-.006 6.795-.012 3.992-.01 7.985-.027 11.978-.03 3.797-.004 7.593.01 11.39.008 3.045 0 6.087-.02 9.13-.02 3.864.004 7.726.037 11.587.03 5.36-.012 10.717-.052 16.076-.072 4.815-.02 9.634-.022 14.447-.04 1.995-.008 3.984-.042 5.98-.054 2.7-.017 5.405-.022 8.107-.038 2.652-.016 5.304-.035 7.95-.064 1.374-.014 2.73-.07 4.1-.076 4.077-.017 8.16-.006 12.237-.03 2.113-.01 4.204-.084 6.315-.107 5.113-.058 10.23-.12 15.354-.148 3.986-.022 7.984.015 11.976.006 1.885-.003 3.76-.063 5.647-.083 1.64-.018 3.293-.01 4.935-.023 5.05-.043 10.096-.095 15.146-.136 2.834-.023 5.688-.014 8.51-.05 5.757-.078 11.497-.18 17.248-.267 5.12-.076 10.24-.15 15.366-.218 2.848-.038 5.71-.054 8.562-.088 3.932-.047 7.877-.083 11.78-.16 2.842-.058 5.74-.13 8.403-.274 2.93-.158 5.65-.396 8.396-.616v-.95z"/><path d="M652.103 7.345h.014c-.012-.007-.016-.005-.014 0"/><g><path d="M1592.493 5.564c-1.52-.056-2.24-.227-3.375-.364-.79.113-1.362.076-2.068-.034-.985.038-2.194.103-3.442.126-.768.013-1.31-.112-2.407-.08-1.738.053-3.605.02-5.416.027-1.22.005-2.443.013-3.65.035-.856.017-1.696.068-2.22-.084-.015-.004-.55.027-.717.075-1.664-.006-3.33-.01-4.99-.022-.64-.005-1.27-.05-1.907-.052-3.396-.004-6.792 0-10.188 0-1.69 0-3.395.016-5.068-.01-1.516-.02-3.01-.115-4.39.055-.054.007-.206.004-.29-.002-2.048-.13-4.038.035-6.062.024-1.49-.008-3.086-.055-4.445.003-2.08.09-4.192-.04-6.06.04-2.015.087-4.042.01-5.997.093-.193.008-.644-.105-1.042-.173-.863.214-2.296.23-4.097.164-.903-.033-2.214.097-2.955.045-1.274-.09-2.3-.02-3.435-.003-1.998.028-4.004.084-5.993.075-1.48-.007-2.838.065-4.274.06-.2 0-.396-.003-.593-.006-1.293-.018-2.59-.058-3.873-.05-1.368.01-2.715.073-4.085.098-1.09.02-2.204.015-3.056.02-.086-.007.1.01.435.038-1.743.017-3.59-.16-4.624.067l-1.84-.057c-1.188-.032-2.374-.07-3.572-.09-.367-.007-1.097.025-1.11.046-.11.17-1.004.123-1.687.134-1.044.017-2.102.022-3.13.05-.768.02-1.414.082-2.2-.024-.303-.04-1.25-.02-1.773.012-1.562.1-3.11.085-4.774.072-2.41-.018-4.842.036-7.268.046-2.303.01-4.618-.01-6.914.01-1.567.016-3.1.092-4.67.116-1.307.02-2.64.004-3.962.004-.244 0-.563-.01-.717.008-1.138.13-2.255.068-3.446-.006l-.054.115c-1.586.01-3.183.02-4.78.028-2.415.014-4.834.017-7.24.045-1.87.02-3.716.09-5.587.106-1.042.01-2.115-.057-3.175-.057-1.092 0-2.18.05-3.28.06-3.292.024-6.588.043-9.883.057-2.78.01-5.562.01-8.344.016-1.78.004-3.674.07-5.32.006-2.705-.106-5.488.083-8.086-.09-1.02.128-2.048.005-3.107.005l.434.075c-.094.005-.187.014-.273.013-1.53-.02-3.057-.055-4.586-.057-.99 0-2-.115-3.056.004-.114.014-.997-.108-1.455-.16-.07.376-2.215.093-3.287.115-2.573.054-5.238.024-7.865.023-1.82 0-3.642-.01-5.463-.01-.654 0-1.325.044-1.952.032-.68-.013-1.32-.068-1.68-.09-.895.013-1.652 0-2.288.035-1.32.07-2.593-.024-4.01.017-2.39.068-5.004.026-7.475-.02-1.576-.03-2.967.078-4.56.035-1.596-.043-3.308.007-4.968.004-.756 0-1.513-.05-2.26-.045-1.02.007-2.02.062-3.04.067-1.37.005-2.747-.017-4.12-.028-.29-.002-.586-.013-.87-.01-1.027.02-2.048.05-3.08.06-1.258.012-2.525.017-3.786.012-.5-.002-.992-.042-1.103-.047l-12.228-.006-.39-.18c-.443.158-2.613.286-3.976.275-4.05-.033-8.1-.068-12.152-.08-3.107-.01-6.22.016-9.33.024-.177 0-.352-.013-.538-.05l2.016-.054-.032-.024-4.405.026 1.18-.07c-.943.002-2.098-.116-2.653.09-.077.03-.46.056-.71.058-1.727.014-3.457.027-5.187.03-1.287 0-2.575-.016-3.864-.02-.724-.004-1.49-.023-2.165.002-1.97.075-3.783.02-5.523-.103-.947.21-1.418.216-1.948.082-1 .005-1.824.014-2.648.015-2.835.003-5.67.01-8.505.004-2.864-.006-5.723-.03-8.583-.05-.122 0-.292-.033-.347-.03-1.91.15-3.945.05-5.918.06-.566.003-1.14-.032-1.874-.005l-1.13-.18c-1.017.14-2.097.27-3.533.09-1.144.118-2.39.044-3.594.035-.266-.002-.52-.042-.776-.064l.096-.088c-.847.04-1.694.083-2.54.124l.13.052-2.315.014-1.232-.15c-.084.01-.167.022-.25.033l.834.142c-2.468-.008-4.667-.01-6.862-.023-1.508-.01-2.914-.037-4.457.06-1.076.067-2.597-.002-3.913-.02-.07 0-.114-.034-.12-.045-1.194.012-2.258.03-3.32.032-3.065.003-6.13.005-9.19-.008-1.18-.006-2.345-.06-3.527-.074-.363-.005-.748.054-1.147.063-.547.01-1.16.023-1.67 0-.59-.026-1.094-.09-1.662-.14-.322.21-1.51.12-2.304.148-.602.02-1.306.025-1.893 0-.542-.02-.99-.09-1.587-.148-.043.01-.246.063-.466.12-1.06-.003-2.14-.31-3.103-.046l-3.268.048c-1.34.02-2.58-.062-3.864-.078-.97-.012-1.977.04-3.102.067-1.074-.17-2.58-.072-3.864-.02-1.694.066-3.1.012-4.54-.093-.554-.04-1.14-.073-1.31-.083-.37.088-.573.193-.884.2-.846.02-1.737-.003-2.73-.01l.767-.088c-1.068.016-2.005.03-3.194.05l-1.686-.01c-1.186 0-2.377-.012-3.557-.002-2.564.02-5.123.073-7.687.077-3.773.008-7.547-.02-11.322-.024-1.296-.002-2.742.077-3.854.02-1.396-.074-2.603-.024-3.905-.02-1.447.007-2.9-.012-4.348-.013-1.59 0-3.185.014-4.777.013-2.818-.002-5.635-.013-8.454-.016-1.3 0-2.6.006-3.898.015-2.59.018-5.203.08-7.76.047-2.122-.027-4.164.01-6.243.022l-7.827.047c.176-.044.294-.062.314-.082.046-.047.046-.095.066-.143-.365.01-.784.008-1.08.033-.412.036-.712.13-1.096.134-3.246.033-6.503.067-9.755.065-1.09 0-2.183-.026-3.277.003-.05 0-.116.006-.147.003-1.658-.153-3.207.035-4.808.03-2.865-.01-5.724-.04-8.587-.048-2.228-.007-4.41-.06-6.696-.01-2.784.06-5.656.04-8.49.05-2.12.005-4.24-.002-6.36-.003-2.712-.002-5.425.006-8.13-.012-.884-.006-1.743-.08-2.67-.126l-.2.13c-1.01.006-1.964.01-2.945.017v2.225h.917c5.646-.007 11.292-.01 16.938-.023 4.757-.01 9.513-.045 14.27-.046 2.55 0 5.1.05 7.65.068 3.15.024 6.302.044 9.455.057 2.752.012 5.508.005 8.26.017 4.097.017 8.19.052 12.288.066 2.953.01 5.91-.01 8.862 0 2.395.01 4.784.047 7.178.064 3.257.022 6.516.036 9.774.056 1.707.01 3.412.032 5.12.037 4.643.01 9.288.01 13.93.024 2.707.008 5.41.04 8.114.048 2.158.006 4.32-.013 6.48-.014 3.202 0 6.406.01 9.608.008 2.277-.002 4.557-.027 6.834-.024 2.765.003 5.53.026 8.295.037 4.203.016 8.408.042 12.61.042 3.297 0 6.593-.043 9.892-.05 2.944-.006 5.89.013 8.835.017 2.184 0 4.37-.005 6.555-.003.95 0 1.902.01 2.85.02 3 .028 5.994.074 8.995.082 4.266.01 8.536-.01 12.805-.01 3.91.002 7.816.017 11.724.023 3.502.005 7.006-.002 10.51.01 3.17.012 6.336.05 9.507.062 3.746.015 7.496.02 11.244.018 4.158-.003 8.312-.023 12.47-.027 3.205-.003 6.414.02 9.617.008 3.558-.012 7.11-.067 10.667-.07 3.58-.005 7.162.037 10.745.046 1.798.004 3.6-.024 5.4-.03 3.69-.01 7.38-.006 11.072-.02 3.696-.015 7.39-.05 11.086-.067 4.484-.022 8.97-.04 13.455-.055 2.263-.008 4.53-.006 6.795-.012 3.992-.01 7.985-.027 11.978-.03 3.797-.004 7.593.01 11.39.008 3.045 0 6.087-.02 9.13-.02 3.864.004 7.726.037 11.587.03 5.36-.012 10.717-.052 16.076-.072 4.815-.02 9.634-.022 14.447-.04 1.995-.008 3.984-.042 5.98-.054 2.7-.017 5.405-.022 8.107-.038 2.652-.016 5.304-.035 7.95-.064 1.374-.014 2.73-.07 4.1-.076 4.077-.017 8.16-.006 12.237-.03 2.113-.01 4.204-.084 6.315-.107 5.113-.058 10.23-.12 15.354-.148 3.986-.022 7.984.015 11.976.006 1.885-.003 3.76-.063 5.647-.083 1.64-.018 3.293-.01 4.935-.023 5.05-.043 10.096-.095 15.146-.136 2.834-.023 5.688-.014 8.51-.05 5.757-.078 11.497-.18 17.248-.267 5.12-.076 10.24-.15 15.366-.218 2.848-.038 5.71-.054 8.562-.088 3.932-.047 7.877-.083 11.78-.16 2.842-.058 5.74-.13 8.403-.274 2.93-.158 5.65-.396 8.396-.616v-.95z"/><path d="M1186.103 6.345h.014c-.012-.007-.016-.005-.014 0"/></g><g><path d="M1405.507 8.436c1.52.056 2.24.227 3.375.364.79-.113 1.362-.076 2.068.034.985-.038 2.194-.103 3.442-.126.768-.013 1.31.112 2.407.08 1.738-.053 3.605-.02 5.416-.027 1.22-.005 2.443-.013 3.65-.035.856-.017 1.696-.068 2.22.084.015.004.55-.027.717-.075 1.664.006 3.33.01 4.99.022.64.005 1.27.05 1.907.052 3.396.004 6.792 0 10.188 0 1.69 0 3.395-.016 5.068.01 1.516.02 3.01.115 4.39-.055.054-.007.206-.004.29.002 2.048.13 4.038-.035 6.062-.024 1.49.008 3.086.055 4.445-.003 2.08-.09 4.192.04 6.06-.04 2.015-.087 4.042-.01 5.997-.093.193-.008.644.105 1.042.173.863-.214 2.296-.23 4.097-.164.903.033 2.214-.097 2.955-.045 1.274.09 2.3.02 3.435.003 1.998-.028 4.004-.084 5.993-.075 1.48.007 2.838-.065 4.274-.06.2 0 .396.003.593.006 1.293.018 2.59.058 3.873.05 1.368-.01 2.715-.073 4.085-.098 1.09-.02 2.204-.015 3.056-.02.086.007-.1-.01-.435-.038 1.743-.017 3.59.16 4.624-.067l1.84.057c1.188.032 2.374.07 3.572.09.367.007 1.097-.025 1.11-.046.11-.17 1.004-.123 1.687-.134 1.044-.017 2.102-.022 3.13-.05.768-.02 1.414-.082 2.2.024.303.04 1.25.02 1.773-.012 1.562-.1 3.11-.085 4.774-.072 2.41.018 4.842-.036 7.268-.046 2.303-.01 4.618.01 6.914-.01 1.567-.016 3.1-.092 4.67-.116 1.307-.02 2.64-.004 3.962-.004.244 0 .563.01.717-.008 1.138-.13 2.255-.068 3.446.006l.054-.115c1.586-.01 3.183-.02 4.78-.028 2.415-.014 4.834-.017 7.24-.045 1.87-.02 3.716-.09 5.587-.106 1.042-.01 2.115.057 3.175.057 1.092 0 2.18-.05 3.28-.06 3.292-.024 6.588-.043 9.883-.057 2.78-.01 5.562-.01 8.344-.016 1.78-.004 3.674-.07 5.32-.006 2.705.106 5.488-.083 8.086.09 1.02-.128 2.048-.005 3.107-.005l-.434-.075c.094-.005.187-.014.273-.013 1.53.02 3.057.055 4.586.057.99 0 2 .115 3.056-.004.114-.014.997.108 1.455.16.07-.376 2.215-.093 3.287-.115 2.573-.054 5.238-.024 7.865-.023 1.82 0 3.642.01 5.463.01.654 0 1.325-.044 1.952-.032.68.013 1.32.068 1.68.09.895-.013 1.652 0 2.288-.035 1.32-.07 2.593.024 4.01-.017 2.39-.068 5.004-.026 7.475.02 1.576.03 2.967-.078 4.56-.035 1.596.043 3.308-.007 4.968-.004.756 0 1.513.05 2.26.045 1.02-.007 2.02-.062 3.04-.067 1.37-.005 2.747.017 4.12.028.29.002.586.013.87.01 1.027-.02 2.048-.05 3.08-.06 1.258-.012 2.525-.017 3.786-.012.5.002.992.042 1.103.047l12.228.006.39.18c.443-.158 2.613-.286 3.976-.275 4.05.033 8.1.068 12.152.08 3.107.01 6.22-.016 9.33-.024.177 0 .352.013.538.05l-2.016.054.032.024 4.405-.026-1.18.07c.943-.002 2.098.116 2.653-.09.077-.03.46-.056.71-.058 1.727-.014 3.457-.027 5.187-.03 1.287 0 2.575.016 3.864.02.724.004 1.49.023 2.165-.002 1.97-.075 3.783-.02 5.523.103.947-.21 1.418-.216 1.948-.082 1-.005 1.824-.014 2.648-.015 2.835-.003 5.67-.01 8.505-.004 2.864.006 5.723.03 8.583.05.122 0 .292.033.347.03 1.91-.15 3.945-.05 5.918-.06.566-.003 1.14.032 1.874.005l1.13.18c1.017-.14 2.097-.27 3.533-.09 1.144-.118 2.39-.044 3.594-.035.266.002.52.042.776.064l-.096.088c.847-.04 1.694-.083 2.54-.124l-.13-.052 2.315-.014 1.232.15c.084-.01.167-.022.25-.033l-.834-.142c2.468.008 4.667.01 6.862.023 1.508.01 2.914.037 4.457-.06 1.076-.067 2.597.002 3.913.02.07 0 .114.034.12.045 1.194-.012 2.258-.03 3.32-.032 3.065-.003 6.13-.005 9.19.008 1.18.006 2.345.06 3.527.074.363.005.748-.054 1.147-.063.547-.01 1.16-.023 1.67 0 .59.026 1.094.09 1.662.14.322-.21 1.51-.12 2.304-.148.602-.02 1.306-.025 1.893 0 .542.02.99.09 1.587.148.043-.01.246-.063.466-.12 1.06.003 2.14.31 3.103.046l3.268-.048c1.34-.02 2.58.062 3.864.078.97.012 1.977-.04 3.102-.067 1.074.17 2.58.072 3.864.02 1.694-.066 3.1-.012 4.54.093.554.04 1.14.073 1.31.083.37-.088.573-.193.884-.2.846-.02 1.737.003 2.73.01l-.767.088c1.068-.016 2.005-.03 3.194-.05l1.686.01c1.186 0 2.377.012 3.557.002 2.564-.02 5.123-.073 7.687-.077 3.773-.008 7.547.02 11.322.024 1.296.002 2.742-.077 3.854-.02 1.396.074 2.603.024 3.905.02 1.447-.007 2.9.012 4.348.013 1.59 0 3.185-.014 4.777-.013 2.818.002 5.635.013 8.454.016 1.3 0 2.6-.006 3.898-.015 2.59-.018 5.203-.08 7.76-.047 2.122.027 4.164-.01 6.243-.022l7.827-.047c-.176.044-.294.062-.314.082-.046.047-.046.095-.066.143.365-.01.784-.008 1.08-.033.412-.036.712-.13 1.096-.134 3.246-.033 6.503-.067 9.755-.065 1.09 0 2.183.026 3.277-.003.05 0 .116-.006.147-.003 1.658.153 3.207-.035 4.808-.03 2.865.01 5.724.04 8.587.048 2.228.007 4.41.06 6.696.01 2.784-.06 5.656-.04 8.49-.05 2.12-.005 4.24.002 6.36.003 2.712.002 5.425-.006 8.13.012.884.006 1.743.08 2.67.126l.2-.13c1.01-.006 1.964-.01 2.945-.017V5.294h-.917c-5.646.007-11.292.01-16.938.023-4.757.01-9.513.045-14.27.046-2.55 0-5.1-.05-7.65-.068-3.15-.024-6.302-.044-9.455-.057-2.752-.012-5.508-.005-8.26-.017-4.097-.017-8.19-.052-12.288-.066-2.953-.01-5.91.01-8.862 0-2.395-.01-4.784-.047-7.178-.064-3.257-.022-6.516-.036-9.774-.056-1.707-.01-3.412-.032-5.12-.037-4.643-.01-9.288-.01-13.93-.024-2.707-.008-5.41-.04-8.114-.048-2.158-.006-4.32.013-6.48.014-3.202 0-6.406-.01-9.608-.008-2.277.002-4.557.027-6.834.024-2.765-.003-5.53-.026-8.295-.037-4.203-.016-8.408-.042-12.61-.042-3.297 0-6.593.043-9.892.05-2.944.006-5.89-.013-8.835-.017-2.184 0-4.37.005-6.555.003-.95 0-1.902-.01-2.85-.02-3-.028-5.994-.074-8.995-.082-4.266-.01-8.536.01-12.805.01-3.91-.002-7.816-.017-11.724-.023-3.502-.005-7.006.002-10.51-.01-3.17-.012-6.336-.05-9.507-.062-3.746-.015-7.496-.02-11.244-.018-4.158.003-8.312.023-12.47.027-3.205.003-6.414-.02-9.617-.008-3.558.012-7.11.067-10.667.07-3.58.005-7.162-.037-10.745-.046-1.798-.004-3.6.024-5.4.03-3.69.01-7.38.006-11.072.02-3.696.015-7.39.05-11.086.067-4.484.022-8.97.04-13.455.055-2.263.008-4.53.006-6.795.012-3.992.01-7.985.027-11.978.03-3.797.004-7.593-.01-11.39-.008-3.045 0-6.087.02-9.13.02-3.864-.004-7.726-.037-11.587-.03-5.36.012-10.717.052-16.076.072-4.815.02-9.634.022-14.447.04-1.995.008-3.984.042-5.98.054-2.7.017-5.405.022-8.107.038-2.652.016-5.304.035-7.95.064-1.374.014-2.73.07-4.1.076-4.077.017-8.16.006-12.237.03-2.113.01-4.204.084-6.315.107-5.113.058-10.23.12-15.354.148-3.986.022-7.984-.015-11.976-.006-1.885.003-3.76.063-5.647.083-1.64.018-3.293.01-4.935.023-5.05.043-10.096.095-15.146.136-2.834.023-5.688.014-8.51.05-5.757.078-11.497.18-17.248.267-5.12.076-10.24.15-15.366.218-2.848.038-5.71.054-8.562.088-3.932.047-7.877.083-11.78.16-2.842.058-5.74.13-8.403.274-2.93.158-5.65.396-8.396.616v.95z"/><path d="M1811.897 7.656h-.014c.012.007.016.005.014 0"/></g></g></svg>