<svg width="12" height="10" viewBox="0 0 12 10" xmlns="http://www.w3.org/2000/svg"><title>more</title><path d="M11.922 5.177c.024-.026.042-.052.055-.082.012-.03.02-.062.02-.095 0-.034-.008-.067-.02-.097-.013-.03-.03-.06-.055-.082L7.414.314c-.098-.098-.257-.098-.355 0-.05.05-.075.113-.075.177 0 .065.025.13.074.178l4.08 4.08H.25C.113 4.75 0 4.862 0 5c0 .14.112.25.25.25h10.89L7.06 9.33c-.05.05-.075.113-.075.177 0 .065.025.13.074.178.097.098.256.098.354 0l4.508-4.508z" fill="#000" fill-rule="evenodd"/></svg>