<svg width="28" height="12" viewBox="0 0 28 12" xmlns="http://www.w3.org/2000/svg"><title>project-nav</title><g stroke="#FFF" fill="none" fill-rule="evenodd"><path d="M22.416 10.685l4.51-4.507.002-.002c.022-.024.04-.05.053-.08.013-.03.02-.062.02-.095s-.007-.066-.02-.096c-.012-.03-.03-.06-.053-.082l-4.51-4.508c-.1-.098-.258-.098-.356 0-.048.05-.073.113-.073.177 0 .066.025.13.074.18l4.083 4.08H15.42c-.138 0-.25.11-.25.25s.112.25.25.25h10.723l-4.082 4.08c-.048.05-.073.114-.073.178 0 .065.025.13.074.178.1.098.258.098.356 0M5.582 10.685l-4.51-4.507v-.002c-.022-.024-.04-.05-.053-.08C1.006 6.066 1 6.034 1 6s.007-.066.02-.096c.012-.03.03-.06.053-.082l4.51-4.508c.097-.098.256-.098.354 0 .05.05.074.113.074.177 0 .066-.024.13-.073.18l-4.08 4.08h10.718c.14 0 .25.11.25.25s-.11.25-.25.25H1.857l4.08 4.08c.05.05.074.114.074.178 0 .065-.024.13-.073.178-.098.098-.257.098-.355 0"/></g></svg>