<svg width="40" height="40" viewBox="0 0 40 40" xmlns="http://www.w3.org/2000/svg"><title>share</title><g fill="none" fill-rule="evenodd"><circle fill="#FFF" cx="20" cy="20" r="20"/><path d="M37.2 10.03c-1.775-3.044-4.184-5.453-7.228-7.23C26.93 1.024 23.606.136 20.002.136c-3.604 0-6.928.888-9.97 2.664-3.045 1.776-5.454 4.186-7.23 7.23C1.025 13.072.137 16.395.137 20c0 4.017 1.095 7.665 3.285 10.94 2.19 3.277 5.06 5.7 8.613 7.27-.07-1.846.043-3.372.336-4.58l2.56-10.81c-.43-.846-.645-1.897-.645-3.156 0-1.466.37-2.69 1.112-3.673.74-.982 1.646-1.473 2.716-1.473.862 0 1.525.284 1.99.853.467.57.7 1.285.7 2.147 0 .534-.1 1.186-.3 1.953-.197.767-.455 1.655-.774 2.664-.32 1.01-.55 1.815-.687 2.418-.24 1.052-.043 1.953.595 2.703.638.75 1.483 1.126 2.535 1.126 1.845 0 3.358-1.025 4.54-3.077 1.18-2.053 1.77-4.544 1.77-7.475 0-2.26-.728-4.096-2.185-5.51-1.457-1.413-3.488-2.12-6.09-2.12-2.915 0-5.273.935-7.075 2.806-1.802 1.87-2.703 4.108-2.703 6.712 0 1.552.44 2.854 1.32 3.906.292.344.387.715.284 1.112-.035.103-.104.362-.207.776-.104.413-.173.68-.207.8-.138.553-.466.725-.983.52-1.327-.553-2.336-1.51-3.026-2.873-.69-1.36-1.033-2.94-1.033-4.733 0-1.155.185-2.31.556-3.465.37-1.157.948-2.273 1.732-3.35.785-1.08 1.725-2.032 2.82-2.86 1.094-.827 2.426-1.49 3.996-1.99 1.57-.5 3.26-.75 5.07-.75 2.45 0 4.647.543 6.595 1.63 1.95 1.085 3.436 2.49 4.462 4.215 1.026 1.724 1.54 3.57 1.54 5.535 0 2.587-.45 4.914-1.346 6.984-.895 2.07-2.163 3.694-3.8 4.875-1.64 1.18-3.5 1.77-5.588 1.77-1.052 0-2.035-.245-2.95-.737-.912-.49-1.542-1.073-1.887-1.745-.776 3.05-1.24 4.87-1.397 5.457-.327 1.224-1 2.638-2.017 4.24 1.846.553 3.725.828 5.64.828 3.603 0 6.927-.887 9.97-2.664 3.043-1.777 5.453-4.186 7.23-7.23 1.775-3.043 2.663-6.367 2.663-9.97 0-3.604-.886-6.928-2.662-9.97z" fill="#CF1614"/></g></svg>